<?xml version="1.0" encoding="UTF-8" standalone="no"?>
<!DOCTYPE svg PUBLIC "-//W3C//DTD SVG 1.1//EN" "http://www.w3.org/Graphics/SVG/1.1/DTD/svg11.dtd">
<svg xmlns="http://www.w3.org/2000/svg" version="1.1" viewBox="0.00 0.00 930.00 310.00">
<g stroke-width="2.00" fill="none" stroke-linecap="butt">
<path stroke="#88b39a" vector-effect="non-scaling-stroke" d="
  M 473.27 126.32
  C 472.72 143.55 485.48 157.84 502.06 160.65
  C 513.35 162.57 524.42 157.91 532.73 150.20
  Q 541.71 141.86 550.70 133.58
  Q 551.09 133.22 550.81 132.77
  L 547.73 127.77"
/>
<path stroke="#a3a3a3" vector-effect="non-scaling-stroke" d="
  M 547.73 127.77
  Q 550.21 123.23 554.21 119.00
  Q 554.77 118.42 554.28 117.77
  Q 545.29 105.99 537.57 96.63
  Q 528.79 86.01 516.29 82.78
  Q 515.19 82.50 516.28 82.19
  C 522.59 80.36 528.89 74.29 532.42 68.97
  Q 539.87 57.72 537.28 43.34
  A 2.06 2.05 3.6 0 0 535.86 41.74
  L 534.58 41.36
  Q 534.10 41.21 534.09 40.70
  C 533.70 15.63 505.95 3.61 487.31 20.15
  Q 486.84 20.57 486.27 20.29
  L 484.52 19.41
  Q 483.97 19.13 483.46 19.46
  Q 463.76 32.14 467.23 55.99
  Q 467.61 58.63 468.61 61.05
  Q 468.94 61.85 468.19 61.41
  C 455.09 53.63 437.71 55.75 423.01 59.63
  Q 422.52 59.76 422.03 59.86
  C 419.14 60.46 419.29 64.64 422.31 65.12
  C 445.10 68.70 468.71 82.43 473.21 106.92
  Q 473.81 110.13 473.43 115.57
  Q 473.07 120.92 473.27 126.32"
/>
<path stroke="#2c573e" vector-effect="non-scaling-stroke" d="
  M 547.73 127.77
  Q 542.24 133.77 537.42 139.84
  Q 535.13 142.72 533.51 144.12
  Q 531.23 146.07 528.75 147.54
  C 522.02 151.53 513.96 155.57 506.04 154.31
  Q 495.95 152.71 488.33 147.34
  Q 484.17 144.39 480.85 139.86
  Q 477.37 135.12 475.11 129.17
  Q 474.55 127.72 474.35 126.48
  Q 474.32 126.31 474.19 126.19
  L 474.00 125.99
  Q 473.71 125.70 473.52 126.06
  Q 473.44 126.22 473.27 126.32"
/>
<path stroke="#88b39a" vector-effect="non-scaling-stroke" d="
  M 402.76 248.89
  Q 386.80 251.90 371.32 249.09
  C 345.10 244.32 330.11 226.44 325.76 200.69
  C 322.78 183.06 323.89 165.10 332.03 149.49
  C 341.66 131.02 358.39 120.96 378.93 120.74
  Q 403.81 120.47 423.21 137.15
  A 0.49 0.49 0.0 0 0 424.02 136.78
  L 424.02 113.70
  Q 424.02 113.09 423.41 113.03
  Q 409.41 111.66 398.48 110.95
  C 374.51 109.39 348.46 113.64 329.10 127.86
  C 305.51 145.19 298.13 173.36 301.49 201.86
  Q 303.23 216.56 309.15 227.50
  C 321.78 250.81 347.31 259.58 373.10 260.35
  Q 398.04 261.08 422.92 257.61
  Q 424.88 257.34 426.87 256.97
  Q 427.47 256.86 427.38 256.25
  Q 426.08 247.57 425.88 239.14
  Q 425.45 220.89 426.10 203.80
  Q 426.46 194.32 430.43 186.36
  Q 430.74 185.74 430.04 185.74
  L 401.28 185.75
  Q 400.45 185.75 400.86 186.47
  C 404.47 192.67 405.38 200.50 405.46 207.74
  Q 405.59 219.90 405.44 232.63
  Q 405.34 240.80 403.53 248.17
  A 0.99 0.97 1.3 0 1 402.76 248.89"
/>
<path stroke="#88b39a" vector-effect="non-scaling-stroke" d="
  M 104.60 174.42
  C 121.90 167.26 137.98 155.64 134.73 134.18
  C 132.30 118.17 117.32 112.01 102.61 111.96
  Q 91.82 111.93 81.52 112.59
  Q 62.25 113.82 43.05 114.28
  Q 42.21 114.30 42.60 115.05
  C 45.68 120.87 46.90 127.62 46.93 134.18
  Q 47.09 168.81 46.93 213.67
  C 46.88 228.03 45.39 242.71 39.99 256.37
  Q 39.79 256.87 40.33 256.89
  Q 58.21 257.35 76.24 257.68
  C 93.47 258.01 112.04 257.78 126.52 247.42
  C 139.06 238.45 143.41 223.84 142.34 208.56
  C 140.83 186.99 122.82 179.31 104.66 175.14
  Q 103.51 174.87 104.60 174.42"
/>
<path stroke="#88b39a" vector-effect="non-scaling-stroke" d="
  M 224.37 232.98
  C 223.09 232.11 222.37 229.18 221.99 227.76
  C 212.27 192.07 198.92 155.49 186.34 118.43
  C 185.47 115.87 183.42 114.18 180.59 114.21
  Q 170.02 114.30 161.66 114.22
  Q 160.85 114.21 161.20 114.94
  C 174.32 142.20 184.20 171.90 193.18 201.51
  Q 201.57 229.17 209.56 257.05
  Q 209.76 257.74 210.49 257.74
  L 226.78 257.75
  A 0.89 0.89 0.0 0 0 227.62 257.16
  Q 239.24 224.92 252.60 191.56
  Q 269.03 150.50 289.11 114.84
  Q 289.45 114.23 288.76 114.23
  L 262.17 114.25
  Q 261.44 114.25 261.60 114.97
  C 263.63 123.62 261.74 131.85 259.29 140.75
  Q 256.09 152.42 252.91 161.40
  Q 243.08 189.11 232.48 216.46
  C 230.41 221.80 228.82 227.16 226.43 232.40
  Q 225.74 233.92 224.37 232.98"
/>
<path stroke="#a3a3a3" vector-effect="non-scaling-stroke" d="
  M 599.78 139.57
  A 2.52 2.52 0.0 0 0 597.26 137.05
  L 596.52 137.05
  A 2.52 2.52 0.0 0 0 594.00 139.57
  L 594.00 235.97
  A 2.52 2.52 0.0 0 0 596.52 238.49
  L 597.26 238.49
  A 2.52 2.52 0.0 0 0 599.78 235.97
  L 599.78 139.57"
/>
<path stroke="#a3a3a3" vector-effect="non-scaling-stroke" d="
  M 641.74 176.57
  C 634.28 180.07 626.24 175.97 626.73 167.07
  Q 627.32 156.52 638.28 157.58
  C 641.76 157.92 643.06 159.41 644.92 161.89
  A 1.17 1.17 0.0 0 0 647.02 161.12
  C 646.89 158.71 644.23 156.60 642.18 155.85
  Q 635.58 153.41 629.70 156.43
  C 624.50 159.09 623.26 165.60 624.30 171.03
  C 626.35 181.74 641.77 183.49 646.78 175.12
  A 1.40 1.39 -50.8 0 0 646.62 173.47
  Q 646.02 172.81 645.21 173.16
  C 643.96 173.71 643.30 175.84 641.74 176.57"
/>
<path stroke="#a3a3a3" vector-effect="non-scaling-stroke" d="
  M 712.73 157.59
  C 715.66 157.22 720.09 157.46 721.90 160.14
  Q 722.51 161.03 723.22 161.80
  Q 724.12 162.76 725.07 161.85
  Q 725.24 161.70 725.26 161.48
  Q 725.38 160.24 724.67 159.21
  C 720.25 152.84 708.24 153.44 704.22 160.00
  Q 701.92 163.77 702.28 168.66
  C 702.83 176.09 707.98 180.54 715.26 180.29
  C 719.40 180.15 723.35 178.90 725.13 174.83
  Q 725.65 173.64 724.46 173.12
  A 1.11 1.10 -58.4 0 0 723.17 173.43
  C 722.24 174.54 721.65 175.81 720.29 176.50
  C 713.53 179.89 705.40 176.73 705.00 168.44
  C 704.74 163.01 707.16 158.31 712.73 157.59"
/>
<path stroke="#a3a3a3" vector-effect="non-scaling-stroke" d="
  M 900.56 159.72
  C 901.09 160.27 901.15 161.28 901.74 161.84
  Q 902.44 162.52 903.29 162.05
  Q 903.81 161.75 903.83 161.15
  C 904.01 152.89 885.49 151.88 887.28 162.99
  C 887.66 165.37 890.43 167.09 892.47 167.74
  Q 895.93 168.84 898.96 170.12
  C 902.22 171.49 902.02 175.13 899.19 176.77
  Q 895.78 178.74 892.21 176.83
  C 890.89 176.13 890.18 174.97 889.27 173.85
  A 1.04 1.04 0.0 0 0 887.60 173.93
  Q 887.10 174.68 887.45 175.53
  C 889.92 181.53 900.21 182.00 903.36 176.44
  C 905.37 172.88 903.80 168.92 899.99 167.50
  Q 896.22 166.09 892.44 164.76
  C 889.05 163.56 889.36 159.38 892.35 158.14
  Q 897.10 156.17 900.56 159.72"
/>
<path stroke="#a3a3a3" vector-effect="non-scaling-stroke" d="
  M 674.7159 165.7219
  A 10.81 10.81 0.0 0 0 663.7560 155.0639
  L 661.2763 155.0985
  A 10.81 10.81 0.0 0 0 650.6183 166.0584
  L 650.6641 169.3381
  A 10.81 10.81 0.0 0 0 661.6240 179.9961
  L 664.1037 179.9615
  A 10.81 10.81 0.0 0 0 674.7617 169.0016
  L 674.7159 165.7219"
/>
<path stroke="#a3a3a3" vector-effect="non-scaling-stroke" d="
  M 884.1436 165.6774
  A 10.84 10.84 0.0 0 0 873.0790 155.0668
  L 870.5995 155.1187
  A 10.84 10.84 0.0 0 0 859.9889 166.1833
  L 860.0564 169.4026
  A 10.84 10.84 0.0 0 0 871.1210 180.0132
  L 873.6005 179.9613
  A 10.84 10.84 0.0 0 0 884.2111 168.8967
  L 884.1436 165.6774"
/>
<path stroke="#a3a3a3" vector-effect="non-scaling-stroke" d="
  M 681.30 160.96
  Q 681.31 160.04 681.85 160.79
  Q 688.82 170.48 694.59 178.71
  Q 695.69 180.28 697.54 179.71
  A 1.35 1.34 -8.3 0 0 698.49 178.44
  L 698.54 156.30
  A 0.86 0.81 23.6 0 0 698.29 155.71
  Q 697.12 154.54 696.01 156.16
  A 1.17 1.16 63.2 0 0 695.81 156.78
  L 695.73 174.03
  A 0.38 0.38 0.0 0 1 695.24 174.38
  Q 695.01 174.30 694.87 174.09
  Q 688.49 165.02 681.94 155.80
  A 1.71 1.71 0.0 0 0 678.87 156.44
  Q 678.56 157.85 678.55 159.27
  Q 678.47 169.59 678.53 178.38
  Q 678.54 179.35 679.42 179.75
  Q 679.79 179.91 680.14 179.79
  Q 681.15 179.43 681.16 178.36
  L 681.30 160.96"
/>
<path stroke="#a3a3a3" vector-effect="non-scaling-stroke" d="
  M 732.25 169.75
  L 740.39 169.75
  Q 741.59 169.75 741.71 168.56
  Q 741.77 167.96 740.55 167.38
  A 1.23 1.23 0.0 0 0 740.00 167.25
  L 732.25 167.25
  Q 732.00 167.25 732.00 167.00
  L 732.01 158.00
  Q 732.01 157.76 732.25 157.76
  L 742.97 157.78
  A 0.87 0.87 0.0 0 0 743.76 157.27
  Q 743.95 156.86 743.85 156.41
  Q 743.60 155.22 742.39 155.23
  L 730.00 155.26
  A 0.75 0.74 0.0 0 0 729.25 156.00
  L 729.26 179.25
  A 0.49 0.49 0.0 0 0 729.75 179.74
  L 742.49 179.75
  Q 743.62 179.75 743.94 178.66
  Q 744.13 178.02 742.98 177.38
  A 1.08 0.99 56.7 0 0 742.50 177.26
  L 732.26 177.26
  Q 732.01 177.26 732.00 177.00
  L 732.00 170.00
  A 0.25 0.25 0.0 0 1 732.25 169.75"
/>
<path stroke="#a3a3a3" vector-effect="non-scaling-stroke" d="
  M 765.59 174.08
  Q 765.62 175.44 764.82 174.33
  Q 758.35 165.30 752.19 156.35
  Q 750.88 154.44 748.92 155.64
  Q 748.50 155.89 748.50 156.37
  L 748.19 178.15
  Q 748.17 179.17 749.09 179.63
  Q 749.47 179.82 749.87 179.69
  Q 751.00 179.34 751.00 178.16
  L 751.01 161.22
  Q 751.01 159.74 751.86 160.95
  Q 758.12 169.87 764.49 178.74
  Q 765.40 180.01 766.96 179.77
  A 1.50 1.50 0.0 0 0 768.23 178.29
  L 768.29 156.30
  Q 768.29 155.42 767.42 155.31
  L 767.06 155.26
  Q 765.87 155.12 765.82 156.32
  Q 765.37 165.69 765.59 174.08"
/>
<path stroke="#a3a3a3" vector-effect="non-scaling-stroke" d="
  M 778.62 158.44
  L 778.48 178.47
  A 0.97 0.89 30.6 0 0 778.65 179.03
  Q 779.45 180.16 780.19 179.93
  Q 781.25 179.60 781.25 178.49
  L 781.26 158.49
  Q 781.26 157.74 782.01 157.75
  L 786.51 157.80
  A 1.09 1.08 26.1 0 0 787.22 157.56
  Q 788.34 156.67 787.16 155.58
  A 1.33 1.30 65.9 0 0 786.27 155.23
  L 773.40 155.25
  Q 772.18 155.25 772.00 156.47
  Q 771.95 156.75 772.03 157.03
  A 1.01 1.01 0.0 0 0 773.00 157.76
  L 777.94 157.75
  Q 778.63 157.75 778.62 158.44"
/>
<path stroke="#a3a3a3" vector-effect="non-scaling-stroke" d="
  M 794.76 171.50
  L 799.80 171.50
  A 1.48 1.47 -14.4 0 1 801.09 172.26
  L 804.07 177.67
  Q 804.58 178.58 805.38 179.24
  Q 806.54 180.21 807.29 179.40
  A 1.04 1.03 -37.9 0 0 807.44 178.22
  L 803.88 171.62
  Q 803.59 171.08 804.12 170.77
  Q 809.36 167.73 808.06 160.99
  C 806.71 154.00 797.18 155.14 792.21 155.25
  A 0.73 0.73 0.0 0 0 791.50 155.98
  L 791.50 178.50
  Q 791.50 179.74 792.75 179.75
  L 793.25 179.75
  Q 794.00 179.76 794.00 179.00
  L 794.01 172.24
  Q 794.01 171.50 794.76 171.50"
/>
<path stroke="#a3a3a3" vector-effect="non-scaling-stroke" d="
  M 836.63 156.32
  L 836.47 178.60
  A 1.12 1.12 0.0 0 0 837.58 179.73
  L 846.23 179.79
  A 10.21 10.19 0.4 0 0 856.52 169.67
  L 856.54 165.53
  A 10.21 10.19 0.4 0 0 846.41 155.27
  L 837.76 155.21
  A 1.12 1.12 0.0 0 0 836.63 156.32"
/>
<path stroke="#a3a3a3" vector-effect="non-scaling-stroke" d="
  M 828.72 175.55
  L 830.15 179.05
  A 1.20 1.20 0.0 0 0 830.78 179.71
  Q 831.78 180.17 832.46 179.63
  A 1.21 1.20 59.9 0 0 832.83 178.23
  Q 828.58 167.88 824.63 157.21
  Q 823.80 154.95 820.91 155.67
  A 1.18 1.18 0.0 0 0 820.10 156.39
  L 811.49 178.01
  Q 811.04 179.15 812.14 179.69
  Q 812.29 179.76 812.45 179.81
  Q 813.57 180.17 814.01 179.08
  L 815.48 175.35
  Q 815.71 174.75 816.36 174.75
  L 827.54 174.76
  A 1.28 1.26 -10.9 0 1 828.72 175.55"
/>
<path stroke="#88b39a" vector-effect="non-scaling-stroke" d="
  M 792.04 188.92
  Q 792.97 190.24 794.29 191.50
  A 2.74 2.69 -22.8 0 0 796.16 192.24
  L 798.03 192.24
  Q 799.66 192.24 798.58 191.02
  Q 797.10 189.34 795.69 187.46
  C 794.26 185.54 792.28 185.57 790.14 185.77
  C 787.93 185.98 785.74 189.51 784.47 191.13
  Q 783.64 192.18 784.98 192.22
  L 787.22 192.28
  Q 788.17 192.30 788.79 191.59
  L 791.17 188.87
  Q 791.63 188.33 792.04 188.92"
/>
<path stroke="#88b39a" vector-effect="non-scaling-stroke" d="
  M 804.47 206.22
  A 11.66 11.66 0.0 0 0 792.81 194.56
  L 790.43 194.56
  A 11.66 11.66 0.0 0 0 778.77 206.22
  L 778.77 209.56
  A 11.66 11.66 0.0 0 0 790.43 221.22
  L 792.81 221.22
  A 11.66 11.66 0.0 0 0 804.47 209.56
  L 804.47 206.22"
/>
<path stroke="#88b39a" vector-effect="non-scaling-stroke" d="
  M 623.97 196.44
  L 623.73 219.16
  A 1.79 1.79 0.0 0 0 625.50 220.96
  L 633.76 221.05
  A 11.55 11.39 0.6 0 0 645.43 209.78
  L 645.47 206.26
  A 11.55 11.39 0.6 0 0 634.04 194.75
  L 625.78 194.67
  A 1.79 1.79 0.0 0 0 623.97 196.44"
/>
<path stroke="#88b39a" vector-effect="non-scaling-stroke" d="
  M 726.48 204.15
  Q 726.46 211.18 726.51 218.53
  Q 726.52 220.29 728.23 220.96
  Q 728.49 221.06 728.77 221.01
  Q 731.08 220.63 731.08 218.28
  L 731.02 196.78
  A 2.05 2.05 0.0 0 0 729.14 194.74
  Q 727.33 194.60 726.19 196.09
  Q 722.43 201.01 719.11 205.79
  A 0.48 0.48 0.0 0 1 718.33 205.81
  Q 714.92 201.24 711.72 196.77
  C 710.98 195.75 710.01 195.12 708.81 194.77
  A 1.60 1.60 0.0 0 0 706.75 196.30
  L 706.75 218.96
  A 1.77 1.75 19.3 0 0 707.42 220.34
  Q 708.43 221.13 709.34 220.88
  Q 711.08 220.38 711.08 218.57
  L 711.02 204.02
  Q 711.01 202.95 711.63 203.82
  L 718.18 213.03
  Q 718.74 213.81 719.30 213.04
  L 725.92 203.97
  Q 726.48 203.21 726.48 204.15"
/>
<path stroke="#88b39a" vector-effect="non-scaling-stroke" d="
  M 770.69 199.73
  Q 765.41 207.65 759.94 215.78
  Q 758.98 217.21 758.80 218.85
  A 1.98 1.98 0.0 0 0 760.77 221.04
  L 775.30 221.02
  Q 777.08 221.02 777.60 219.31
  Q 777.71 218.95 777.56 218.57
  Q 776.86 216.74 774.90 216.75
  L 765.51 216.76
  Q 764.79 216.76 765.19 216.16
  Q 770.77 207.65 775.33 200.99
  Q 776.65 199.06 777.22 196.80
  A 1.64 1.63 -82.8 0 0 775.64 194.76
  L 760.17 194.74
  Q 758.32 194.73 758.25 196.58
  L 758.24 196.98
  Q 758.16 199.04 760.23 199.04
  L 770.31 199.02
  Q 771.16 199.02 770.69 199.73"
/>
<path stroke="#88b39a" vector-effect="non-scaling-stroke" d="
  M 823.21 212.25
  Q 817.73 204.47 811.79 196.02
  Q 810.48 194.16 808.27 194.91
  Q 806.94 195.36 806.86 196.77
  Q 806.26 208.27 806.63 219.10
  A 1.71 1.71 0.0 0 0 807.13 220.26
  Q 808.11 221.24 809.11 220.97
  Q 810.68 220.54 810.72 218.91
  L 811.11 203.93
  Q 811.14 203.00 811.67 203.77
  Q 817.58 212.25 823.04 219.89
  C 824.31 221.67 827.93 221.60 828.03 218.95
  Q 828.54 205.93 828.20 196.75
  Q 828.14 195.25 826.69 194.90
  Q 826.39 194.83 826.08 194.86
  Q 824.18 195.01 824.04 196.92
  Q 823.55 204.05 823.80 212.06
  Q 823.83 213.13 823.21 212.25"
/>
<path stroke="#88b39a" vector-effect="non-scaling-stroke" d="
  M 835.2708 196.8363
  A 2.06 2.06 0.0 0 0 833.2072 194.7799
  L 833.0272 194.7802
  A 2.06 2.06 0.0 0 0 830.9708 196.8438
  L 831.0092 218.8837
  A 2.06 2.06 0.0 0 0 833.0728 220.9401
  L 833.2528 220.9398
  A 2.06 2.06 0.0 0 0 835.3092 218.8762
  L 835.2708 196.8363"
/>
<path stroke="#88b39a" vector-effect="non-scaling-stroke" d="
  M 664.21 216.31
  L 665.76 219.61
  Q 666.65 221.51 668.67 220.97
  Q 668.90 220.90 669.10 220.78
  Q 670.48 219.93 669.90 218.42
  Q 665.75 207.58 661.03 196.27
  C 660.27 194.44 656.42 194.31 655.65 196.24
  Q 651.39 206.89 646.74 218.79
  A 1.51 1.50 29.9 0 0 647.21 220.51
  Q 647.69 220.88 648.26 220.99
  Q 650.36 221.40 651.15 219.41
  L 652.33 216.43
  Q 652.60 215.75 653.34 215.75
  L 663.31 215.74
  Q 663.94 215.74 664.21 216.31"
/>
<path stroke="#88b39a" vector-effect="non-scaling-stroke" d="
  M 699.03 216.45
  L 700.24 219.30
  Q 701.04 221.20 703.09 221.00
  Q 704.21 220.89 704.54 219.19
  A 1.71 1.69 40.3 0 0 704.46 218.27
  Q 700.20 207.22 695.83 196.55
  C 694.81 194.05 691.08 194.35 690.11 196.73
  Q 685.67 207.62 681.42 218.65
  A 1.55 1.55 0.0 0 0 681.72 220.26
  Q 682.23 220.81 682.92 220.98
  Q 684.90 221.47 685.67 219.59
  L 687.00 216.34
  Q 687.25 215.73 687.90 215.73
  L 697.95 215.74
  A 1.18 1.16 -11.3 0 1 699.03 216.45"
/>
<path stroke="#88b39a" vector-effect="non-scaling-stroke" d="
  M 750.58 216.61
  L 752.16 219.85
  Q 752.93 221.46 754.67 221.06
  Q 755.32 220.91 755.83 220.38
  A 1.60 1.60 0.0 0 0 756.18 218.67
  Q 752.02 208.00 747.46 196.79
  Q 746.55 194.57 743.90 194.87
  C 742.09 195.07 741.75 196.29 741.19 197.70
  Q 736.71 209.00 732.92 218.77
  A 1.50 1.50 0.0 0 0 733.22 220.32
  Q 733.66 220.79 734.24 220.97
  Q 736.40 221.61 737.25 219.52
  L 738.55 216.33
  Q 738.79 215.74 739.43 215.74
  L 749.20 215.75
  Q 750.16 215.75 750.58 216.61"
/>
<path stroke="#88b39a" vector-effect="non-scaling-stroke" d="
  M 843.02 216.24
  A 0.80 0.78 -78.9 0 1 843.75 215.74
  L 853.91 215.75
  Q 854.64 215.75 854.95 216.41
  L 856.47 219.72
  Q 857.15 221.19 858.78 221.10
  Q 859.17 221.08 859.48 220.88
  Q 861.05 219.90 860.38 218.17
  Q 855.78 206.26 851.88 196.45
  Q 851.38 195.18 849.76 194.98
  Q 846.88 194.63 845.93 196.98
  Q 841.60 207.81 837.43 218.43
  A 1.81 1.80 -68.2 0 0 838.42 220.75
  L 838.87 220.94
  Q 840.81 221.75 841.59 219.80
  L 843.02 216.24"
/>
<path stroke="#a3a3a3" vector-effect="non-scaling-stroke" d="
  M 527.25 31.45
  C 518.99 38.55 504.31 32.16 499.80 23.87
  Q 498.54 21.55 498.79 19.19
  A 0.49 0.49 0.0 0 0 498.12 18.68
  Q 494.03 20.29 491.18 22.97
  A 0.38 0.38 0.0 0 0 491.19 23.54
  Q 502.23 32.74 502.79 47.68
  Q 502.82 48.50 503.42 47.95
  C 510.42 41.56 519.48 38.88 528.98 40.01
  Q 529.53 40.07 529.50 39.52
  Q 529.31 35.61 527.88 31.61
  Q 527.68 31.08 527.25 31.45"
/>
<path stroke="#a3a3a3" vector-effect="non-scaling-stroke" d="
  M 491.98 69.41
  A 0.79 0.78 23.5 0 1 491.56 68.35
  Q 494.38 62.38 496.43 57.07
  C 501.18 44.76 495.80 31.05 484.55 24.57
  A 0.42 0.42 0.0 0 0 484.08 24.59
  Q 472.29 32.98 471.29 47.26
  C 469.90 67.08 487.86 83.84 507.63 80.18
  C 523.88 77.16 535.43 62.68 533.02 45.97
  Q 532.97 45.64 532.66 45.54
  C 519.69 41.54 506.21 47.60 500.50 59.68
  Q 497.97 65.04 495.91 70.29
  Q 495.68 70.88 495.09 70.65
  L 491.98 69.41"
/>
<path stroke="#a3a3a3" vector-effect="non-scaling-stroke" d="
  M 436.41 62.97
  C 455.02 69.39 469.93 79.98 476.84 99.20
  Q 477.12 99.99 477.30 99.17
  Q 479.30 89.73 476.94 80.68
  C 474.01 69.45 463.15 62.86 451.91 61.86
  Q 444.43 61.19 436.46 62.45
  Q 435.38 62.62 436.41 62.97"
/>
<path stroke="#a3a3a3" vector-effect="non-scaling-stroke" d="
  M 482.32 79.60
  Q 484.03 86.29 483.42 92.10
  Q 483.33 92.93 483.93 92.35
  Q 488.98 87.51 495.21 84.80
  Q 495.98 84.47 495.16 84.32
  Q 488.47 83.11 482.70 79.33
  Q 482.15 78.97 482.32 79.60"
/>
<path stroke="#2c573e" vector-effect="non-scaling-stroke" d="
  M 483.77 101.69
  Q 489.17 101.43 494.21 100.04
  Q 500.25 98.37 502.45 98.15
  Q 510.21 97.38 518.74 98.54
  Q 522.41 99.04 524.75 100.06
  Q 525.62 100.44 526.53 100.58
  Q 527.57 100.75 528.32 101.52
  Q 528.67 101.88 529.16 101.93
  L 531.57 102.17"
/>
<path stroke="#a3a3a3" vector-effect="non-scaling-stroke" d="
  M 531.57 102.17
  L 538.46 106.24
  Q 539.26 106.71 538.73 105.94
  C 528.37 90.95 513.75 81.83 495.57 90.08
  Q 487.04 93.96 482.21 102.43
  Q 481.88 103.01 482.50 102.76
  Q 483.28 102.44 483.77 101.69"
/>
<path stroke="#88b39a" vector-effect="non-scaling-stroke" d="
  M 531.57 102.17
  Q 518.26 88.76 499.50 92.95
  Q 490.66 94.92 483.77 101.69"
/>
<path stroke="#a3a3a3" vector-effect="non-scaling-stroke" d="
  M 542.89 118.79
  Q 543.08 119.47 543.58 119.99
  Q 543.99 120.41 544.48 120.09
  L 546.52 118.75
  Q 547.25 118.27 546.53 117.77
  L 540.66 113.75"
/>
<path stroke="#2c573e" vector-effect="non-scaling-stroke" d="
  M 540.66 113.75
  Q 540.50 112.61 540.79 111.63
  Q 540.89 111.32 540.63 111.14
  Q 540.58 111.10 540.54 111.14
  Q 539.89 111.76 539.55 110.93
  Q 539.30 110.32 538.63 110.40
  Q 538.01 110.48 537.80 109.89
  Q 537.61 109.41 537.09 109.37
  Q 534.99 109.20 533.03 108.80
  Q 532.56 108.71 532.25 108.34
  Q 531.46 107.39 530.19 107.20
  Q 527.88 106.85 526.02 105.93
  Q 521.60 103.74 517.42 103.22
  Q 503.53 101.48 488.11 106.35
  Q 481.97 108.28 479.63 113.63
  Q 476.43 120.98 482.74 126.10
  Q 485.77 128.56 488.99 129.62
  Q 497.89 132.55 506.67 133.50
  Q 510.00 133.87 513.49 133.40
  Q 520.30 132.49 526.56 130.65
  Q 530.52 129.49 534.29 126.60
  C 536.22 125.11 539.17 125.14 540.56 123.12
  Q 541.08 122.37 541.80 121.78
  Q 542.25 121.42 542.39 120.85
  L 542.89 118.79"
/>
<path stroke="#88b39a" vector-effect="non-scaling-stroke" d="
  M 540.66 113.75
  L 540.38 113.71
  Q 539.98 113.65 540.18 114.00
  L 542.89 118.79"
/>
<path stroke="#2c573e" vector-effect="non-scaling-stroke" d="
  M 534.05 135.89
  C 534.83 134.86 536.11 134.22 537.08 133.39
  Q 537.41 133.12 537.52 132.69
  Q 537.70 131.94 537.10 131.40
  A 1.22 1.22 0.0 0 0 535.88 131.16
  Q 533.75 131.94 532.05 133.32
  Q 530.75 134.39 529.12 134.85
  Q 523.51 136.46 516.37 137.88
  C 510.61 139.03 504.40 137.89 498.62 137.38
  C 493.24 136.90 488.78 135.01 484.10 132.65
  A 1.00 1.00 0.0 0 0 482.65 133.54
  Q 482.65 134.47 483.34 135.17
  C 485.63 137.51 487.41 140.35 489.85 142.46
  Q 494.36 146.38 501.61 147.84
  Q 506.91 148.91 511.26 149.02
  Q 514.63 149.11 519.13 147.45
  Q 521.94 146.42 524.61 144.42
  Q 527.54 142.23 529.92 140.33
  Q 531.85 138.79 534.05 135.89"
/>
<path stroke="#88b39a" vector-effect="non-scaling-stroke" d="
  M 112.86 141.33
  C 112.10 129.60 105.27 123.49 93.90 121.98
  Q 81.66 120.35 68.05 122.11
  Q 67.50 122.18 67.50 122.74
  L 67.51 173.22
  A 0.44 0.44 0.0 0 0 67.92 173.66
  C 89.83 175.00 114.63 169.03 112.86 141.33"
/>
<path stroke="#88b39a" vector-effect="non-scaling-stroke" d="
  M 117.13 202.75
  C 110.95 182.34 85.45 181.63 68.07 182.32
  Q 67.52 182.34 67.51 182.89
  Q 67.42 206.83 67.58 231.49
  Q 67.61 235.64 68.63 240.28
  Q 70.23 247.62 77.50 248.36
  Q 86.95 249.31 96.49 247.10
  C 108.38 244.35 116.14 236.66 118.23 224.73
  Q 120.27 213.12 117.13 202.75"
/>
<path stroke="#a3a3a3" vector-effect="non-scaling-stroke" d="
  M 672.17 166.09
  A 8.48 8.48 0.0 0 0 663.69 157.61
  L 661.79 157.61
  A 8.48 8.48 0.0 0 0 653.31 166.09
  L 653.31 168.99
  A 8.48 8.48 0.0 0 0 661.79 177.47
  L 663.69 177.47
  A 8.48 8.48 0.0 0 0 672.17 168.99
  L 672.17 166.09"
/>
<path stroke="#a3a3a3" vector-effect="non-scaling-stroke" d="
  M 881.5059 166.2756
  A 8.59 8.59 0.0 0 0 873.0215 157.5812
  L 871.3016 157.5602
  A 8.59 8.59 0.0 0 0 862.6073 166.0447
  L 862.5741 168.7644
  A 8.59 8.59 0.0 0 0 871.0585 177.4588
  L 872.7784 177.4798
  A 8.59 8.59 0.0 0 0 881.4727 168.9953
  L 881.5059 166.2756"
/>
<path stroke="#a3a3a3" vector-effect="non-scaling-stroke" d="
  M 794.01 158.30
  L 793.99 168.46
  A 0.55 0.55 0.0 0 0 794.54 169.01
  L 800.27 169.02
  A 5.36 5.12 0.1 0 0 805.64 163.91
  L 805.64 162.89
  A 5.36 5.12 0.1 0 0 800.29 157.76
  L 794.56 157.75
  A 0.55 0.55 0.0 0 0 794.01 158.30"
/>
<path stroke="#a3a3a3" vector-effect="non-scaling-stroke" d="
  M 839.47 158.44
  L 839.22 176.42
  A 0.76 0.76 0.0 0 0 839.96 177.19
  L 845.64 177.27
  A 8.27 8.18 -89.2 0 0 853.94 169.11
  L 853.98 166.15
  A 8.27 8.18 -89.2 0 0 845.92 157.77
  L 840.24 157.69
  A 0.76 0.76 0.0 0 0 839.47 158.44"
/>
<path stroke="#a3a3a3" vector-effect="non-scaling-stroke" d="
  M 816.91 171.50
  A 0.34 0.34 0.0 0 0 817.23 171.96
  L 826.77 172.03
  A 0.34 0.34 0.0 0 0 827.09 171.57
  L 822.40 159.29
  A 0.34 0.34 0.0 0 0 821.77 159.29
  L 816.91 171.50"
/>
<path stroke="#88b39a" vector-effect="non-scaling-stroke" d="
  M 800.2126 206.4848
  A 7.59 7.59 0.0 0 0 792.6891 198.8289
  L 790.7292 198.8118
  A 7.59 7.59 0.0 0 0 783.0732 206.3353
  L 783.0474 209.2952
  A 7.59 7.59 0.0 0 0 790.5709 216.9511
  L 792.5308 216.9682
  A 7.59 7.59 0.0 0 0 800.1868 209.4447
  L 800.2126 206.4848"
/>
<path stroke="#88b39a" vector-effect="non-scaling-stroke" d="
  M 628.28 199.51
  L 628.04 216.19
  A 0.55 0.55 0.0 0 0 628.59 216.75
  L 633.73 216.82
  A 7.15 6.98 0.8 0 0 640.97 209.94
  L 641.03 206.12
  A 7.15 6.98 0.8 0 0 633.97 199.04
  L 628.83 198.97
  A 0.55 0.55 0.0 0 0 628.28 199.51"
/>
<path stroke="#88b39a" vector-effect="non-scaling-stroke" d="
  M 654.40 211.04
  A 0.31 0.31 0.0 0 0 654.68 211.47
  L 661.85 211.54
  A 0.31 0.31 0.0 0 0 662.14 211.12
  L 658.65 202.00
  A 0.31 0.31 0.0 0 0 658.08 201.99
  L 654.40 211.04"
/>
<path stroke="#88b39a" vector-effect="non-scaling-stroke" d="
  M 689.07 210.89
  A 0.42 0.42 0.0 0 0 689.46 211.47
  L 696.30 211.55
  A 0.42 0.42 0.0 0 0 696.70 210.98
  L 693.38 202.09
  A 0.42 0.42 0.0 0 0 692.60 202.08
  L 689.07 210.89"
/>
<path stroke="#88b39a" vector-effect="non-scaling-stroke" d="
  M 740.64 210.90
  A 0.41 0.41 0.0 0 0 741.02 211.46
  L 747.83 211.53
  A 0.41 0.41 0.0 0 0 748.22 210.98
  L 744.90 202.15
  A 0.41 0.41 0.0 0 0 744.14 202.14
  L 740.64 210.90"
/>
<path stroke="#88b39a" vector-effect="non-scaling-stroke" d="
  M 845.08 210.89
  A 0.41 0.41 0.0 0 0 845.45 211.45
  L 852.28 211.53
  A 0.41 0.41 0.0 0 0 852.66 210.97
  L 849.34 202.13
  A 0.41 0.41 0.0 0 0 848.58 202.12
  L 845.08 210.89"
/>
</g>
<path fill="#ffffff" d="
  M 0.00 0.00
  L 930.00 0.00
  L 930.00 310.00
  L 0.00 310.00
  L 0.00 0.00
  Z
  M 473.27 126.32
  C 472.72 143.55 485.48 157.84 502.06 160.65
  C 513.35 162.57 524.42 157.91 532.73 150.20
  Q 541.71 141.86 550.70 133.58
  Q 551.09 133.22 550.81 132.77
  L 547.73 127.77
  Q 550.21 123.23 554.21 119.00
  Q 554.77 118.42 554.28 117.77
  Q 545.29 105.99 537.57 96.63
  Q 528.79 86.01 516.29 82.78
  Q 515.19 82.50 516.28 82.19
  C 522.59 80.36 528.89 74.29 532.42 68.97
  Q 539.87 57.72 537.28 43.34
  A 2.06 2.05 3.6 0 0 535.86 41.74
  L 534.58 41.36
  Q 534.10 41.21 534.09 40.70
  C 533.70 15.63 505.95 3.61 487.31 20.15
  Q 486.84 20.57 486.27 20.29
  L 484.52 19.41
  Q 483.97 19.13 483.46 19.46
  Q 463.76 32.14 467.23 55.99
  Q 467.61 58.63 468.61 61.05
  Q 468.94 61.85 468.19 61.41
  C 455.09 53.63 437.71 55.75 423.01 59.63
  Q 422.52 59.76 422.03 59.86
  C 419.14 60.46 419.29 64.64 422.31 65.12
  C 445.10 68.70 468.71 82.43 473.21 106.92
  Q 473.81 110.13 473.43 115.57
  Q 473.07 120.92 473.27 126.32
  Z
  M 402.76 248.89
  Q 386.80 251.90 371.32 249.09
  C 345.10 244.32 330.11 226.44 325.76 200.69
  C 322.78 183.06 323.89 165.10 332.03 149.49
  C 341.66 131.02 358.39 120.96 378.93 120.74
  Q 403.81 120.47 423.21 137.15
  A 0.49 0.49 0.0 0 0 424.02 136.78
  L 424.02 113.70
  Q 424.02 113.09 423.41 113.03
  Q 409.41 111.66 398.48 110.95
  C 374.51 109.39 348.46 113.64 329.10 127.86
  C 305.51 145.19 298.13 173.36 301.49 201.86
  Q 303.23 216.56 309.15 227.50
  C 321.78 250.81 347.31 259.58 373.10 260.35
  Q 398.04 261.08 422.92 257.61
  Q 424.88 257.34 426.87 256.97
  Q 427.47 256.86 427.38 256.25
  Q 426.08 247.57 425.88 239.14
  Q 425.45 220.89 426.10 203.80
  Q 426.46 194.32 430.43 186.36
  Q 430.74 185.74 430.04 185.74
  L 401.28 185.75
  Q 400.45 185.75 400.86 186.47
  C 404.47 192.67 405.38 200.50 405.46 207.74
  Q 405.59 219.90 405.44 232.63
  Q 405.34 240.80 403.53 248.17
  A 0.99 0.97 1.3 0 1 402.76 248.89
  Z
  M 104.60 174.42
  C 121.90 167.26 137.98 155.64 134.73 134.18
  C 132.30 118.17 117.32 112.01 102.61 111.96
  Q 91.82 111.93 81.52 112.59
  Q 62.25 113.82 43.05 114.28
  Q 42.21 114.30 42.60 115.05
  C 45.68 120.87 46.90 127.62 46.93 134.18
  Q 47.09 168.81 46.93 213.67
  C 46.88 228.03 45.39 242.71 39.99 256.37
  Q 39.79 256.87 40.33 256.89
  Q 58.21 257.35 76.24 257.68
  C 93.47 258.01 112.04 257.78 126.52 247.42
  C 139.06 238.45 143.41 223.84 142.34 208.56
  C 140.83 186.99 122.82 179.31 104.66 175.14
  Q 103.51 174.87 104.60 174.42
  Z
  M 224.37 232.98
  C 223.09 232.11 222.37 229.18 221.99 227.76
  C 212.27 192.07 198.92 155.49 186.34 118.43
  C 185.47 115.87 183.42 114.18 180.59 114.21
  Q 170.02 114.30 161.66 114.22
  Q 160.85 114.21 161.20 114.94
  C 174.32 142.20 184.20 171.90 193.18 201.51
  Q 201.57 229.17 209.56 257.05
  Q 209.76 257.74 210.49 257.74
  L 226.78 257.75
  A 0.89 0.89 0.0 0 0 227.62 257.16
  Q 239.24 224.92 252.60 191.56
  Q 269.03 150.50 289.11 114.84
  Q 289.45 114.23 288.76 114.23
  L 262.17 114.25
  Q 261.44 114.25 261.60 114.97
  C 263.63 123.62 261.74 131.85 259.29 140.75
  Q 256.09 152.42 252.91 161.40
  Q 243.08 189.11 232.48 216.46
  C 230.41 221.80 228.82 227.16 226.43 232.40
  Q 225.74 233.92 224.37 232.98
  Z
  M 599.78 139.57
  A 2.52 2.52 0.0 0 0 597.26 137.05
  L 596.52 137.05
  A 2.52 2.52 0.0 0 0 594.00 139.57
  L 594.00 235.97
  A 2.52 2.52 0.0 0 0 596.52 238.49
  L 597.26 238.49
  A 2.52 2.52 0.0 0 0 599.78 235.97
  L 599.78 139.57
  Z
  M 641.74 176.57
  C 634.28 180.07 626.24 175.97 626.73 167.07
  Q 627.32 156.52 638.28 157.58
  C 641.76 157.92 643.06 159.41 644.92 161.89
  A 1.17 1.17 0.0 0 0 647.02 161.12
  C 646.89 158.71 644.23 156.60 642.18 155.85
  Q 635.58 153.41 629.70 156.43
  C 624.50 159.09 623.26 165.60 624.30 171.03
  C 626.35 181.74 641.77 183.49 646.78 175.12
  A 1.40 1.39 -50.8 0 0 646.62 173.47
  Q 646.02 172.81 645.21 173.16
  C 643.96 173.71 643.30 175.84 641.74 176.57
  Z
  M 712.73 157.59
  C 715.66 157.22 720.09 157.46 721.90 160.14
  Q 722.51 161.03 723.22 161.80
  Q 724.12 162.76 725.07 161.85
  Q 725.24 161.70 725.26 161.48
  Q 725.38 160.24 724.67 159.21
  C 720.25 152.84 708.24 153.44 704.22 160.00
  Q 701.92 163.77 702.28 168.66
  C 702.83 176.09 707.98 180.54 715.26 180.29
  C 719.40 180.15 723.35 178.90 725.13 174.83
  Q 725.65 173.64 724.46 173.12
  A 1.11 1.10 -58.4 0 0 723.17 173.43
  C 722.24 174.54 721.65 175.81 720.29 176.50
  C 713.53 179.89 705.40 176.73 705.00 168.44
  C 704.74 163.01 707.16 158.31 712.73 157.59
  Z
  M 900.56 159.72
  C 901.09 160.27 901.15 161.28 901.74 161.84
  Q 902.44 162.52 903.29 162.05
  Q 903.81 161.75 903.83 161.15
  C 904.01 152.89 885.49 151.88 887.28 162.99
  C 887.66 165.37 890.43 167.09 892.47 167.74
  Q 895.93 168.84 898.96 170.12
  C 902.22 171.49 902.02 175.13 899.19 176.77
  Q 895.78 178.74 892.21 176.83
  C 890.89 176.13 890.18 174.97 889.27 173.85
  A 1.04 1.04 0.0 0 0 887.60 173.93
  Q 887.10 174.68 887.45 175.53
  C 889.92 181.53 900.21 182.00 903.36 176.44
  C 905.37 172.88 903.80 168.92 899.99 167.50
  Q 896.22 166.09 892.44 164.76
  C 889.05 163.56 889.36 159.38 892.35 158.14
  Q 897.10 156.17 900.56 159.72
  Z
  M 674.7159 165.7219
  A 10.81 10.81 0.0 0 0 663.7560 155.0639
  L 661.2763 155.0985
  A 10.81 10.81 0.0 0 0 650.6183 166.0584
  L 650.6641 169.3381
  A 10.81 10.81 0.0 0 0 661.6240 179.9961
  L 664.1037 179.9615
  A 10.81 10.81 0.0 0 0 674.7617 169.0016
  L 674.7159 165.7219
  Z
  M 884.1436 165.6774
  A 10.84 10.84 0.0 0 0 873.0790 155.0668
  L 870.5995 155.1187
  A 10.84 10.84 0.0 0 0 859.9889 166.1833
  L 860.0564 169.4026
  A 10.84 10.84 0.0 0 0 871.1210 180.0132
  L 873.6005 179.9613
  A 10.84 10.84 0.0 0 0 884.2111 168.8967
  L 884.1436 165.6774
  Z
  M 681.30 160.96
  Q 681.31 160.04 681.85 160.79
  Q 688.82 170.48 694.59 178.71
  Q 695.69 180.28 697.54 179.71
  A 1.35 1.34 -8.3 0 0 698.49 178.44
  L 698.54 156.30
  A 0.86 0.81 23.6 0 0 698.29 155.71
  Q 697.12 154.54 696.01 156.16
  A 1.17 1.16 63.2 0 0 695.81 156.78
  L 695.73 174.03
  A 0.38 0.38 0.0 0 1 695.24 174.38
  Q 695.01 174.30 694.87 174.09
  Q 688.49 165.02 681.94 155.80
  A 1.71 1.71 0.0 0 0 678.87 156.44
  Q 678.56 157.85 678.55 159.27
  Q 678.47 169.59 678.53 178.38
  Q 678.54 179.35 679.42 179.75
  Q 679.79 179.91 680.14 179.79
  Q 681.15 179.43 681.16 178.36
  L 681.30 160.96
  Z
  M 732.25 169.75
  L 740.39 169.75
  Q 741.59 169.75 741.71 168.56
  Q 741.77 167.96 740.55 167.38
  A 1.23 1.23 0.0 0 0 740.00 167.25
  L 732.25 167.25
  Q 732.00 167.25 732.00 167.00
  L 732.01 158.00
  Q 732.01 157.76 732.25 157.76
  L 742.97 157.78
  A 0.87 0.87 0.0 0 0 743.76 157.27
  Q 743.95 156.86 743.85 156.41
  Q 743.60 155.22 742.39 155.23
  L 730.00 155.26
  A 0.75 0.74 0.0 0 0 729.25 156.00
  L 729.26 179.25
  A 0.49 0.49 0.0 0 0 729.75 179.74
  L 742.49 179.75
  Q 743.62 179.75 743.94 178.66
  Q 744.13 178.02 742.98 177.38
  A 1.08 0.99 56.7 0 0 742.50 177.26
  L 732.26 177.26
  Q 732.01 177.26 732.00 177.00
  L 732.00 170.00
  A 0.25 0.25 0.0 0 1 732.25 169.75
  Z
  M 765.59 174.08
  Q 765.62 175.44 764.82 174.33
  Q 758.35 165.30 752.19 156.35
  Q 750.88 154.44 748.92 155.64
  Q 748.50 155.89 748.50 156.37
  L 748.19 178.15
  Q 748.17 179.17 749.09 179.63
  Q 749.47 179.82 749.87 179.69
  Q 751.00 179.34 751.00 178.16
  L 751.01 161.22
  Q 751.01 159.74 751.86 160.95
  Q 758.12 169.87 764.49 178.74
  Q 765.40 180.01 766.96 179.77
  A 1.50 1.50 0.0 0 0 768.23 178.29
  L 768.29 156.30
  Q 768.29 155.42 767.42 155.31
  L 767.06 155.26
  Q 765.87 155.12 765.82 156.32
  Q 765.37 165.69 765.59 174.08
  Z
  M 778.62 158.44
  L 778.48 178.47
  A 0.97 0.89 30.6 0 0 778.65 179.03
  Q 779.45 180.16 780.19 179.93
  Q 781.25 179.60 781.25 178.49
  L 781.26 158.49
  Q 781.26 157.74 782.01 157.75
  L 786.51 157.80
  A 1.09 1.08 26.1 0 0 787.22 157.56
  Q 788.34 156.67 787.16 155.58
  A 1.33 1.30 65.9 0 0 786.27 155.23
  L 773.40 155.25
  Q 772.18 155.25 772.00 156.47
  Q 771.95 156.75 772.03 157.03
  A 1.01 1.01 0.0 0 0 773.00 157.76
  L 777.94 157.75
  Q 778.63 157.75 778.62 158.44
  Z
  M 794.76 171.50
  L 799.80 171.50
  A 1.48 1.47 -14.4 0 1 801.09 172.26
  L 804.07 177.67
  Q 804.58 178.58 805.38 179.24
  Q 806.54 180.21 807.29 179.40
  A 1.04 1.03 -37.9 0 0 807.44 178.22
  L 803.88 171.62
  Q 803.59 171.08 804.12 170.77
  Q 809.36 167.73 808.06 160.99
  C 806.71 154.00 797.18 155.14 792.21 155.25
  A 0.73 0.73 0.0 0 0 791.50 155.98
  L 791.50 178.50
  Q 791.50 179.74 792.75 179.75
  L 793.25 179.75
  Q 794.00 179.76 794.00 179.00
  L 794.01 172.24
  Q 794.01 171.50 794.76 171.50
  Z
  M 836.63 156.32
  L 836.47 178.60
  A 1.12 1.12 0.0 0 0 837.58 179.73
  L 846.23 179.79
  A 10.21 10.19 0.4 0 0 856.52 169.67
  L 856.54 165.53
  A 10.21 10.19 0.4 0 0 846.41 155.27
  L 837.76 155.21
  A 1.12 1.12 0.0 0 0 836.63 156.32
  Z
  M 828.72 175.55
  L 830.15 179.05
  A 1.20 1.20 0.0 0 0 830.78 179.71
  Q 831.78 180.17 832.46 179.63
  A 1.21 1.20 59.9 0 0 832.83 178.23
  Q 828.58 167.88 824.63 157.21
  Q 823.80 154.95 820.91 155.67
  A 1.18 1.18 0.0 0 0 820.10 156.39
  L 811.49 178.01
  Q 811.04 179.15 812.14 179.69
  Q 812.29 179.76 812.45 179.81
  Q 813.57 180.17 814.01 179.08
  L 815.48 175.35
  Q 815.71 174.75 816.36 174.75
  L 827.54 174.76
  A 1.28 1.26 -10.9 0 1 828.72 175.55
  Z
  M 792.04 188.92
  Q 792.97 190.24 794.29 191.50
  A 2.74 2.69 -22.8 0 0 796.16 192.24
  L 798.03 192.24
  Q 799.66 192.24 798.58 191.02
  Q 797.10 189.34 795.69 187.46
  C 794.26 185.54 792.28 185.57 790.14 185.77
  C 787.93 185.98 785.74 189.51 784.47 191.13
  Q 783.64 192.18 784.98 192.22
  L 787.22 192.28
  Q 788.17 192.30 788.79 191.59
  L 791.17 188.87
  Q 791.63 188.33 792.04 188.92
  Z
  M 804.47 206.22
  A 11.66 11.66 0.0 0 0 792.81 194.56
  L 790.43 194.56
  A 11.66 11.66 0.0 0 0 778.77 206.22
  L 778.77 209.56
  A 11.66 11.66 0.0 0 0 790.43 221.22
  L 792.81 221.22
  A 11.66 11.66 0.0 0 0 804.47 209.56
  L 804.47 206.22
  Z
  M 623.97 196.44
  L 623.73 219.16
  A 1.79 1.79 0.0 0 0 625.50 220.96
  L 633.76 221.05
  A 11.55 11.39 0.6 0 0 645.43 209.78
  L 645.47 206.26
  A 11.55 11.39 0.6 0 0 634.04 194.75
  L 625.78 194.67
  A 1.79 1.79 0.0 0 0 623.97 196.44
  Z
  M 726.48 204.15
  Q 726.46 211.18 726.51 218.53
  Q 726.52 220.29 728.23 220.96
  Q 728.49 221.06 728.77 221.01
  Q 731.08 220.63 731.08 218.28
  L 731.02 196.78
  A 2.05 2.05 0.0 0 0 729.14 194.74
  Q 727.33 194.60 726.19 196.09
  Q 722.43 201.01 719.11 205.79
  A 0.48 0.48 0.0 0 1 718.33 205.81
  Q 714.92 201.24 711.72 196.77
  C 710.98 195.75 710.01 195.12 708.81 194.77
  A 1.60 1.60 0.0 0 0 706.75 196.30
  L 706.75 218.96
  A 1.77 1.75 19.3 0 0 707.42 220.34
  Q 708.43 221.13 709.34 220.88
  Q 711.08 220.38 711.08 218.57
  L 711.02 204.02
  Q 711.01 202.95 711.63 203.82
  L 718.18 213.03
  Q 718.74 213.81 719.30 213.04
  L 725.92 203.97
  Q 726.48 203.21 726.48 204.15
  Z
  M 770.69 199.73
  Q 765.41 207.65 759.94 215.78
  Q 758.98 217.21 758.80 218.85
  A 1.98 1.98 0.0 0 0 760.77 221.04
  L 775.30 221.02
  Q 777.08 221.02 777.60 219.31
  Q 777.71 218.95 777.56 218.57
  Q 776.86 216.74 774.90 216.75
  L 765.51 216.76
  Q 764.79 216.76 765.19 216.16
  Q 770.77 207.65 775.33 200.99
  Q 776.65 199.06 777.22 196.80
  A 1.64 1.63 -82.8 0 0 775.64 194.76
  L 760.17 194.74
  Q 758.32 194.73 758.25 196.58
  L 758.24 196.98
  Q 758.16 199.04 760.23 199.04
  L 770.31 199.02
  Q 771.16 199.02 770.69 199.73
  Z
  M 823.21 212.25
  Q 817.73 204.47 811.79 196.02
  Q 810.48 194.16 808.27 194.91
  Q 806.94 195.36 806.86 196.77
  Q 806.26 208.27 806.63 219.10
  A 1.71 1.71 0.0 0 0 807.13 220.26
  Q 808.11 221.24 809.11 220.97
  Q 810.68 220.54 810.72 218.91
  L 811.11 203.93
  Q 811.14 203.00 811.67 203.77
  Q 817.58 212.25 823.04 219.89
  C 824.31 221.67 827.93 221.60 828.03 218.95
  Q 828.54 205.93 828.20 196.75
  Q 828.14 195.25 826.69 194.90
  Q 826.39 194.83 826.08 194.86
  Q 824.18 195.01 824.04 196.92
  Q 823.55 204.05 823.80 212.06
  Q 823.83 213.13 823.21 212.25
  Z
  M 835.2708 196.8363
  A 2.06 2.06 0.0 0 0 833.2072 194.7799
  L 833.0272 194.7802
  A 2.06 2.06 0.0 0 0 830.9708 196.8438
  L 831.0092 218.8837
  A 2.06 2.06 0.0 0 0 833.0728 220.9401
  L 833.2528 220.9398
  A 2.06 2.06 0.0 0 0 835.3092 218.8762
  L 835.2708 196.8363
  Z
  M 664.21 216.31
  L 665.76 219.61
  Q 666.65 221.51 668.67 220.97
  Q 668.90 220.90 669.10 220.78
  Q 670.48 219.93 669.90 218.42
  Q 665.75 207.58 661.03 196.27
  C 660.27 194.44 656.42 194.31 655.65 196.24
  Q 651.39 206.89 646.74 218.79
  A 1.51 1.50 29.9 0 0 647.21 220.51
  Q 647.69 220.88 648.26 220.99
  Q 650.36 221.40 651.15 219.41
  L 652.33 216.43
  Q 652.60 215.75 653.34 215.75
  L 663.31 215.74
  Q 663.94 215.74 664.21 216.31
  Z
  M 699.03 216.45
  L 700.24 219.30
  Q 701.04 221.20 703.09 221.00
  Q 704.21 220.89 704.54 219.19
  A 1.71 1.69 40.3 0 0 704.46 218.27
  Q 700.20 207.22 695.83 196.55
  C 694.81 194.05 691.08 194.35 690.11 196.73
  Q 685.67 207.62 681.42 218.65
  A 1.55 1.55 0.0 0 0 681.72 220.26
  Q 682.23 220.81 682.92 220.98
  Q 684.90 221.47 685.67 219.59
  L 687.00 216.34
  Q 687.25 215.73 687.90 215.73
  L 697.95 215.74
  A 1.18 1.16 -11.3 0 1 699.03 216.45
  Z
  M 750.58 216.61
  L 752.16 219.85
  Q 752.93 221.46 754.67 221.06
  Q 755.32 220.91 755.83 220.38
  A 1.60 1.60 0.0 0 0 756.18 218.67
  Q 752.02 208.00 747.46 196.79
  Q 746.55 194.57 743.90 194.87
  C 742.09 195.07 741.75 196.29 741.19 197.70
  Q 736.71 209.00 732.92 218.77
  A 1.50 1.50 0.0 0 0 733.22 220.32
  Q 733.66 220.79 734.24 220.97
  Q 736.40 221.61 737.25 219.52
  L 738.55 216.33
  Q 738.79 215.74 739.43 215.74
  L 749.20 215.75
  Q 750.16 215.75 750.58 216.61
  Z
  M 843.02 216.24
  A 0.80 0.78 -78.9 0 1 843.75 215.74
  L 853.91 215.75
  Q 854.64 215.75 854.95 216.41
  L 856.47 219.72
  Q 857.15 221.19 858.78 221.10
  Q 859.17 221.08 859.48 220.88
  Q 861.05 219.90 860.38 218.17
  Q 855.78 206.26 851.88 196.45
  Q 851.38 195.18 849.76 194.98
  Q 846.88 194.63 845.93 196.98
  Q 841.60 207.81 837.43 218.43
  A 1.81 1.80 -68.2 0 0 838.42 220.75
  L 838.87 220.94
  Q 840.81 221.75 841.59 219.80
  L 843.02 216.24
  Z"
/>
<path fill="#474747" d="
  M 547.73 127.77
  Q 542.24 133.77 537.42 139.84
  Q 535.13 142.72 533.51 144.12
  Q 531.23 146.07 528.75 147.54
  C 522.02 151.53 513.96 155.57 506.04 154.31
  Q 495.95 152.71 488.33 147.34
  Q 484.17 144.39 480.85 139.86
  Q 477.37 135.12 475.11 129.17
  Q 474.55 127.72 474.35 126.48
  Q 474.32 126.31 474.19 126.19
  L 474.00 125.99
  Q 473.71 125.70 473.52 126.06
  Q 473.44 126.22 473.27 126.32
  Q 473.07 120.92 473.43 115.57
  Q 473.81 110.13 473.21 106.92
  C 468.71 82.43 445.10 68.70 422.31 65.12
  C 419.29 64.64 419.14 60.46 422.03 59.86
  Q 422.52 59.76 423.01 59.63
  C 437.71 55.75 455.09 53.63 468.19 61.41
  Q 468.94 61.85 468.61 61.05
  Q 467.61 58.63 467.23 55.99
  Q 463.76 32.14 483.46 19.46
  Q 483.97 19.13 484.52 19.41
  L 486.27 20.29
  Q 486.84 20.57 487.31 20.15
  C 505.95 3.61 533.70 15.63 534.09 40.70
  Q 534.10 41.21 534.58 41.36
  L 535.86 41.74
  A 2.06 2.05 3.6 0 1 537.28 43.34
  Q 539.87 57.72 532.42 68.97
  C 528.89 74.29 522.59 80.36 516.28 82.19
  Q 515.19 82.50 516.29 82.78
  Q 528.79 86.01 537.57 96.63
  Q 545.29 105.99 554.28 117.77
  Q 554.77 118.42 554.21 119.00
  Q 550.21 123.23 547.73 127.77
  Z
  M 527.25 31.45
  C 518.99 38.55 504.31 32.16 499.80 23.87
  Q 498.54 21.55 498.79 19.19
  A 0.49 0.49 0.0 0 0 498.12 18.68
  Q 494.03 20.29 491.18 22.97
  A 0.38 0.38 0.0 0 0 491.19 23.54
  Q 502.23 32.74 502.79 47.68
  Q 502.82 48.50 503.42 47.95
  C 510.42 41.56 519.48 38.88 528.98 40.01
  Q 529.53 40.07 529.50 39.52
  Q 529.31 35.61 527.88 31.61
  Q 527.68 31.08 527.25 31.45
  Z
  M 491.98 69.41
  A 0.79 0.78 23.5 0 1 491.56 68.35
  Q 494.38 62.38 496.43 57.07
  C 501.18 44.76 495.80 31.05 484.55 24.57
  A 0.42 0.42 0.0 0 0 484.08 24.59
  Q 472.29 32.98 471.29 47.26
  C 469.90 67.08 487.86 83.84 507.63 80.18
  C 523.88 77.16 535.43 62.68 533.02 45.97
  Q 532.97 45.64 532.66 45.54
  C 519.69 41.54 506.21 47.60 500.50 59.68
  Q 497.97 65.04 495.91 70.29
  Q 495.68 70.88 495.09 70.65
  L 491.98 69.41
  Z
  M 436.41 62.97
  C 455.02 69.39 469.93 79.98 476.84 99.20
  Q 477.12 99.99 477.30 99.17
  Q 479.30 89.73 476.94 80.68
  C 474.01 69.45 463.15 62.86 451.91 61.86
  Q 444.43 61.19 436.46 62.45
  Q 435.38 62.62 436.41 62.97
  Z
  M 482.32 79.60
  Q 484.03 86.29 483.42 92.10
  Q 483.33 92.93 483.93 92.35
  Q 488.98 87.51 495.21 84.80
  Q 495.98 84.47 495.16 84.32
  Q 488.47 83.11 482.70 79.33
  Q 482.15 78.97 482.32 79.60
  Z
  M 483.77 101.69
  Q 489.17 101.43 494.21 100.04
  Q 500.25 98.37 502.45 98.15
  Q 510.21 97.38 518.74 98.54
  Q 522.41 99.04 524.75 100.06
  Q 525.62 100.44 526.53 100.58
  Q 527.57 100.75 528.32 101.52
  Q 528.67 101.88 529.16 101.93
  L 531.57 102.17
  L 538.46 106.24
  Q 539.26 106.71 538.73 105.94
  C 528.37 90.95 513.75 81.83 495.57 90.08
  Q 487.04 93.96 482.21 102.43
  Q 481.88 103.01 482.50 102.76
  Q 483.28 102.44 483.77 101.69
  Z
  M 542.89 118.79
  Q 543.08 119.47 543.58 119.99
  Q 543.99 120.41 544.48 120.09
  L 546.52 118.75
  Q 547.25 118.27 546.53 117.77
  L 540.66 113.75
  Q 540.50 112.61 540.79 111.63
  Q 540.89 111.32 540.63 111.14
  Q 540.58 111.10 540.54 111.14
  Q 539.89 111.76 539.55 110.93
  Q 539.30 110.32 538.63 110.40
  Q 538.01 110.48 537.80 109.89
  Q 537.61 109.41 537.09 109.37
  Q 534.99 109.20 533.03 108.80
  Q 532.56 108.71 532.25 108.34
  Q 531.46 107.39 530.19 107.20
  Q 527.88 106.85 526.02 105.93
  Q 521.60 103.74 517.42 103.22
  Q 503.53 101.48 488.11 106.35
  Q 481.97 108.28 479.63 113.63
  Q 476.43 120.98 482.74 126.10
  Q 485.77 128.56 488.99 129.62
  Q 497.89 132.55 506.67 133.50
  Q 510.00 133.87 513.49 133.40
  Q 520.30 132.49 526.56 130.65
  Q 530.52 129.49 534.29 126.60
  C 536.22 125.11 539.17 125.14 540.56 123.12
  Q 541.08 122.37 541.80 121.78
  Q 542.25 121.42 542.39 120.85
  L 542.89 118.79
  Z
  M 534.05 135.89
  C 534.83 134.86 536.11 134.22 537.08 133.39
  Q 537.41 133.12 537.52 132.69
  Q 537.70 131.94 537.10 131.40
  A 1.22 1.22 0.0 0 0 535.88 131.16
  Q 533.75 131.94 532.05 133.32
  Q 530.75 134.39 529.12 134.85
  Q 523.51 136.46 516.37 137.88
  C 510.61 139.03 504.40 137.89 498.62 137.38
  C 493.24 136.90 488.78 135.01 484.10 132.65
  A 1.00 1.00 0.0 0 0 482.65 133.54
  Q 482.65 134.47 483.34 135.17
  C 485.63 137.51 487.41 140.35 489.85 142.46
  Q 494.36 146.38 501.61 147.84
  Q 506.91 148.91 511.26 149.02
  Q 514.63 149.11 519.13 147.45
  Q 521.94 146.42 524.61 144.42
  Q 527.54 142.23 529.92 140.33
  Q 531.85 138.79 534.05 135.89
  Z"
/>
<path fill="#ffffff" d="
  M 499.80 23.87
  C 504.31 32.16 518.99 38.55 527.25 31.45
  Q 527.68 31.08 527.88 31.61
  Q 529.31 35.61 529.50 39.52
  Q 529.53 40.07 528.98 40.01
  C 519.48 38.88 510.42 41.56 503.42 47.95
  Q 502.82 48.50 502.79 47.68
  Q 502.23 32.74 491.19 23.54
  A 0.38 0.38 0.0 0 1 491.18 22.97
  Q 494.03 20.29 498.12 18.68
  A 0.49 0.49 0.0 0 1 498.79 19.19
  Q 498.54 21.55 499.80 23.87
  Z"
/>
<path fill="#ffffff" d="
  M 491.98 69.41
  L 495.09 70.65
  Q 495.68 70.88 495.91 70.29
  Q 497.97 65.04 500.50 59.68
  C 506.21 47.60 519.69 41.54 532.66 45.54
  Q 532.97 45.64 533.02 45.97
  C 535.43 62.68 523.88 77.16 507.63 80.18
  C 487.86 83.84 469.90 67.08 471.29 47.26
  Q 472.29 32.98 484.08 24.59
  A 0.42 0.42 0.0 0 1 484.55 24.57
  C 495.80 31.05 501.18 44.76 496.43 57.07
  Q 494.38 62.38 491.56 68.35
  A 0.79 0.78 23.5 0 0 491.98 69.41
  Z"
/>
<path fill="#ffffff" d="
  M 476.84 99.20
  C 469.93 79.98 455.02 69.39 436.41 62.97
  Q 435.38 62.62 436.46 62.45
  Q 444.43 61.19 451.91 61.86
  C 463.15 62.86 474.01 69.45 476.94 80.68
  Q 479.30 89.73 477.30 99.17
  Q 477.12 99.99 476.84 99.20
  Z"
/>
<path fill="#ffffff" d="
  M 482.32 79.60
  Q 482.15 78.97 482.70 79.33
  Q 488.47 83.11 495.16 84.32
  Q 495.98 84.47 495.21 84.80
  Q 488.98 87.51 483.93 92.35
  Q 483.33 92.93 483.42 92.10
  Q 484.03 86.29 482.32 79.60
  Z"
/>
<path fill="#ffffff" d="
  M 531.57 102.17
  Q 518.26 88.76 499.50 92.95
  Q 490.66 94.92 483.77 101.69
  Q 483.28 102.44 482.50 102.76
  Q 481.88 103.01 482.21 102.43
  Q 487.04 93.96 495.57 90.08
  C 513.75 81.83 528.37 90.95 538.73 105.94
  Q 539.26 106.71 538.46 106.24
  L 531.57 102.17
  Z"
/>
<path fill="#116635" d="
  M 531.57 102.17
  L 529.16 101.93
  Q 528.67 101.88 528.32 101.52
  Q 527.57 100.75 526.53 100.58
  Q 525.62 100.44 524.75 100.06
  Q 522.41 99.04 518.74 98.54
  Q 510.21 97.38 502.45 98.15
  Q 500.25 98.37 494.21 100.04
  Q 489.17 101.43 483.77 101.69
  Q 490.66 94.92 499.50 92.95
  Q 518.26 88.76 531.57 102.17
  Z"
/>
<path fill="#116635" d="
  M 540.66 113.75
  L 540.38 113.71
  Q 539.98 113.65 540.18 114.00
  L 542.89 118.79
  L 542.39 120.85
  Q 542.25 121.42 541.80 121.78
  Q 541.08 122.37 540.56 123.12
  C 539.17 125.14 536.22 125.11 534.29 126.60
  Q 530.52 129.49 526.56 130.65
  Q 520.30 132.49 513.49 133.40
  Q 510.00 133.87 506.67 133.50
  Q 497.89 132.55 488.99 129.62
  Q 485.77 128.56 482.74 126.10
  Q 476.43 120.98 479.63 113.63
  Q 481.97 108.28 488.11 106.35
  Q 503.53 101.48 517.42 103.22
  Q 521.60 103.74 526.02 105.93
  Q 527.88 106.85 530.19 107.20
  Q 531.46 107.39 532.25 108.34
  Q 532.56 108.71 533.03 108.80
  Q 534.99 109.20 537.09 109.37
  Q 537.61 109.41 537.80 109.89
  Q 538.01 110.48 538.63 110.40
  Q 539.30 110.32 539.55 110.93
  Q 539.89 111.76 540.54 111.14
  Q 540.58 111.10 540.63 111.14
  Q 540.89 111.32 540.79 111.63
  Q 540.50 112.61 540.66 113.75
  Z"
/>
<path fill="#116635" d="
  M 402.76 248.89
  A 0.99 0.97 1.3 0 0 403.53 248.17
  Q 405.34 240.80 405.44 232.63
  Q 405.59 219.90 405.46 207.74
  C 405.38 200.50 404.47 192.67 400.86 186.47
  Q 400.45 185.75 401.28 185.75
  L 430.04 185.74
  Q 430.74 185.74 430.43 186.36
  Q 426.46 194.32 426.10 203.80
  Q 425.45 220.89 425.88 239.14
  Q 426.08 247.57 427.38 256.25
  Q 427.47 256.86 426.87 256.97
  Q 424.88 257.34 422.92 257.61
  Q 398.04 261.08 373.10 260.35
  C 347.31 259.58 321.78 250.81 309.15 227.50
  Q 303.23 216.56 301.49 201.86
  C 298.13 173.36 305.51 145.19 329.10 127.86
  C 348.46 113.64 374.51 109.39 398.48 110.95
  Q 409.41 111.66 423.41 113.03
  Q 424.02 113.09 424.02 113.70
  L 424.02 136.78
  A 0.49 0.49 0.0 0 1 423.21 137.15
  Q 403.81 120.47 378.93 120.74
  C 358.39 120.96 341.66 131.02 332.03 149.49
  C 323.89 165.10 322.78 183.06 325.76 200.69
  C 330.11 226.44 345.10 244.32 371.32 249.09
  Q 386.80 251.90 402.76 248.89
  Z"
/>
<path fill="#116635" d="
  M 104.60 174.42
  Q 103.51 174.87 104.66 175.14
  C 122.82 179.31 140.83 186.99 142.34 208.56
  C 143.41 223.84 139.06 238.45 126.52 247.42
  C 112.04 257.78 93.47 258.01 76.24 257.68
  Q 58.21 257.35 40.33 256.89
  Q 39.79 256.87 39.99 256.37
  C 45.39 242.71 46.88 228.03 46.93 213.67
  Q 47.09 168.81 46.93 134.18
  C 46.90 127.62 45.68 120.87 42.60 115.05
  Q 42.21 114.30 43.05 114.28
  Q 62.25 113.82 81.52 112.59
  Q 91.82 111.93 102.61 111.96
  C 117.32 112.01 132.30 118.17 134.73 134.18
  C 137.98 155.64 121.90 167.26 104.60 174.42
  Z
  M 112.86 141.33
  C 112.10 129.60 105.27 123.49 93.90 121.98
  Q 81.66 120.35 68.05 122.11
  Q 67.50 122.18 67.50 122.74
  L 67.51 173.22
  A 0.44 0.44 0.0 0 0 67.92 173.66
  C 89.83 175.00 114.63 169.03 112.86 141.33
  Z
  M 117.13 202.75
  C 110.95 182.34 85.45 181.63 68.07 182.32
  Q 67.52 182.34 67.51 182.89
  Q 67.42 206.83 67.58 231.49
  Q 67.61 235.64 68.63 240.28
  Q 70.23 247.62 77.50 248.36
  Q 86.95 249.31 96.49 247.10
  C 108.38 244.35 116.14 236.66 118.23 224.73
  Q 120.27 213.12 117.13 202.75
  Z"
/>
<path fill="#ffffff" d="
  M 540.66 113.75
  L 546.53 117.77
  Q 547.25 118.27 546.52 118.75
  L 544.48 120.09
  Q 543.99 120.41 543.58 119.99
  Q 543.08 119.47 542.89 118.79
  L 540.18 114.00
  Q 539.98 113.65 540.38 113.71
  L 540.66 113.75
  Z"
/>
<path fill="#116635" d="
  M 224.37 232.98
  Q 225.74 233.92 226.43 232.40
  C 228.82 227.16 230.41 221.80 232.48 216.46
  Q 243.08 189.11 252.91 161.40
  Q 256.09 152.42 259.29 140.75
  C 261.74 131.85 263.63 123.62 261.60 114.97
  Q 261.44 114.25 262.17 114.25
  L 288.76 114.23
  Q 289.45 114.23 289.11 114.84
  Q 269.03 150.50 252.60 191.56
  Q 239.24 224.92 227.62 257.16
  A 0.89 0.89 0.0 0 1 226.78 257.75
  L 210.49 257.74
  Q 209.76 257.74 209.56 257.05
  Q 201.57 229.17 193.18 201.51
  C 184.20 171.90 174.32 142.20 161.20 114.94
  Q 160.85 114.21 161.66 114.22
  Q 170.02 114.30 180.59 114.21
  C 183.42 114.18 185.47 115.87 186.34 118.43
  C 198.92 155.49 212.27 192.07 221.99 227.76
  C 222.37 229.18 223.09 232.11 224.37 232.98
  Z"
/>
<path fill="#ffffff" d="
  M 93.90 121.98
  C 105.27 123.49 112.10 129.60 112.86 141.33
  C 114.63 169.03 89.83 175.00 67.92 173.66
  A 0.44 0.44 0.0 0 1 67.51 173.22
  L 67.50 122.74
  Q 67.50 122.18 68.05 122.11
  Q 81.66 120.35 93.90 121.98
  Z"
/>
<path fill="#116635" d="
  M 547.73 127.77
  L 550.81 132.77
  Q 551.09 133.22 550.70 133.58
  Q 541.71 141.86 532.73 150.20
  C 524.42 157.91 513.35 162.57 502.06 160.65
  C 485.48 157.84 472.72 143.55 473.27 126.32
  Q 473.44 126.22 473.52 126.06
  Q 473.71 125.70 474.00 125.99
  L 474.19 126.19
  Q 474.32 126.31 474.35 126.48
  Q 474.55 127.72 475.11 129.17
  Q 477.37 135.12 480.85 139.86
  Q 484.17 144.39 488.33 147.34
  Q 495.95 152.71 506.04 154.31
  C 513.96 155.57 522.02 151.53 528.75 147.54
  Q 531.23 146.07 533.51 144.12
  Q 535.13 142.72 537.42 139.84
  Q 542.24 133.77 547.73 127.77
  Z"
/>
<path fill="#116635" d="
  M 534.05 135.89
  Q 531.85 138.79 529.92 140.33
  Q 527.54 142.23 524.61 144.42
  Q 521.94 146.42 519.13 147.45
  Q 514.63 149.11 511.26 149.02
  Q 506.91 148.91 501.61 147.84
  Q 494.36 146.38 489.85 142.46
  C 487.41 140.35 485.63 137.51 483.34 135.17
  Q 482.65 134.47 482.65 133.54
  A 1.00 1.00 0.0 0 1 484.10 132.65
  C 488.78 135.01 493.24 136.90 498.62 137.38
  C 504.40 137.89 510.61 139.03 516.37 137.88
  Q 523.51 136.46 529.12 134.85
  Q 530.75 134.39 532.05 133.32
  Q 533.75 131.94 535.88 131.16
  A 1.22 1.22 0.0 0 1 537.10 131.40
  Q 537.70 131.94 537.52 132.69
  Q 537.41 133.12 537.08 133.39
  C 536.11 134.22 534.83 134.86 534.05 135.89
  Z"
/>
<rect fill="#474747" x="594.00" y="137.05" width="5.78" height="101.44" rx="2.52"/>
<path fill="#474747" d="
  M 626.73 167.07
  C 626.24 175.97 634.28 180.07 641.74 176.57
  C 643.30 175.84 643.96 173.71 645.21 173.16
  Q 646.02 172.81 646.62 173.47
  A 1.40 1.39 -50.8 0 1 646.78 175.12
  C 641.77 183.49 626.35 181.74 624.30 171.03
  C 623.26 165.60 624.50 159.09 629.70 156.43
  Q 635.58 153.41 642.18 155.85
  C 644.23 156.60 646.89 158.71 647.02 161.12
  A 1.17 1.17 0.0 0 1 644.92 161.89
  C 643.06 159.41 641.76 157.92 638.28 157.58
  Q 627.32 156.52 626.73 167.07
  Z"
/>
<path fill="#474747" d="
  M 712.73 157.59
  C 707.16 158.31 704.74 163.01 705.00 168.44
  C 705.40 176.73 713.53 179.89 720.29 176.50
  C 721.65 175.81 722.24 174.54 723.17 173.43
  A 1.11 1.10 -58.4 0 1 724.46 173.12
  Q 725.65 173.64 725.13 174.83
  C 723.35 178.90 719.40 180.15 715.26 180.29
  C 707.98 180.54 702.83 176.09 702.28 168.66
  Q 701.92 163.77 704.22 160.00
  C 708.24 153.44 720.25 152.84 724.67 159.21
  Q 725.38 160.24 725.26 161.48
  Q 725.24 161.70 725.07 161.85
  Q 724.12 162.76 723.22 161.80
  Q 722.51 161.03 721.90 160.14
  C 720.09 157.46 715.66 157.22 712.73 157.59
  Z"
/>
<path fill="#474747" d="
  M 900.56 159.72
  Q 897.10 156.17 892.35 158.14
  C 889.36 159.38 889.05 163.56 892.44 164.76
  Q 896.22 166.09 899.99 167.50
  C 903.80 168.92 905.37 172.88 903.36 176.44
  C 900.21 182.00 889.92 181.53 887.45 175.53
  Q 887.10 174.68 887.60 173.93
  A 1.04 1.04 0.0 0 1 889.27 173.85
  C 890.18 174.97 890.89 176.13 892.21 176.83
  Q 895.78 178.74 899.19 176.77
  C 902.02 175.13 902.22 171.49 898.96 170.12
  Q 895.93 168.84 892.47 167.74
  C 890.43 167.09 887.66 165.37 887.28 162.99
  C 885.49 151.88 904.01 152.89 903.83 161.15
  Q 903.81 161.75 903.29 162.05
  Q 902.44 162.52 901.74 161.84
  C 901.15 161.28 901.09 160.27 900.56 159.72
  Z"
/>
<path fill="#474747" d="
  M 674.7617 169.0016
  A 10.81 10.81 0.0 0 1 664.1037 179.9615
  L 661.6240 179.9961
  A 10.81 10.81 0.0 0 1 650.6641 169.3381
  L 650.6183 166.0584
  A 10.81 10.81 0.0 0 1 661.2763 155.0985
  L 663.7560 155.0639
  A 10.81 10.81 0.0 0 1 674.7159 165.7219
  L 674.7617 169.0016
  Z
  M 672.17 166.09
  A 8.48 8.48 0.0 0 0 663.69 157.61
  L 661.79 157.61
  A 8.48 8.48 0.0 0 0 653.31 166.09
  L 653.31 168.99
  A 8.48 8.48 0.0 0 0 661.79 177.47
  L 663.69 177.47
  A 8.48 8.48 0.0 0 0 672.17 168.99
  L 672.17 166.09
  Z"
/>
<path fill="#474747" d="
  M 884.2111 168.8967
  A 10.84 10.84 0.0 0 1 873.6005 179.9613
  L 871.1210 180.0132
  A 10.84 10.84 0.0 0 1 860.0564 169.4026
  L 859.9889 166.1833
  A 10.84 10.84 0.0 0 1 870.5995 155.1187
  L 873.0790 155.0668
  A 10.84 10.84 0.0 0 1 884.1436 165.6774
  L 884.2111 168.8967
  Z
  M 881.5059 166.2756
  A 8.59 8.59 0.0 0 0 873.0215 157.5812
  L 871.3016 157.5602
  A 8.59 8.59 0.0 0 0 862.6073 166.0447
  L 862.5741 168.7644
  A 8.59 8.59 0.0 0 0 871.0585 177.4588
  L 872.7784 177.4798
  A 8.59 8.59 0.0 0 0 881.4727 168.9953
  L 881.5059 166.2756
  Z"
/>
<path fill="#474747" d="
  M 681.30 160.96
  L 681.16 178.36
  Q 681.15 179.43 680.14 179.79
  Q 679.79 179.91 679.42 179.75
  Q 678.54 179.35 678.53 178.38
  Q 678.47 169.59 678.55 159.27
  Q 678.56 157.85 678.87 156.44
  A 1.71 1.71 0.0 0 1 681.94 155.80
  Q 688.49 165.02 694.87 174.09
  Q 695.01 174.30 695.24 174.38
  A 0.38 0.38 0.0 0 0 695.73 174.03
  L 695.81 156.78
  A 1.17 1.16 63.2 0 1 696.01 156.16
  Q 697.12 154.54 698.29 155.71
  A 0.86 0.81 23.6 0 1 698.54 156.30
  L 698.49 178.44
  A 1.35 1.34 -8.3 0 1 697.54 179.71
  Q 695.69 180.28 694.59 178.71
  Q 688.82 170.48 681.85 160.79
  Q 681.31 160.04 681.30 160.96
  Z"
/>
<path fill="#474747" d="
  M 732.25 169.75
  A 0.25 0.25 0.0 0 0 732.00 170.00
  L 732.00 177.00
  Q 732.01 177.26 732.26 177.26
  L 742.50 177.26
  A 1.08 0.99 56.7 0 1 742.98 177.38
  Q 744.13 178.02 743.94 178.66
  Q 743.62 179.75 742.49 179.75
  L 729.75 179.74
  A 0.49 0.49 0.0 0 1 729.26 179.25
  L 729.25 156.00
  A 0.75 0.74 0.0 0 1 730.00 155.26
  L 742.39 155.23
  Q 743.60 155.22 743.85 156.41
  Q 743.95 156.86 743.76 157.27
  A 0.87 0.87 0.0 0 1 742.97 157.78
  L 732.25 157.76
  Q 732.01 157.76 732.01 158.00
  L 732.00 167.00
  Q 732.00 167.25 732.25 167.25
  L 740.00 167.25
  A 1.23 1.23 0.0 0 1 740.55 167.38
  Q 741.77 167.96 741.71 168.56
  Q 741.59 169.75 740.39 169.75
  L 732.25 169.75
  Z"
/>
<path fill="#474747" d="
  M 765.59 174.08
  Q 765.37 165.69 765.82 156.32
  Q 765.87 155.12 767.06 155.26
  L 767.42 155.31
  Q 768.29 155.42 768.29 156.30
  L 768.23 178.29
  A 1.50 1.50 0.0 0 1 766.96 179.77
  Q 765.40 180.01 764.49 178.74
  Q 758.12 169.87 751.86 160.95
  Q 751.01 159.74 751.01 161.22
  L 751.00 178.16
  Q 751.00 179.34 749.87 179.69
  Q 749.47 179.82 749.09 179.63
  Q 748.17 179.17 748.19 178.15
  L 748.50 156.37
  Q 748.50 155.89 748.92 155.64
  Q 750.88 154.44 752.19 156.35
  Q 758.35 165.30 764.82 174.33
  Q 765.62 175.44 765.59 174.08
  Z"
/>
<path fill="#474747" d="
  M 777.94 157.75
  L 773.00 157.76
  A 1.01 1.01 0.0 0 1 772.03 157.03
  Q 771.95 156.75 772.00 156.47
  Q 772.18 155.25 773.40 155.25
  L 786.27 155.23
  A 1.33 1.30 65.9 0 1 787.16 155.58
  Q 788.34 156.67 787.22 157.56
  A 1.09 1.08 26.1 0 1 786.51 157.80
  L 782.01 157.75
  Q 781.26 157.74 781.26 158.49
  L 781.25 178.49
  Q 781.25 179.60 780.19 179.93
  Q 779.45 180.16 778.65 179.03
  A 0.97 0.89 30.6 0 1 778.48 178.47
  L 778.62 158.44
  Q 778.63 157.75 777.94 157.75
  Z"
/>
<path fill="#474747" d="
  M 794.01 172.24
  L 794.00 179.00
  Q 794.00 179.76 793.25 179.75
  L 792.75 179.75
  Q 791.50 179.74 791.50 178.50
  L 791.50 155.98
  A 0.73 0.73 0.0 0 1 792.21 155.25
  C 797.18 155.14 806.71 154.00 808.06 160.99
  Q 809.36 167.73 804.12 170.77
  Q 803.59 171.08 803.88 171.62
  L 807.44 178.22
  A 1.04 1.03 -37.9 0 1 807.29 179.40
  Q 806.54 180.21 805.38 179.24
  Q 804.58 178.58 804.07 177.67
  L 801.09 172.26
  A 1.48 1.47 -14.4 0 0 799.80 171.50
  L 794.76 171.50
  Q 794.01 171.50 794.01 172.24
  Z
  M 794.01 158.30
  L 793.99 168.46
  A 0.55 0.55 0.0 0 0 794.54 169.01
  L 800.27 169.02
  A 5.36 5.12 0.1 0 0 805.64 163.91
  L 805.64 162.89
  A 5.36 5.12 0.1 0 0 800.29 157.76
  L 794.56 157.75
  A 0.55 0.55 0.0 0 0 794.01 158.30
  Z"
/>
<path fill="#474747" d="
  M 836.63 156.32
  A 1.12 1.12 0.0 0 1 837.76 155.21
  L 846.41 155.27
  A 10.21 10.19 0.4 0 1 856.54 165.53
  L 856.52 169.67
  A 10.21 10.19 0.4 0 1 846.23 179.79
  L 837.58 179.73
  A 1.12 1.12 0.0 0 1 836.47 178.60
  L 836.63 156.32
  Z
  M 839.47 158.44
  L 839.22 176.42
  A 0.76 0.76 0.0 0 0 839.96 177.19
  L 845.64 177.27
  A 8.27 8.18 -89.2 0 0 853.94 169.11
  L 853.98 166.15
  A 8.27 8.18 -89.2 0 0 845.92 157.77
  L 840.24 157.69
  A 0.76 0.76 0.0 0 0 839.47 158.44
  Z"
/>
<path fill="#474747" d="
  M 827.54 174.76
  L 816.36 174.75
  Q 815.71 174.75 815.48 175.35
  L 814.01 179.08
  Q 813.57 180.17 812.45 179.81
  Q 812.29 179.76 812.14 179.69
  Q 811.04 179.15 811.49 178.01
  L 820.10 156.39
  A 1.18 1.18 0.0 0 1 820.91 155.67
  Q 823.80 154.95 824.63 157.21
  Q 828.58 167.88 832.83 178.23
  A 1.21 1.20 59.9 0 1 832.46 179.63
  Q 831.78 180.17 830.78 179.71
  A 1.20 1.20 0.0 0 1 830.15 179.05
  L 828.72 175.55
  A 1.28 1.26 -10.9 0 0 827.54 174.76
  Z
  M 816.91 171.50
  A 0.34 0.34 0.0 0 0 817.23 171.96
  L 826.77 172.03
  A 0.34 0.34 0.0 0 0 827.09 171.57
  L 822.40 159.29
  A 0.34 0.34 0.0 0 0 821.77 159.29
  L 816.91 171.50
  Z"
/>
<rect fill="#ffffff" x="653.31" y="157.61" width="18.86" height="19.86" rx="8.48"/>
<rect fill="#ffffff" x="-9.45" y="-9.95" transform="translate(872.04,167.52) rotate(0.7)" width="18.90" height="19.90" rx="8.59"/>
<path fill="#ffffff" d="
  M 794.01 158.30
  A 0.55 0.55 0.0 0 1 794.56 157.75
  L 800.29 157.76
  A 5.36 5.12 0.1 0 1 805.64 162.89
  L 805.64 163.91
  A 5.36 5.12 0.1 0 1 800.27 169.02
  L 794.54 169.01
  A 0.55 0.55 0.0 0 1 793.99 168.46
  L 794.01 158.30
  Z"
/>
<path fill="#ffffff" d="
  M 839.47 158.44
  A 0.76 0.76 0.0 0 1 840.24 157.69
  L 845.92 157.77
  A 8.27 8.18 -89.2 0 1 853.98 166.15
  L 853.94 169.11
  A 8.27 8.18 -89.2 0 1 845.64 177.27
  L 839.96 177.19
  A 0.76 0.76 0.0 0 1 839.22 176.42
  L 839.47 158.44
  Z"
/>
<path fill="#ffffff" d="
  M 816.91 171.50
  L 821.77 159.29
  A 0.34 0.34 0.0 0 1 822.40 159.29
  L 827.09 171.57
  A 0.34 0.34 0.0 0 1 826.77 172.03
  L 817.23 171.96
  A 0.34 0.34 0.0 0 1 816.91 171.50
  Z"
/>
<path fill="#ffffff" d="
  M 68.07 182.32
  C 85.45 181.63 110.95 182.34 117.13 202.75
  Q 120.27 213.12 118.23 224.73
  C 116.14 236.66 108.38 244.35 96.49 247.10
  Q 86.95 249.31 77.50 248.36
  Q 70.23 247.62 68.63 240.28
  Q 67.61 235.64 67.58 231.49
  Q 67.42 206.83 67.51 182.89
  Q 67.52 182.34 68.07 182.32
  Z"
/>
<path fill="#116635" d="
  M 791.17 188.87
  L 788.79 191.59
  Q 788.17 192.30 787.22 192.28
  L 784.98 192.22
  Q 783.64 192.18 784.47 191.13
  C 785.74 189.51 787.93 185.98 790.14 185.77
  C 792.28 185.57 794.26 185.54 795.69 187.46
  Q 797.10 189.34 798.58 191.02
  Q 799.66 192.24 798.03 192.24
  L 796.16 192.24
  A 2.74 2.69 -22.8 0 1 794.29 191.50
  Q 792.97 190.24 792.04 188.92
  Q 791.63 188.33 791.17 188.87
  Z"
/>
<path fill="#116635" d="
  M 804.47 209.56
  A 11.66 11.66 0.0 0 1 792.81 221.22
  L 790.43 221.22
  A 11.66 11.66 0.0 0 1 778.77 209.56
  L 778.77 206.22
  A 11.66 11.66 0.0 0 1 790.43 194.56
  L 792.81 194.56
  A 11.66 11.66 0.0 0 1 804.47 206.22
  L 804.47 209.56
  Z
  M 800.2126 206.4848
  A 7.59 7.59 0.0 0 0 792.6891 198.8289
  L 790.7292 198.8118
  A 7.59 7.59 0.0 0 0 783.0732 206.3353
  L 783.0474 209.2952
  A 7.59 7.59 0.0 0 0 790.5709 216.9511
  L 792.5308 216.9682
  A 7.59 7.59 0.0 0 0 800.1868 209.4447
  L 800.2126 206.4848
  Z"
/>
<path fill="#116635" d="
  M 623.97 196.44
  A 1.79 1.79 0.0 0 1 625.78 194.67
  L 634.04 194.75
  A 11.55 11.39 0.6 0 1 645.47 206.26
  L 645.43 209.78
  A 11.55 11.39 0.6 0 1 633.76 221.05
  L 625.50 220.96
  A 1.79 1.79 0.0 0 1 623.73 219.16
  L 623.97 196.44
  Z
  M 628.28 199.51
  L 628.04 216.19
  A 0.55 0.55 0.0 0 0 628.59 216.75
  L 633.73 216.82
  A 7.15 6.98 0.8 0 0 640.97 209.94
  L 641.03 206.12
  A 7.15 6.98 0.8 0 0 633.97 199.04
  L 628.83 198.97
  A 0.55 0.55 0.0 0 0 628.28 199.51
  Z"
/>
<path fill="#116635" d="
  M 726.48 204.15
  Q 726.48 203.21 725.92 203.97
  L 719.30 213.04
  Q 718.74 213.81 718.18 213.03
  L 711.63 203.82
  Q 711.01 202.95 711.02 204.02
  L 711.08 218.57
  Q 711.08 220.38 709.34 220.88
  Q 708.43 221.13 707.42 220.34
  A 1.77 1.75 19.3 0 1 706.75 218.96
  L 706.75 196.30
  A 1.60 1.60 0.0 0 1 708.81 194.77
  C 710.01 195.12 710.98 195.75 711.72 196.77
  Q 714.92 201.24 718.33 205.81
  A 0.48 0.48 0.0 0 0 719.11 205.79
  Q 722.43 201.01 726.19 196.09
  Q 727.33 194.60 729.14 194.74
  A 2.05 2.05 0.0 0 1 731.02 196.78
  L 731.08 218.28
  Q 731.08 220.63 728.77 221.01
  Q 728.49 221.06 728.23 220.96
  Q 726.52 220.29 726.51 218.53
  Q 726.46 211.18 726.48 204.15
  Z"
/>
<path fill="#116635" d="
  M 770.31 199.02
  L 760.23 199.04
  Q 758.16 199.04 758.24 196.98
  L 758.25 196.58
  Q 758.32 194.73 760.17 194.74
  L 775.64 194.76
  A 1.64 1.63 -82.8 0 1 777.22 196.80
  Q 776.65 199.06 775.33 200.99
  Q 770.77 207.65 765.19 216.16
  Q 764.79 216.76 765.51 216.76
  L 774.90 216.75
  Q 776.86 216.74 777.56 218.57
  Q 777.71 218.95 777.60 219.31
  Q 777.08 221.02 775.30 221.02
  L 760.77 221.04
  A 1.98 1.98 0.0 0 1 758.80 218.85
  Q 758.98 217.21 759.94 215.78
  Q 765.41 207.65 770.69 199.73
  Q 771.16 199.02 770.31 199.02
  Z"
/>
<path fill="#116635" d="
  M 823.80 212.06
  Q 823.55 204.05 824.04 196.92
  Q 824.18 195.01 826.08 194.86
  Q 826.39 194.83 826.69 194.90
  Q 828.14 195.25 828.20 196.75
  Q 828.54 205.93 828.03 218.95
  C 827.93 221.60 824.31 221.67 823.04 219.89
  Q 817.58 212.25 811.67 203.77
  Q 811.14 203.00 811.11 203.93
  L 810.72 218.91
  Q 810.68 220.54 809.11 220.97
  Q 808.11 221.24 807.13 220.26
  A 1.71 1.71 0.0 0 1 806.63 219.10
  Q 806.26 208.27 806.86 196.77
  Q 806.94 195.36 808.27 194.91
  Q 810.48 194.16 811.79 196.02
  Q 817.73 204.47 823.21 212.25
  Q 823.83 213.13 823.80 212.06
  Z"
/>
<rect fill="#116635" x="-2.15" y="-13.08" transform="translate(833.14,207.86) rotate(-0.1)" width="4.30" height="26.16" rx="2.06"/>
<path fill="#116635" d="
  M 663.31 215.74
  L 653.34 215.75
  Q 652.60 215.75 652.33 216.43
  L 651.15 219.41
  Q 650.36 221.40 648.26 220.99
  Q 647.69 220.88 647.21 220.51
  A 1.51 1.50 29.9 0 1 646.74 218.79
  Q 651.39 206.89 655.65 196.24
  C 656.42 194.31 660.27 194.44 661.03 196.27
  Q 665.75 207.58 669.90 218.42
  Q 670.48 219.93 669.10 220.78
  Q 668.90 220.90 668.67 220.97
  Q 666.65 221.51 665.76 219.61
  L 664.21 216.31
  Q 663.94 215.74 663.31 215.74
  Z
  M 654.40 211.04
  A 0.31 0.31 0.0 0 0 654.68 211.47
  L 661.85 211.54
  A 0.31 0.31 0.0 0 0 662.14 211.12
  L 658.65 202.00
  A 0.31 0.31 0.0 0 0 658.08 201.99
  L 654.40 211.04
  Z"
/>
<path fill="#116635" d="
  M 697.95 215.74
  L 687.90 215.73
  Q 687.25 215.73 687.00 216.34
  L 685.67 219.59
  Q 684.90 221.47 682.92 220.98
  Q 682.23 220.81 681.72 220.26
  A 1.55 1.55 0.0 0 1 681.42 218.65
  Q 685.67 207.62 690.11 196.73
  C 691.08 194.35 694.81 194.05 695.83 196.55
  Q 700.20 207.22 704.46 218.27
  A 1.71 1.69 40.3 0 1 704.54 219.19
  Q 704.21 220.89 703.09 221.00
  Q 701.04 221.20 700.24 219.30
  L 699.03 216.45
  A 1.18 1.16 -11.3 0 0 697.95 215.74
  Z
  M 689.07 210.89
  A 0.42 0.42 0.0 0 0 689.46 211.47
  L 696.30 211.55
  A 0.42 0.42 0.0 0 0 696.70 210.98
  L 693.38 202.09
  A 0.42 0.42 0.0 0 0 692.60 202.08
  L 689.07 210.89
  Z"
/>
<path fill="#116635" d="
  M 749.20 215.75
  L 739.43 215.74
  Q 738.79 215.74 738.55 216.33
  L 737.25 219.52
  Q 736.40 221.61 734.24 220.97
  Q 733.66 220.79 733.22 220.32
  A 1.50 1.50 0.0 0 1 732.92 218.77
  Q 736.71 209.00 741.19 197.70
  C 741.75 196.29 742.09 195.07 743.90 194.87
  Q 746.55 194.57 747.46 196.79
  Q 752.02 208.00 756.18 218.67
  A 1.60 1.60 0.0 0 1 755.83 220.38
  Q 755.32 220.91 754.67 221.06
  Q 752.93 221.46 752.16 219.85
  L 750.58 216.61
  Q 750.16 215.75 749.20 215.75
  Z
  M 740.64 210.90
  A 0.41 0.41 0.0 0 0 741.02 211.46
  L 747.83 211.53
  A 0.41 0.41 0.0 0 0 748.22 210.98
  L 744.90 202.15
  A 0.41 0.41 0.0 0 0 744.14 202.14
  L 740.64 210.90
  Z"
/>
<path fill="#116635" d="
  M 843.02 216.24
  L 841.59 219.80
  Q 840.81 221.75 838.87 220.94
  L 838.42 220.75
  A 1.81 1.80 -68.2 0 1 837.43 218.43
  Q 841.60 207.81 845.93 196.98
  Q 846.88 194.63 849.76 194.98
  Q 851.38 195.18 851.88 196.45
  Q 855.78 206.26 860.38 218.17
  Q 861.05 219.90 859.48 220.88
  Q 859.17 221.08 858.78 221.10
  Q 857.15 221.19 856.47 219.72
  L 854.95 216.41
  Q 854.64 215.75 853.91 215.75
  L 843.75 215.74
  A 0.80 0.78 -78.9 0 0 843.02 216.24
  Z
  M 845.08 210.89
  A 0.41 0.41 0.0 0 0 845.45 211.45
  L 852.28 211.53
  A 0.41 0.41 0.0 0 0 852.66 210.97
  L 849.34 202.13
  A 0.41 0.41 0.0 0 0 848.58 202.12
  L 845.08 210.89
  Z"
/>
<rect fill="#ffffff" x="-8.57" y="-9.07" transform="translate(791.63,207.89) rotate(0.5)" width="17.14" height="18.14" rx="7.59"/>
<path fill="#ffffff" d="
  M 628.28 199.51
  A 0.55 0.55 0.0 0 1 628.83 198.97
  L 633.97 199.04
  A 7.15 6.98 0.8 0 1 641.03 206.12
  L 640.97 209.94
  A 7.15 6.98 0.8 0 1 633.73 216.82
  L 628.59 216.75
  A 0.55 0.55 0.0 0 1 628.04 216.19
  L 628.28 199.51
  Z"
/>
<path fill="#ffffff" d="
  M 654.40 211.04
  L 658.08 201.99
  A 0.31 0.31 0.0 0 1 658.65 202.00
  L 662.14 211.12
  A 0.31 0.31 0.0 0 1 661.85 211.54
  L 654.68 211.47
  A 0.31 0.31 0.0 0 1 654.40 211.04
  Z"
/>
<path fill="#ffffff" d="
  M 689.07 210.89
  L 692.60 202.08
  A 0.42 0.42 0.0 0 1 693.38 202.09
  L 696.70 210.98
  A 0.42 0.42 0.0 0 1 696.30 211.55
  L 689.46 211.47
  A 0.42 0.42 0.0 0 1 689.07 210.89
  Z"
/>
<path fill="#ffffff" d="
  M 740.64 210.90
  L 744.14 202.14
  A 0.41 0.41 0.0 0 1 744.90 202.15
  L 748.22 210.98
  A 0.41 0.41 0.0 0 1 747.83 211.53
  L 741.02 211.46
  A 0.41 0.41 0.0 0 1 740.64 210.90
  Z"
/>
<path fill="#ffffff" d="
  M 845.08 210.89
  L 848.58 202.12
  A 0.41 0.41 0.0 0 1 849.34 202.13
  L 852.66 210.97
  A 0.41 0.41 0.0 0 1 852.28 211.53
  L 845.45 211.45
  A 0.41 0.41 0.0 0 1 845.08 210.89
  Z"
/>
</svg>
