<?xml version="1.0" encoding="UTF-8" standalone="no"?>
<!DOCTYPE svg PUBLIC "-//W3C//DTD SVG 1.1//EN" "http://www.w3.org/Graphics/SVG/1.1/DTD/svg11.dtd">
<svg xmlns="http://www.w3.org/2000/svg" version="1.1" viewBox="0.00 0.00 1128.00 191.00">
<g stroke-width="2.00" fill="none" stroke-linecap="butt">
<path stroke="#eb888c" vector-effect="non-scaling-stroke" d="
  M 204.01 0.00
  Q 184.75 20.89 165.37 42.61
  Q 160.13 48.49 154.67 51.44
  Q 149.23 54.38 141.88 54.39
  Q 91.30 54.48 36.34 54.39
  Q 24.14 54.37 16.28 64.11
  Q 8.46 73.83 0.91 83.36
  A 0.51 0.51 0.0 0 0 1.30 84.19
  Q 75.93 84.34 134.99 84.15
  C 145.53 84.12 155.59 82.95 164.16 76.62
  Q 172.01 70.80 182.00 59.79
  Q 207.17 32.04 235.80 0.70
  Q 236.03 0.45 235.78 0.21
  L 235.55 0.00"
/>
<path stroke="#989899" vector-effect="non-scaling-stroke" d="
  M 1128.00 116.99
  Q 1127.66 107.32 1119.12 102.36
  Q 1112.63 98.60 1105.52 94.67
  C 1100.57 91.92 1098.89 86.56 1101.49 81.56
  C 1105.66 73.52 1114.97 74.81 1122.01 78.14
  Q 1122.96 78.59 1123.11 77.55
  L 1124.07 71.04
  Q 1124.21 70.08 1123.27 69.82
  C 1115.58 67.75 1108.14 66.99 1101.14 70.83
  C 1094.01 74.73 1090.96 82.08 1092.12 90.05
  Q 1093.07 96.52 1098.51 100.17
  Q 1103.91 103.79 1110.25 106.80
  C 1116.83 109.93 1122.27 115.63 1118.04 123.29
  C 1112.71 132.95 1100.31 129.38 1092.23 125.01
  A 0.17 0.17 0.0 0 0 1091.98 125.15
  Q 1091.64 129.23 1090.96 133.39
  A 0.47 0.47 0.0 0 0 1091.25 133.90
  Q 1097.80 136.52 1106.08 136.90
  C 1118.19 137.46 1126.99 131.12 1128.00 118.50"
/>
<path stroke="#edebea" vector-effect="non-scaling-stroke" d="
  M 150.44 191.00
  Q 179.59 160.10 190.83 147.07
  Q 199.22 137.35 210.92 137.17
  Q 245.34 136.65 314.79 137.04
  Q 322.17 137.09 326.22 135.57
  Q 333.68 132.78 338.95 124.93
  Q 343.26 118.50 347.80 111.95
  A 0.58 0.58 0.0 0 0 347.86 111.40
  Q 347.66 110.96 347.27 110.96
  Q 283.56 111.06 219.60 110.96
  C 211.64 110.95 203.41 111.66 196.45 115.49
  Q 187.42 120.45 179.88 128.73
  Q 155.63 155.37 128.47 185.38
  Q 126.30 187.78 123.93 190.20
  Q 123.47 190.67 124.63 191.00"
/>
<path stroke="#989899" vector-effect="non-scaling-stroke" d="
  M 137.09 127.23
  L 100.39 167.64
  A 0.34 0.34 0.0 0 0 100.65 168.21
  Q 107.74 168.20 115.30 168.30
  Q 127.27 168.46 135.03 159.94
  Q 161.85 130.49 186.96 102.88
  C 193.63 95.54 201.68 94.23 211.31 94.16
  Q 256.16 93.88 310.41 94.13
  Q 317.23 94.17 321.11 92.72
  Q 328.33 90.05 333.34 82.77
  Q 338.11 75.87 342.89 68.78
  A 0.43 0.43 0.0 0 0 342.54 68.11
  L 218.96 68.09"
/>
<path stroke="#edebea" vector-effect="non-scaling-stroke" d="
  M 218.96 68.09
  Q 218.90 67.88 218.89 67.75
  Q 218.88 67.60 218.98 67.49
  Q 238.64 46.18 258.74 24.09
  Q 259.02 23.79 259.03 23.37
  A 0.48 0.47 -88.8 0 0 258.56 22.87
  Q 249.11 22.75 240.24 22.82
  Q 232.21 22.88 225.96 26.15
  Q 222.18 28.13 216.81 34.06
  Q 194.61 58.59 171.77 83.74
  C 168.43 87.42 164.23 91.64 160.17 94.01
  Q 154.52 97.31 146.79 97.31
  Q 91.10 97.36 41.63 97.28
  Q 29.32 97.26 22.29 105.93
  Q 14.32 115.76 6.19 125.89
  A 0.61 0.60 36.8 0 0 6.32 126.76
  Q 6.63 126.98 7.25 126.98
  Q 69.60 126.98 131.96 127.00
  Q 132.70 127.00 134.50 126.72
  Q 136.36 126.43 137.09 127.23"
/>
<path stroke="#888584" vector-effect="non-scaling-stroke" d="
  M 218.96 68.09
  Q 211.55 67.93 206.75 68.26
  C 197.22 68.90 189.64 72.62 182.39 78.63
  Q 177.65 82.56 175.82 84.57
  Q 156.35 105.95 137.09 127.23"
/>
<path stroke="#eb888c" vector-effect="non-scaling-stroke" d="
  M 419.81 136.72
  A 0.61 0.61 0.0 0 0 420.39 136.29
  L 427.86 111.82
  A 0.61 0.61 0.0 0 1 428.44 111.39
  L 463.03 111.34
  A 0.61 0.61 0.0 0 1 463.62 111.79
  L 470.34 136.29
  A 0.61 0.61 0.0 0 0 470.93 136.74
  L 497.25 136.74
  A 0.61 0.61 0.0 0 0 497.83 135.94
  L 461.71 23.27
  A 0.61 0.61 0.0 0 0 461.13 22.85
  L 432.48 22.85
  A 0.61 0.61 0.0 0 0 431.90 23.27
  L 394.48 135.96
  A 0.61 0.61 0.0 0 0 395.06 136.76
  L 419.81 136.72"
/>
<path stroke="#eb888c" vector-effect="non-scaling-stroke" d="
  M 536.53 90.08
  A 0.62 0.62 0.0 0 1 537.15 89.46
  L 563.37 89.35
  A 0.62 0.62 0.0 0 1 563.99 89.97
  L 564.00 136.14
  A 0.62 0.62 0.0 0 0 564.62 136.76
  L 590.33 136.72
  A 0.62 0.62 0.0 0 0 590.95 136.10
  L 590.94 23.54
  A 0.62 0.62 0.0 0 0 590.32 22.92
  L 564.62 22.83
  A 0.62 0.62 0.0 0 0 564.00 23.45
  L 563.99 67.65
  A 0.62 0.62 0.0 0 1 563.37 68.27
  L 537.15 68.24
  A 0.62 0.62 0.0 0 1 536.53 67.62
  L 536.53 23.51
  A 0.62 0.62 0.0 0 0 535.91 22.89
  L 510.24 22.86
  A 0.62 0.62 0.0 0 0 509.62 23.48
  L 509.60 136.14
  A 0.62 0.62 0.0 0 0 510.22 136.76
  L 535.90 136.73
  A 0.62 0.62 0.0 0 0 536.52 136.11
  L 536.53 90.08"
/>
<path stroke="#eb888c" vector-effect="non-scaling-stroke" d="
  M 627.94 136.71
  A 0.61 0.61 0.0 0 0 628.52 136.28
  L 635.99 111.82
  A 0.61 0.61 0.0 0 1 636.57 111.39
  L 671.16 111.35
  A 0.61 0.61 0.0 0 1 671.75 111.80
  L 678.50 136.29
  A 0.61 0.61 0.0 0 0 679.08 136.74
  L 705.39 136.74
  A 0.61 0.61 0.0 0 0 705.97 135.94
  L 669.84 23.26
  A 0.61 0.61 0.0 0 0 669.25 22.84
  L 640.62 22.85
  A 0.61 0.61 0.0 0 0 640.04 23.27
  L 602.60 135.96
  A 0.61 0.61 0.0 0 0 603.18 136.76
  L 627.94 136.71"
/>
<path stroke="#989899" vector-effect="non-scaling-stroke" d="
  M 920.77 43.08
  A 0.58 0.58 0.0 0 0 920.19 42.50
  L 911.91 42.50
  A 0.58 0.58 0.0 0 0 911.33 43.08
  L 911.33 54.00
  A 0.58 0.58 0.0 0 0 911.91 54.58
  L 920.19 54.58
  A 0.58 0.58 0.0 0 0 920.77 54.00
  L 920.77 43.08"
/>
<path stroke="#989899" vector-effect="non-scaling-stroke" d="
  M 1029.74 43.03
  A 0.52 0.52 0.0 0 0 1029.22 42.51
  L 1020.68 42.51
  A 0.52 0.52 0.0 0 0 1020.16 43.03
  L 1020.16 54.03
  A 0.52 0.52 0.0 0 0 1020.68 54.55
  L 1029.22 54.55
  A 0.52 0.52 0.0 0 0 1029.74 54.03
  L 1029.74 43.03"
/>
<path stroke="#989899" vector-effect="non-scaling-stroke" d="
  M 750.27 128.14
  A 0.53 0.53 0.0 0 1 749.74 127.61
  L 749.73 44.97
  A 0.53 0.53 0.0 0 0 749.20 44.44
  L 741.77 44.48
  A 0.53 0.53 0.0 0 0 741.24 45.01
  L 741.23 135.53
  A 0.53 0.53 0.0 0 0 741.76 136.06
  L 778.97 136.07
  A 0.53 0.53 0.0 0 0 779.50 135.55
  L 779.56 128.68
  A 0.53 0.53 0.0 0 0 779.03 128.14
  L 750.27 128.14"
/>
<path stroke="#989899" vector-effect="non-scaling-stroke" d="
  M 996.14 76.43
  L 1008.29 76.47
  Q 1009.05 76.47 1009.04 75.71
  L 1009.03 69.79
  A 0.73 0.73 0.0 0 0 1008.29 69.06
  L 996.21 69.08
  A 0.88 0.87 89.7 0 1 995.34 68.21
  L 995.28 54.04
  Q 995.27 53.26 994.53 53.49
  L 988.35 55.41
  A 1.21 1.21 0.0 0 0 987.49 56.57
  L 987.45 68.20
  Q 987.45 69.09 986.55 69.09
  L 977.93 69.02
  Q 977.38 69.01 977.38 69.57
  L 977.34 76.04
  Q 977.34 76.50 977.80 76.50
  L 986.93 76.40
  A 0.53 0.53 0.0 0 1 987.47 76.93
  Q 987.44 98.35 987.42 121.35
  C 987.42 127.69 989.14 135.27 996.47 136.52
  Q 1001.29 137.34 1008.53 136.27
  Q 1009.00 136.20 1009.00 135.72
  L 1009.07 128.33
  A 0.22 0.22 0.0 0 0 1008.76 128.13
  C 1001.44 131.26 995.30 129.43 995.32 120.57
  Q 995.37 99.00 995.35 77.22
  Q 995.35 76.42 996.14 76.43"
/>
<path stroke="#989899" vector-effect="non-scaling-stroke" d="
  M 797.07 73.09
  C 789.55 79.61 787.29 90.13 786.99 100.09
  C 786.57 113.99 789.80 133.71 806.83 136.43
  C 824.92 139.32 834.37 128.30 836.58 111.88
  C 838.47 97.85 837.06 74.98 820.54 69.43
  C 813.07 66.92 803.26 67.73 797.07 73.09"
/>
<path stroke="#989899" vector-effect="non-scaling-stroke" d="
  M 886.71 128.53
  Q 887.09 135.71 886.18 142.11
  C 884.33 155.18 874.93 159.50 863.08 156.85
  Q 856.79 155.44 851.10 152.53
  A 0.13 0.12 17.1 0 0 850.92 152.62
  Q 850.41 157.54 850.47 161.03
  Q 850.47 161.20 850.63 161.27
  Q 860.74 165.28 870.65 164.99
  C 887.28 164.49 894.60 152.37 894.49 136.75
  C 894.34 114.57 894.37 91.85 895.01 69.29
  Q 895.02 69.01 894.74 69.01
  L 887.97 69.03
  Q 887.71 69.03 887.71 69.28
  L 887.61 76.78
  Q 887.58 78.47 886.67 77.04
  C 882.41 70.35 875.87 67.44 868.26 68.16
  C 852.67 69.65 848.54 85.14 847.63 98.67
  C 847.00 108.19 847.99 117.91 852.37 125.91
  Q 858.59 137.25 870.65 136.91
  C 877.26 136.72 882.48 133.80 885.82 128.31
  Q 886.63 126.99 886.71 128.53"
/>
<path stroke="#989899" vector-effect="non-scaling-stroke" d="
  M 934.82 86.56
  C 934.55 101.40 948.89 103.21 958.24 109.99
  C 962.37 112.98 963.46 118.57 961.11 122.96
  C 955.91 132.65 943.88 129.72 935.90 125.33
  A 0.78 0.78 0.0 0 0 934.75 125.93
  L 934.05 132.60
  Q 933.92 133.83 935.08 134.26
  Q 942.14 136.90 950.55 136.91
  C 963.46 136.92 971.79 128.43 970.68 115.24
  Q 970.07 107.93 963.89 103.72
  Q 958.36 99.95 950.23 95.75
  C 946.61 93.89 943.53 91.39 943.35 87.15
  C 943.00 78.65 949.88 74.36 957.87 75.88
  Q 962.04 76.67 965.69 78.38
  Q 966.03 78.53 966.07 78.16
  L 966.95 70.54
  Q 967.00 70.11 966.58 69.99
  C 957.05 67.22 947.40 66.78 939.93 73.91
  Q 934.97 78.63 934.82 86.56"
/>
<path stroke="#989899" vector-effect="non-scaling-stroke" d="
  M 1043.52 106.65
  C 1044.27 120.40 1052.07 134.73 1066.95 136.58
  Q 1075.29 137.62 1083.88 134.77
  Q 1084.01 134.73 1084.02 134.60
  Q 1084.30 131.45 1083.66 125.73
  A 0.05 0.04 71.2 0 0 1083.59 125.69
  C 1070.03 133.69 1056.39 126.51 1053.09 111.86
  Q 1050.86 101.96 1052.67 92.36
  C 1054.42 83.08 1061.04 76.09 1071.03 76.18
  C 1074.95 76.21 1079.00 76.62 1082.18 79.03
  Q 1083.22 79.81 1083.29 78.52
  L 1083.68 71.28
  A 1.18 1.17 11.1 0 0 1082.88 70.10
  C 1070.01 65.63 1055.47 68.11 1048.33 80.65
  C 1043.92 88.39 1043.03 97.61 1043.52 106.65"
/>
<path stroke="#989899" vector-effect="non-scaling-stroke" d="
  M 919.99 69.72
  A 0.73 0.73 0.0 0 0 919.26 68.99
  L 912.74 68.99
  A 0.73 0.73 0.0 0 0 912.01 69.72
  L 912.01 135.40
  A 0.73 0.73 0.0 0 0 912.74 136.13
  L 919.26 136.13
  A 0.73 0.73 0.0 0 0 919.99 135.40
  L 919.99 69.72"
/>
<path stroke="#989899" vector-effect="non-scaling-stroke" d="
  M 1028.76 69.67
  A 0.66 0.66 0.0 0 0 1028.10 69.01
  L 1021.42 69.01
  A 0.66 0.66 0.0 0 0 1020.76 69.67
  L 1020.76 135.49
  A 0.66 0.66 0.0 0 0 1021.42 136.15
  L 1028.10 136.15
  A 0.66 0.66 0.0 0 0 1028.76 135.49
  L 1028.76 69.67"
/>
<path stroke="#eb888c" vector-effect="non-scaling-stroke" d="
  M 433.12 91.40
  A 0.30 0.30 0.0 0 0 433.41 91.78
  L 457.77 91.84
  A 0.30 0.30 0.0 0 0 458.06 91.47
  L 446.77 45.67
  A 0.30 0.30 0.0 0 0 446.19 45.66
  L 433.12 91.40"
/>
<path stroke="#eb888c" vector-effect="non-scaling-stroke" d="
  M 641.25 91.39
  A 0.33 0.33 0.0 0 0 641.57 91.81
  L 665.87 91.81
  A 0.33 0.33 0.0 0 0 666.19 91.40
  L 654.94 45.78
  A 0.33 0.33 0.0 0 0 654.30 45.77
  L 641.25 91.39"
/>
<path stroke="#989899" vector-effect="non-scaling-stroke" d="
  M 825.63 84.67
  C 822.09 76.70 813.81 73.41 805.94 76.82
  C 794.50 81.79 794.85 101.23 795.99 111.08
  C 797.07 120.38 801.98 130.23 813.04 129.42
  C 829.64 128.21 829.62 105.52 828.19 93.92
  Q 827.60 89.11 825.63 84.67"
/>
<path stroke="#989899" vector-effect="non-scaling-stroke" d="
  M 869.82 75.61
  C 853.67 77.20 855.14 104.76 857.19 115.13
  C 858.96 124.15 863.98 130.84 874.19 129.19
  C 888.89 126.81 887.94 102.36 886.35 91.75
  C 885.06 83.10 879.88 74.62 869.82 75.61"
/>
</g>
<path fill="#fdfeff" d="
  M 0.00 0.00
  L 204.01 0.00
  Q 184.75 20.89 165.37 42.61
  Q 160.13 48.49 154.67 51.44
  Q 149.23 54.38 141.88 54.39
  Q 91.30 54.48 36.34 54.39
  Q 24.14 54.37 16.28 64.11
  Q 8.46 73.83 0.91 83.36
  A 0.51 0.51 0.0 0 0 1.30 84.19
  Q 75.93 84.34 134.99 84.15
  C 145.53 84.12 155.59 82.95 164.16 76.62
  Q 172.01 70.80 182.00 59.79
  Q 207.17 32.04 235.80 0.70
  Q 236.03 0.45 235.78 0.21
  L 235.55 0.00
  L 1128.00 0.00
  L 1128.00 116.99
  Q 1127.66 107.32 1119.12 102.36
  Q 1112.63 98.60 1105.52 94.67
  C 1100.57 91.92 1098.89 86.56 1101.49 81.56
  C 1105.66 73.52 1114.97 74.81 1122.01 78.14
  Q 1122.96 78.59 1123.11 77.55
  L 1124.07 71.04
  Q 1124.21 70.08 1123.27 69.82
  C 1115.58 67.75 1108.14 66.99 1101.14 70.83
  C 1094.01 74.73 1090.96 82.08 1092.12 90.05
  Q 1093.07 96.52 1098.51 100.17
  Q 1103.91 103.79 1110.25 106.80
  C 1116.83 109.93 1122.27 115.63 1118.04 123.29
  C 1112.71 132.95 1100.31 129.38 1092.23 125.01
  A 0.17 0.17 0.0 0 0 1091.98 125.15
  Q 1091.64 129.23 1090.96 133.39
  A 0.47 0.47 0.0 0 0 1091.25 133.90
  Q 1097.80 136.52 1106.08 136.90
  C 1118.19 137.46 1126.99 131.12 1128.00 118.50
  L 1128.00 191.00
  L 150.44 191.00
  Q 179.59 160.10 190.83 147.07
  Q 199.22 137.35 210.92 137.17
  Q 245.34 136.65 314.79 137.04
  Q 322.17 137.09 326.22 135.57
  Q 333.68 132.78 338.95 124.93
  Q 343.26 118.50 347.80 111.95
  A 0.58 0.58 0.0 0 0 347.86 111.40
  Q 347.66 110.96 347.27 110.96
  Q 283.56 111.06 219.60 110.96
  C 211.64 110.95 203.41 111.66 196.45 115.49
  Q 187.42 120.45 179.88 128.73
  Q 155.63 155.37 128.47 185.38
  Q 126.30 187.78 123.93 190.20
  Q 123.47 190.67 124.63 191.00
  L 0.00 191.00
  L 0.00 0.00
  Z
  M 137.09 127.23
  L 100.39 167.64
  A 0.34 0.34 0.0 0 0 100.65 168.21
  Q 107.74 168.20 115.30 168.30
  Q 127.27 168.46 135.03 159.94
  Q 161.85 130.49 186.96 102.88
  C 193.63 95.54 201.68 94.23 211.31 94.16
  Q 256.16 93.88 310.41 94.13
  Q 317.23 94.17 321.11 92.72
  Q 328.33 90.05 333.34 82.77
  Q 338.11 75.87 342.89 68.78
  A 0.43 0.43 0.0 0 0 342.54 68.11
  L 218.96 68.09
  Q 218.90 67.88 218.89 67.75
  Q 218.88 67.60 218.98 67.49
  Q 238.64 46.18 258.74 24.09
  Q 259.02 23.79 259.03 23.37
  A 0.48 0.47 -88.8 0 0 258.56 22.87
  Q 249.11 22.75 240.24 22.82
  Q 232.21 22.88 225.96 26.15
  Q 222.18 28.13 216.81 34.06
  Q 194.61 58.59 171.77 83.74
  C 168.43 87.42 164.23 91.64 160.17 94.01
  Q 154.52 97.31 146.79 97.31
  Q 91.10 97.36 41.63 97.28
  Q 29.32 97.26 22.29 105.93
  Q 14.32 115.76 6.19 125.89
  A 0.61 0.60 36.8 0 0 6.32 126.76
  Q 6.63 126.98 7.25 126.98
  Q 69.60 126.98 131.96 127.00
  Q 132.70 127.00 134.50 126.72
  Q 136.36 126.43 137.09 127.23
  Z
  M 419.81 136.72
  A 0.61 0.61 0.0 0 0 420.39 136.29
  L 427.86 111.82
  A 0.61 0.61 0.0 0 1 428.44 111.39
  L 463.03 111.34
  A 0.61 0.61 0.0 0 1 463.62 111.79
  L 470.34 136.29
  A 0.61 0.61 0.0 0 0 470.93 136.74
  L 497.25 136.74
  A 0.61 0.61 0.0 0 0 497.83 135.94
  L 461.71 23.27
  A 0.61 0.61 0.0 0 0 461.13 22.85
  L 432.48 22.85
  A 0.61 0.61 0.0 0 0 431.90 23.27
  L 394.48 135.96
  A 0.61 0.61 0.0 0 0 395.06 136.76
  L 419.81 136.72
  Z
  M 536.53 90.08
  A 0.62 0.62 0.0 0 1 537.15 89.46
  L 563.37 89.35
  A 0.62 0.62 0.0 0 1 563.99 89.97
  L 564.00 136.14
  A 0.62 0.62 0.0 0 0 564.62 136.76
  L 590.33 136.72
  A 0.62 0.62 0.0 0 0 590.95 136.10
  L 590.94 23.54
  A 0.62 0.62 0.0 0 0 590.32 22.92
  L 564.62 22.83
  A 0.62 0.62 0.0 0 0 564.00 23.45
  L 563.99 67.65
  A 0.62 0.62 0.0 0 1 563.37 68.27
  L 537.15 68.24
  A 0.62 0.62 0.0 0 1 536.53 67.62
  L 536.53 23.51
  A 0.62 0.62 0.0 0 0 535.91 22.89
  L 510.24 22.86
  A 0.62 0.62 0.0 0 0 509.62 23.48
  L 509.60 136.14
  A 0.62 0.62 0.0 0 0 510.22 136.76
  L 535.90 136.73
  A 0.62 0.62 0.0 0 0 536.52 136.11
  L 536.53 90.08
  Z
  M 627.94 136.71
  A 0.61 0.61 0.0 0 0 628.52 136.28
  L 635.99 111.82
  A 0.61 0.61 0.0 0 1 636.57 111.39
  L 671.16 111.35
  A 0.61 0.61 0.0 0 1 671.75 111.80
  L 678.50 136.29
  A 0.61 0.61 0.0 0 0 679.08 136.74
  L 705.39 136.74
  A 0.61 0.61 0.0 0 0 705.97 135.94
  L 669.84 23.26
  A 0.61 0.61 0.0 0 0 669.25 22.84
  L 640.62 22.85
  A 0.61 0.61 0.0 0 0 640.04 23.27
  L 602.60 135.96
  A 0.61 0.61 0.0 0 0 603.18 136.76
  L 627.94 136.71
  Z
  M 920.77 43.08
  A 0.58 0.58 0.0 0 0 920.19 42.50
  L 911.91 42.50
  A 0.58 0.58 0.0 0 0 911.33 43.08
  L 911.33 54.00
  A 0.58 0.58 0.0 0 0 911.91 54.58
  L 920.19 54.58
  A 0.58 0.58 0.0 0 0 920.77 54.00
  L 920.77 43.08
  Z
  M 1029.74 43.03
  A 0.52 0.52 0.0 0 0 1029.22 42.51
  L 1020.68 42.51
  A 0.52 0.52 0.0 0 0 1020.16 43.03
  L 1020.16 54.03
  A 0.52 0.52 0.0 0 0 1020.68 54.55
  L 1029.22 54.55
  A 0.52 0.52 0.0 0 0 1029.74 54.03
  L 1029.74 43.03
  Z
  M 750.27 128.14
  A 0.53 0.53 0.0 0 1 749.74 127.61
  L 749.73 44.97
  A 0.53 0.53 0.0 0 0 749.20 44.44
  L 741.77 44.48
  A 0.53 0.53 0.0 0 0 741.24 45.01
  L 741.23 135.53
  A 0.53 0.53 0.0 0 0 741.76 136.06
  L 778.97 136.07
  A 0.53 0.53 0.0 0 0 779.50 135.55
  L 779.56 128.68
  A 0.53 0.53 0.0 0 0 779.03 128.14
  L 750.27 128.14
  Z
  M 996.14 76.43
  L 1008.29 76.47
  Q 1009.05 76.47 1009.04 75.71
  L 1009.03 69.79
  A 0.73 0.73 0.0 0 0 1008.29 69.06
  L 996.21 69.08
  A 0.88 0.87 89.7 0 1 995.34 68.21
  L 995.28 54.04
  Q 995.27 53.26 994.53 53.49
  L 988.35 55.41
  A 1.21 1.21 0.0 0 0 987.49 56.57
  L 987.45 68.20
  Q 987.45 69.09 986.55 69.09
  L 977.93 69.02
  Q 977.38 69.01 977.38 69.57
  L 977.34 76.04
  Q 977.34 76.50 977.80 76.50
  L 986.93 76.40
  A 0.53 0.53 0.0 0 1 987.47 76.93
  Q 987.44 98.35 987.42 121.35
  C 987.42 127.69 989.14 135.27 996.47 136.52
  Q 1001.29 137.34 1008.53 136.27
  Q 1009.00 136.20 1009.00 135.72
  L 1009.07 128.33
  A 0.22 0.22 0.0 0 0 1008.76 128.13
  C 1001.44 131.26 995.30 129.43 995.32 120.57
  Q 995.37 99.00 995.35 77.22
  Q 995.35 76.42 996.14 76.43
  Z
  M 797.07 73.09
  C 789.55 79.61 787.29 90.13 786.99 100.09
  C 786.57 113.99 789.80 133.71 806.83 136.43
  C 824.92 139.32 834.37 128.30 836.58 111.88
  C 838.47 97.85 837.06 74.98 820.54 69.43
  C 813.07 66.92 803.26 67.73 797.07 73.09
  Z
  M 886.71 128.53
  Q 887.09 135.71 886.18 142.11
  C 884.33 155.18 874.93 159.50 863.08 156.85
  Q 856.79 155.44 851.10 152.53
  A 0.13 0.12 17.1 0 0 850.92 152.62
  Q 850.41 157.54 850.47 161.03
  Q 850.47 161.20 850.63 161.27
  Q 860.74 165.28 870.65 164.99
  C 887.28 164.49 894.60 152.37 894.49 136.75
  C 894.34 114.57 894.37 91.85 895.01 69.29
  Q 895.02 69.01 894.74 69.01
  L 887.97 69.03
  Q 887.71 69.03 887.71 69.28
  L 887.61 76.78
  Q 887.58 78.47 886.67 77.04
  C 882.41 70.35 875.87 67.44 868.26 68.16
  C 852.67 69.65 848.54 85.14 847.63 98.67
  C 847.00 108.19 847.99 117.91 852.37 125.91
  Q 858.59 137.25 870.65 136.91
  C 877.26 136.72 882.48 133.80 885.82 128.31
  Q 886.63 126.99 886.71 128.53
  Z
  M 934.82 86.56
  C 934.55 101.40 948.89 103.21 958.24 109.99
  C 962.37 112.98 963.46 118.57 961.11 122.96
  C 955.91 132.65 943.88 129.72 935.90 125.33
  A 0.78 0.78 0.0 0 0 934.75 125.93
  L 934.05 132.60
  Q 933.92 133.83 935.08 134.26
  Q 942.14 136.90 950.55 136.91
  C 963.46 136.92 971.79 128.43 970.68 115.24
  Q 970.07 107.93 963.89 103.72
  Q 958.36 99.95 950.23 95.75
  C 946.61 93.89 943.53 91.39 943.35 87.15
  C 943.00 78.65 949.88 74.36 957.87 75.88
  Q 962.04 76.67 965.69 78.38
  Q 966.03 78.53 966.07 78.16
  L 966.95 70.54
  Q 967.00 70.11 966.58 69.99
  C 957.05 67.22 947.40 66.78 939.93 73.91
  Q 934.97 78.63 934.82 86.56
  Z
  M 1043.52 106.65
  C 1044.27 120.40 1052.07 134.73 1066.95 136.58
  Q 1075.29 137.62 1083.88 134.77
  Q 1084.01 134.73 1084.02 134.60
  Q 1084.30 131.45 1083.66 125.73
  A 0.05 0.04 71.2 0 0 1083.59 125.69
  C 1070.03 133.69 1056.39 126.51 1053.09 111.86
  Q 1050.86 101.96 1052.67 92.36
  C 1054.42 83.08 1061.04 76.09 1071.03 76.18
  C 1074.95 76.21 1079.00 76.62 1082.18 79.03
  Q 1083.22 79.81 1083.29 78.52
  L 1083.68 71.28
  A 1.18 1.17 11.1 0 0 1082.88 70.10
  C 1070.01 65.63 1055.47 68.11 1048.33 80.65
  C 1043.92 88.39 1043.03 97.61 1043.52 106.65
  Z
  M 919.99 69.72
  A 0.73 0.73 0.0 0 0 919.26 68.99
  L 912.74 68.99
  A 0.73 0.73 0.0 0 0 912.01 69.72
  L 912.01 135.40
  A 0.73 0.73 0.0 0 0 912.74 136.13
  L 919.26 136.13
  A 0.73 0.73 0.0 0 0 919.99 135.40
  L 919.99 69.72
  Z
  M 1028.76 69.67
  A 0.66 0.66 0.0 0 0 1028.10 69.01
  L 1021.42 69.01
  A 0.66 0.66 0.0 0 0 1020.76 69.67
  L 1020.76 135.49
  A 0.66 0.66 0.0 0 0 1021.42 136.15
  L 1028.10 136.15
  A 0.66 0.66 0.0 0 0 1028.76 135.49
  L 1028.76 69.67
  Z"
/>
<path fill="#d91219" d="
  M 204.01 0.00
  L 235.55 0.00
  L 235.78 0.21
  Q 236.03 0.45 235.80 0.70
  Q 207.17 32.04 182.00 59.79
  Q 172.01 70.80 164.16 76.62
  C 155.59 82.95 145.53 84.12 134.99 84.15
  Q 75.93 84.34 1.30 84.19
  A 0.51 0.51 0.0 0 1 0.91 83.36
  Q 8.46 73.83 16.28 64.11
  Q 24.14 54.37 36.34 54.39
  Q 91.30 54.48 141.88 54.39
  Q 149.23 54.38 154.67 51.44
  Q 160.13 48.49 165.37 42.61
  Q 184.75 20.89 204.01 0.00
  Z"
/>
<path fill="#ddd8d5" d="
  M 218.96 68.09
  Q 211.55 67.93 206.75 68.26
  C 197.22 68.90 189.64 72.62 182.39 78.63
  Q 177.65 82.56 175.82 84.57
  Q 156.35 105.95 137.09 127.23
  Q 136.36 126.43 134.50 126.72
  Q 132.70 127.00 131.96 127.00
  Q 69.60 126.98 7.25 126.98
  Q 6.63 126.98 6.32 126.76
  A 0.61 0.60 36.8 0 1 6.19 125.89
  Q 14.32 115.76 22.29 105.93
  Q 29.32 97.26 41.63 97.28
  Q 91.10 97.36 146.79 97.31
  Q 154.52 97.31 160.17 94.01
  C 164.23 91.64 168.43 87.42 171.77 83.74
  Q 194.61 58.59 216.81 34.06
  Q 222.18 28.13 225.96 26.15
  Q 232.21 22.88 240.24 22.82
  Q 249.11 22.75 258.56 22.87
  A 0.48 0.47 -88.8 0 1 259.03 23.37
  Q 259.02 23.79 258.74 24.09
  Q 238.64 46.18 218.98 67.49
  Q 218.88 67.60 218.89 67.75
  Q 218.90 67.88 218.96 68.09
  Z"
/>
<path fill="#d91219" d="
  M 419.81 136.72
  L 395.06 136.76
  A 0.61 0.61 0.0 0 1 394.48 135.96
  L 431.90 23.27
  A 0.61 0.61 0.0 0 1 432.48 22.85
  L 461.13 22.85
  A 0.61 0.61 0.0 0 1 461.71 23.27
  L 497.83 135.94
  A 0.61 0.61 0.0 0 1 497.25 136.74
  L 470.93 136.74
  A 0.61 0.61 0.0 0 1 470.34 136.29
  L 463.62 111.79
  A 0.61 0.61 0.0 0 0 463.03 111.34
  L 428.44 111.39
  A 0.61 0.61 0.0 0 0 427.86 111.82
  L 420.39 136.29
  A 0.61 0.61 0.0 0 1 419.81 136.72
  Z
  M 433.12 91.40
  A 0.30 0.30 0.0 0 0 433.41 91.78
  L 457.77 91.84
  A 0.30 0.30 0.0 0 0 458.06 91.47
  L 446.77 45.67
  A 0.30 0.30 0.0 0 0 446.19 45.66
  L 433.12 91.40
  Z"
/>
<path fill="#d91219" d="
  M 536.53 90.08
  L 536.52 136.11
  A 0.62 0.62 0.0 0 1 535.90 136.73
  L 510.22 136.76
  A 0.62 0.62 0.0 0 1 509.60 136.14
  L 509.62 23.48
  A 0.62 0.62 0.0 0 1 510.24 22.86
  L 535.91 22.89
  A 0.62 0.62 0.0 0 1 536.53 23.51
  L 536.53 67.62
  A 0.62 0.62 0.0 0 0 537.15 68.24
  L 563.37 68.27
  A 0.62 0.62 0.0 0 0 563.99 67.65
  L 564.00 23.45
  A 0.62 0.62 0.0 0 1 564.62 22.83
  L 590.32 22.92
  A 0.62 0.62 0.0 0 1 590.94 23.54
  L 590.95 136.10
  A 0.62 0.62 0.0 0 1 590.33 136.72
  L 564.62 136.76
  A 0.62 0.62 0.0 0 1 564.00 136.14
  L 563.99 89.97
  A 0.62 0.62 0.0 0 0 563.37 89.35
  L 537.15 89.46
  A 0.62 0.62 0.0 0 0 536.53 90.08
  Z"
/>
<path fill="#d91219" d="
  M 627.94 136.71
  L 603.18 136.76
  A 0.61 0.61 0.0 0 1 602.60 135.96
  L 640.04 23.27
  A 0.61 0.61 0.0 0 1 640.62 22.85
  L 669.25 22.84
  A 0.61 0.61 0.0 0 1 669.84 23.26
  L 705.97 135.94
  A 0.61 0.61 0.0 0 1 705.39 136.74
  L 679.08 136.74
  A 0.61 0.61 0.0 0 1 678.50 136.29
  L 671.75 111.80
  A 0.61 0.61 0.0 0 0 671.16 111.35
  L 636.57 111.39
  A 0.61 0.61 0.0 0 0 635.99 111.82
  L 628.52 136.28
  A 0.61 0.61 0.0 0 1 627.94 136.71
  Z
  M 641.25 91.39
  A 0.33 0.33 0.0 0 0 641.57 91.81
  L 665.87 91.81
  A 0.33 0.33 0.0 0 0 666.19 91.40
  L 654.94 45.78
  A 0.33 0.33 0.0 0 0 654.30 45.77
  L 641.25 91.39
  Z"
/>
<rect fill="#333232" x="911.33" y="42.50" width="9.44" height="12.08" rx="0.58"/>
<rect fill="#333232" x="1020.16" y="42.51" width="9.58" height="12.04" rx="0.52"/>
<path fill="#333232" d="
  M 750.27 128.14
  L 779.03 128.14
  A 0.53 0.53 0.0 0 1 779.56 128.68
  L 779.50 135.55
  A 0.53 0.53 0.0 0 1 778.97 136.07
  L 741.76 136.06
  A 0.53 0.53 0.0 0 1 741.23 135.53
  L 741.24 45.01
  A 0.53 0.53 0.0 0 1 741.77 44.48
  L 749.20 44.44
  A 0.53 0.53 0.0 0 1 749.73 44.97
  L 749.74 127.61
  A 0.53 0.53 0.0 0 0 750.27 128.14
  Z"
/>
<path fill="#fdfeff" d="
  M 433.12 91.40
  L 446.19 45.66
  A 0.30 0.30 0.0 0 1 446.77 45.67
  L 458.06 91.47
  A 0.30 0.30 0.0 0 1 457.77 91.84
  L 433.41 91.78
  A 0.30 0.30 0.0 0 1 433.12 91.40
  Z"
/>
<path fill="#fdfeff" d="
  M 641.25 91.39
  L 654.30 45.77
  A 0.33 0.33 0.0 0 1 654.94 45.78
  L 666.19 91.40
  A 0.33 0.33 0.0 0 1 665.87 91.81
  L 641.57 91.81
  A 0.33 0.33 0.0 0 1 641.25 91.39
  Z"
/>
<path fill="#333232" d="
  M 996.14 76.43
  Q 995.35 76.42 995.35 77.22
  Q 995.37 99.00 995.32 120.57
  C 995.30 129.43 1001.44 131.26 1008.76 128.13
  A 0.22 0.22 0.0 0 1 1009.07 128.33
  L 1009.00 135.72
  Q 1009.00 136.20 1008.53 136.27
  Q 1001.29 137.34 996.47 136.52
  C 989.14 135.27 987.42 127.69 987.42 121.35
  Q 987.44 98.35 987.47 76.93
  A 0.53 0.53 0.0 0 0 986.93 76.40
  L 977.80 76.50
  Q 977.34 76.50 977.34 76.04
  L 977.38 69.57
  Q 977.38 69.01 977.93 69.02
  L 986.55 69.09
  Q 987.45 69.09 987.45 68.20
  L 987.49 56.57
  A 1.21 1.21 0.0 0 1 988.35 55.41
  L 994.53 53.49
  Q 995.27 53.26 995.28 54.04
  L 995.34 68.21
  A 0.88 0.87 89.7 0 0 996.21 69.08
  L 1008.29 69.06
  A 0.73 0.73 0.0 0 1 1009.03 69.79
  L 1009.04 75.71
  Q 1009.05 76.47 1008.29 76.47
  L 996.14 76.43
  Z"
/>
<path fill="#333232" d="
  M 218.96 68.09
  L 342.54 68.11
  A 0.43 0.43 0.0 0 1 342.89 68.78
  Q 338.11 75.87 333.34 82.77
  Q 328.33 90.05 321.11 92.72
  Q 317.23 94.17 310.41 94.13
  Q 256.16 93.88 211.31 94.16
  C 201.68 94.23 193.63 95.54 186.96 102.88
  Q 161.85 130.49 135.03 159.94
  Q 127.27 168.46 115.30 168.30
  Q 107.74 168.20 100.65 168.21
  A 0.34 0.34 0.0 0 1 100.39 167.64
  L 137.09 127.23
  Q 156.35 105.95 175.82 84.57
  Q 177.65 82.56 182.39 78.63
  C 189.64 72.62 197.22 68.90 206.75 68.26
  Q 211.55 67.93 218.96 68.09
  Z"
/>
<path fill="#333232" d="
  M 797.07 73.09
  C 803.26 67.73 813.07 66.92 820.54 69.43
  C 837.06 74.98 838.47 97.85 836.58 111.88
  C 834.37 128.30 824.92 139.32 806.83 136.43
  C 789.80 133.71 786.57 113.99 786.99 100.09
  C 787.29 90.13 789.55 79.61 797.07 73.09
  Z
  M 825.63 84.67
  C 822.09 76.70 813.81 73.41 805.94 76.82
  C 794.50 81.79 794.85 101.23 795.99 111.08
  C 797.07 120.38 801.98 130.23 813.04 129.42
  C 829.64 128.21 829.62 105.52 828.19 93.92
  Q 827.60 89.11 825.63 84.67
  Z"
/>
<path fill="#333232" d="
  M 886.71 128.53
  Q 886.63 126.99 885.82 128.31
  C 882.48 133.80 877.26 136.72 870.65 136.91
  Q 858.59 137.25 852.37 125.91
  C 847.99 117.91 847.00 108.19 847.63 98.67
  C 848.54 85.14 852.67 69.65 868.26 68.16
  C 875.87 67.44 882.41 70.35 886.67 77.04
  Q 887.58 78.47 887.61 76.78
  L 887.71 69.28
  Q 887.71 69.03 887.97 69.03
  L 894.74 69.01
  Q 895.02 69.01 895.01 69.29
  C 894.37 91.85 894.34 114.57 894.49 136.75
  C 894.60 152.37 887.28 164.49 870.65 164.99
  Q 860.74 165.28 850.63 161.27
  Q 850.47 161.20 850.47 161.03
  Q 850.41 157.54 850.92 152.62
  A 0.13 0.12 17.1 0 1 851.10 152.53
  Q 856.79 155.44 863.08 156.85
  C 874.93 159.50 884.33 155.18 886.18 142.11
  Q 887.09 135.71 886.71 128.53
  Z
  M 869.82 75.61
  C 853.67 77.20 855.14 104.76 857.19 115.13
  C 858.96 124.15 863.98 130.84 874.19 129.19
  C 888.89 126.81 887.94 102.36 886.35 91.75
  C 885.06 83.10 879.88 74.62 869.82 75.61
  Z"
/>
<path fill="#333232" d="
  M 958.24 109.99
  C 948.89 103.21 934.55 101.40 934.82 86.56
  Q 934.97 78.63 939.93 73.91
  C 947.40 66.78 957.05 67.22 966.58 69.99
  Q 967.00 70.11 966.95 70.54
  L 966.07 78.16
  Q 966.03 78.53 965.69 78.38
  Q 962.04 76.67 957.87 75.88
  C 949.88 74.36 943.00 78.65 943.35 87.15
  C 943.53 91.39 946.61 93.89 950.23 95.75
  Q 958.36 99.95 963.89 103.72
  Q 970.07 107.93 970.68 115.24
  C 971.79 128.43 963.46 136.92 950.55 136.91
  Q 942.14 136.90 935.08 134.26
  Q 933.92 133.83 934.05 132.60
  L 934.75 125.93
  A 0.78 0.78 0.0 0 1 935.90 125.33
  C 943.88 129.72 955.91 132.65 961.11 122.96
  C 963.46 118.57 962.37 112.98 958.24 109.99
  Z"
/>
<path fill="#333232" d="
  M 1066.95 136.58
  C 1052.07 134.73 1044.27 120.40 1043.52 106.65
  C 1043.03 97.61 1043.92 88.39 1048.33 80.65
  C 1055.47 68.11 1070.01 65.63 1082.88 70.10
  A 1.18 1.17 11.1 0 1 1083.68 71.28
  L 1083.29 78.52
  Q 1083.22 79.81 1082.18 79.03
  C 1079.00 76.62 1074.95 76.21 1071.03 76.18
  C 1061.04 76.09 1054.42 83.08 1052.67 92.36
  Q 1050.86 101.96 1053.09 111.86
  C 1056.39 126.51 1070.03 133.69 1083.59 125.69
  A 0.05 0.04 71.2 0 1 1083.66 125.73
  Q 1084.30 131.45 1084.02 134.60
  Q 1084.01 134.73 1083.88 134.77
  Q 1075.29 137.62 1066.95 136.58
  Z"
/>
<path fill="#333232" d="
  M 1128.00 116.99
  L 1128.00 118.50
  C 1126.99 131.12 1118.19 137.46 1106.08 136.90
  Q 1097.80 136.52 1091.25 133.90
  A 0.47 0.47 0.0 0 1 1090.96 133.39
  Q 1091.64 129.23 1091.98 125.15
  A 0.17 0.17 0.0 0 1 1092.23 125.01
  C 1100.31 129.38 1112.71 132.95 1118.04 123.29
  C 1122.27 115.63 1116.83 109.93 1110.25 106.80
  Q 1103.91 103.79 1098.51 100.17
  Q 1093.07 96.52 1092.12 90.05
  C 1090.96 82.08 1094.01 74.73 1101.14 70.83
  C 1108.14 66.99 1115.58 67.75 1123.27 69.82
  Q 1124.21 70.08 1124.07 71.04
  L 1123.11 77.55
  Q 1122.96 78.59 1122.01 78.14
  C 1114.97 74.81 1105.66 73.52 1101.49 81.56
  C 1098.89 86.56 1100.57 91.92 1105.52 94.67
  Q 1112.63 98.60 1119.12 102.36
  Q 1127.66 107.32 1128.00 116.99
  Z"
/>
<rect fill="#333232" x="912.01" y="68.99" width="7.98" height="67.14" rx="0.73"/>
<rect fill="#333232" x="1020.76" y="69.01" width="8.00" height="67.14" rx="0.66"/>
<path fill="#fdfeff" d="
  M 805.94 76.82
  C 813.81 73.41 822.09 76.70 825.63 84.67
  Q 827.60 89.11 828.19 93.92
  C 829.62 105.52 829.64 128.21 813.04 129.42
  C 801.98 130.23 797.07 120.38 795.99 111.08
  C 794.85 101.23 794.50 81.79 805.94 76.82
  Z"
/>
<path fill="#fdfeff" d="
  M 857.19 115.13
  C 855.14 104.76 853.67 77.20 869.82 75.61
  C 879.88 74.62 885.06 83.10 886.35 91.75
  C 887.94 102.36 888.89 126.81 874.19 129.19
  C 863.98 130.84 858.96 124.15 857.19 115.13
  Z"
/>
<path fill="#ddd8d5" d="
  M 150.44 191.00
  L 124.63 191.00
  Q 123.47 190.67 123.93 190.20
  Q 126.30 187.78 128.47 185.38
  Q 155.63 155.37 179.88 128.73
  Q 187.42 120.45 196.45 115.49
  C 203.41 111.66 211.64 110.95 219.60 110.96
  Q 283.56 111.06 347.27 110.96
  Q 347.66 110.96 347.86 111.40
  A 0.58 0.58 0.0 0 1 347.80 111.95
  Q 343.26 118.50 338.95 124.93
  Q 333.68 132.78 326.22 135.57
  Q 322.17 137.09 314.79 137.04
  Q 245.34 136.65 210.92 137.17
  Q 199.22 137.35 190.83 147.07
  Q 179.59 160.10 150.44 191.00
  Z"
/>
</svg>
