<?xml version="1.0" encoding="UTF-8"?>
<!DOCTYPE svg PUBLIC "-//W3C//DTD SVG 1.1//EN" "http://www.w3.org/Graphics/SVG/1.1/DTD/svg11.dtd">
<!-- Creator: CorelDRAW -->
<svg xmlns="http://www.w3.org/2000/svg" xml:space="preserve" width="299mm" height="83.989mm" version="1.1" style="shape-rendering:geometricPrecision; text-rendering:geometricPrecision; image-rendering:optimizeQuality; fill-rule:evenodd; clip-rule:evenodd"
viewBox="0 0 29900 8398.9"
 xmlns:xlink="http://www.w3.org/1999/xlink"
 xmlns:xodm="http://www.corel.com/coreldraw/odm/2003">
 <defs>
  <style type="text/css">
   <![CDATA[
    .fil3 {fill:black}
    .fil0 {fill:#D92928}
    .fil2 {fill:#F57C3E}
    .fil1 {fill:#F89942}
   ]]>
  </style>
 </defs>
 <g id="Camada_x0020_1">
  <metadata id="CorelCorpID_0Corel-Layer"/>
  <g id="_1687697417872">
   <path class="fil0" d="M18531.52 2886.39c-258.74,0 -337.91,75.59 -451.21,344.66 -178.2,423.21 -266.36,1174.01 -332.57,1657.1 -21.19,154.64 -29.03,260.77 -29.03,419.71 0,163.51 93.84,169.33 254,169.33 224.85,0 574.01,-107.93 795.84,-169.36 32.85,-9.1 82.38,-20.54 110.1,-33.84 0,45.19 -0.15,90.39 0.11,135.58 0.33,56.99 -8.3,76.85 -8.91,126.55 -0.56,44.87 0.19,90.85 0.36,135.83l-16.51 406.83c-6.8,83.88 35.23,113.71 -102.05,177.35 -197.51,91.56 -443.09,130.61 -666.24,163.49 -237.53,35 -532.06,42.08 -772.92,22.59 -221.67,-17.93 -591.48,-176.8 -705.87,-403.26 -173.44,-343.38 -80.81,-830.14 -47.07,-1187.52 9.22,-97.66 26.54,-213.53 39.01,-308.12 164.1,-1244.46 277.44,-2655.99 1856.76,-2655.99 234.67,0 511.34,51.13 731.61,106.58l216.65 62.75 -51.51 422.62c-15.9,139.11 -34.36,277.62 -52.62,421.52 -1.47,11.57 -3.04,35.94 -5.65,54.22 -6.23,43.68 9.82,34.07 -119.52,8.28 -190.58,-38 -442.23,-76.9 -642.76,-76.9zm-3462.88 5401.74l166.83 -197.24c18.48,-21.97 21.01,-29.06 42.6,-50.53 137.93,-137.24 293.09,-279.8 458.95,-379.25 38.3,-22.96 71.72,-47.12 114.1,-72.17 313.36,-185.23 773.46,-333.74 1147.93,-333.74 258.16,0 311.71,-5.21 577.23,32.36 563.33,79.73 1168.38,321.77 1500.56,802.38 34.63,50.09 127.2,199.67 132.01,257.46l16.93 0c0,-49.48 12.68,-98.87 21.84,-147.5l189.83 -1046.3c96.32,-586.05 225.43,-1199.55 322.87,-1785.34l108.2 -594.54c115.01,-577.48 207.3,-1203.1 323.2,-1785 38.87,-195.17 69.34,-401.9 107.15,-595.58l160.87 -889c37.27,-190.46 53.01,-188.26 -6.25,-277.26 -53.85,-80.86 -127.27,-164.75 -192.72,-239.08 -65.47,-74.35 -250.56,-227.76 -333.84,-284.23 -70.52,-47.81 -141.83,-95.02 -221.38,-134.22 -198.91,-98 -261.64,-130.67 -502.16,-200.57 -443.09,-128.77 -1057.21,-117.3 -1501.62,-5.47 -92.14,23.19 -181.09,46.43 -267.35,79.78 -206.79,79.94 -282.68,111.34 -474.14,228.59 -73.75,45.17 -142.67,95.77 -207.88,147.73 -136.95,109.11 -329.24,297.72 -418.93,453.13 -26.76,46.35 -78.61,381.28 -89.09,444.31 -15.9,95.6 -34.43,193.99 -53.24,293.9 -19.51,103.69 -34.66,205.53 -53.51,302.08 -151.24,774.59 -281.29,1608.69 -429.09,2390.33 -128.96,682.05 -248.54,1392.9 -372.54,2082.79 -18.5,102.92 -38.32,203.42 -54.55,301.05 -33.5,201.37 -69.87,393.62 -106.32,596.42 -18.51,102.99 -38.14,203.32 -54.58,301.02 -9.08,53.92 -18.1,100.11 -26.51,151.29 -7.42,45.14 -24.38,106.55 -25.4,152.4z"/>
   <path class="fil1" d="M26583.33 2386.85c26.72,-6.22 192.96,-126.3 273.65,-166.61 300.13,-149.92 687.77,-299.05 1030.22,-299.05 217.69,0 408.68,-16.49 539.36,197.23 156.9,256.61 104.39,803.23 67.78,1095.71 -71.97,574.98 -200.01,1219.25 -296.29,1803.44 -24.12,146.32 -50.89,297.04 -76.19,448.75l-150 899.87c-397.23,0 -824.36,16.94 -1219.2,16.94l37.38 -208.16c14.69,-72.68 27.93,-133 39.96,-205.57 22.03,-132.9 52.31,-272.62 80,-411.07 55.66,-278.27 103.8,-544.4 159.46,-822.68l238.42 -1234.78c13.43,-72.14 24.29,-138.81 36.22,-209.31 58.67,-346.82 36.65,-354.37 -218.9,-354.37 -79.6,0 -174.85,23.46 -237.1,42.3 -112.71,34.11 -194.76,80.7 -282.07,149.73 -47.02,37.17 -42.06,18.01 -53.08,90.86l-126.87 728.26c-94.84,570.24 -204.34,1143.62 -297.54,1709.07 -31.14,188.97 -94.96,586.3 -129.41,734.18 -109.66,0 -187.51,-8.47 -296.34,-8.46 -101.59,0 -203.24,-0.35 -304.82,0.02 -61.5,0.23 -92.1,-8.19 -143.57,-8.83l-457.54 0.34c11.96,-24.92 42.69,-221.94 49.69,-263.57l332.04 -1869.3c65.66,-329.26 128.81,-728.34 190.42,-1071.12 32.42,-180.32 65.86,-359.17 94.3,-532.23l95.55 -539.45c321,-74.79 721.47,-137.14 1041.4,-211.67 0,92.18 -8.95,162.73 -8.52,245.48l-8.41 254.05zm-2616.21 5901.28c27.68,-7.39 28.76,-21.74 42.53,-42.14l82.35 -103.91c81.29,-85.3 110.13,-132.6 228.67,-237 114.88,-101.17 301.25,-241.51 431.24,-313.83 347.12,-193.13 749.45,-336.05 1154.08,-336.05 257.51,0 304,-4.57 568.74,32.39 111.68,15.6 225.78,34.77 327.08,62.39 336.48,91.74 524,171.56 795.99,355.48 23.39,15.82 31.76,25.23 52.24,40.89l158.84 137.49c34.12,34.04 61.21,64.97 92.72,102.02 30.33,35.65 57.44,71.14 83.86,110.87 34.81,52.36 80.59,125.49 103.83,184.05 10.91,27.5 14.66,51.74 34.97,66.62 34.95,-149.99 73.78,-420.14 107.89,-594.85 39.34,-201.54 70.3,-390.91 107.35,-595.38 36.52,-201.53 69.61,-393.9 108.68,-594.06l942.64 -5204.42c18.05,-94.54 -12.39,-103.98 -100.55,-222.51l-80.22 -97.58c-94.83,-107.68 -257.3,-252.65 -372.81,-329.93 -73.38,-49.08 -139.85,-92.02 -219.2,-136.4 -308.89,-172.78 -768.8,-293.62 -1120.31,-293.62 -352.96,0 -388.6,-6.2 -736.6,50.8 -53.13,8.7 -100.17,21.93 -146.13,31.67 -97.86,20.74 -179.51,50.27 -267.67,79.47l-252.35 103.25c-104.28,52.17 -238.42,125.3 -330.54,194.39 -209.72,157.29 -378.4,303.98 -526.05,532.29 -29.58,45.75 -76.48,372.04 -89.5,443.89l-642.21 3582.67c-16.31,93.84 -38.42,206.66 -54.63,300.97l-484.93 2690.08z"/>
   <path class="fil2" d="M20571.99 5240.13c0,-566.71 43.51,-826.98 134.27,-1372.8 67.56,-406.28 232.68,-1174.42 566.47,-1507.87 44.93,-44.88 8.27,-24.8 79.44,-81.42 16.48,-13.12 23.28,-23.1 39.05,-37.16l141.07 -104.46c320.88,-196.37 675.28,-249.1 1071.7,-249.1 529.48,0 1137.27,74.42 1366.14,521.92 213.93,418.28 84.73,1177.25 19.85,1626.08 -20.44,141.4 -44.41,284.74 -68.81,430.71 -62.87,376.03 -121.4,643.14 -249.3,995.31 -98.15,270.23 -293.19,556.59 -541.28,711.78 -94.84,59.33 -227.14,125.59 -342.1,157.44 -359.71,99.66 -352.97,60.16 -651.41,93.66 -89.47,10.05 -160.62,-7.89 -244.25,-7.27 -282.71,2.09 -583.63,-63.43 -818.59,-180.47 -39.22,-19.54 -118.9,-69.93 -148.71,-96.83 -48.81,-44.05 -85.15,-76.01 -126.35,-127.65 -162.86,-204.11 -227.19,-510.65 -227.19,-771.87zm-1049.87 3048c23.39,-17.14 55.57,-71.72 78.78,-99.02 78.51,-92.34 175.5,-209.96 273.24,-285.55l205.56 -166.98c121.94,-91.61 322.57,-212.38 465.67,-270.94 444.65,-181.95 648.23,-210.44 1127.28,-210.44 513.92,0 1254.18,214.05 1636.36,581.91 196.83,189.45 252.27,281.61 352.87,502.27 7.63,16.75 2.38,7.08 8.91,16.48 37.89,-162.61 74.11,-422.23 107.89,-594.84 93.5,-477.82 182.2,-997.22 269.53,-1483.07 18.84,-104.82 37.78,-200.23 54.38,-301.22 127.07,-773.12 304.71,-1614.37 431.8,-2387.61 16.23,-98.75 35.61,-192.1 53.13,-294.01l351.04 -1935.09c16.85,-91.37 -8.68,-101.62 -100.52,-225.09l-166.75 -188.84c-70.04,-58.08 -106.32,-103.25 -185.25,-161.89 -36.6,-27.19 -64.98,-49.85 -102.37,-75.43 -377.04,-258.07 -865.52,-430.12 -1339.41,-430.12 -461.7,0 -710.03,12.12 -1156.85,163.95 -46.89,15.93 -82.37,32.16 -127.69,50.11 -169.82,67.27 -305.25,149.38 -452.81,249.93 -163.3,111.28 -432.86,366.96 -520.72,529.15 -31.94,58.98 -223.04,1176.72 -249.21,1334.06 -16.24,97.63 -36.05,198.13 -54.55,301.05l-321.73 1794.94c-123.17,685.25 -244.67,1403.25 -372.55,2082.79 -26.85,142.68 -266.03,1452.98 -266.03,1503.5z"/>
   <path class="fil0" d="M10073.3 2285.25zm0 0zm0 0l39.94 -273.33c16.11,-95.74 28.22,-186.99 43.48,-278.25 31.14,-186.23 60.76,-365.56 88.37,-555.1l175.35 -1111.59c-68.15,0 -857.59,106.41 -957.45,117.82 -305.71,34.96 -230.4,-21.98 -284.97,256.9 -30.35,155.07 -55.05,301.6 -83.27,458.6 -110.6,615.28 -218.24,1214.46 -328.9,1830.11l-330.18 1828.81c-57.79,307.06 -105.15,612.33 -163.59,911.69l-163.05 920.68 1160.44 0.5c43.57,0.74 53.41,8.03 65.73,-18.93 4.82,-10.56 19.71,-107.53 23.27,-129.13 8.67,-52.55 15.53,-84.12 24.19,-136.68 101.54,-615.81 228.25,-1244.37 330.2,-1862.67 30.15,-182.83 64.2,-349.35 94.35,-532.18 28.44,-172.48 60.41,-367.65 114.77,-511.77 63.95,-169.55 170.76,-219.19 373.68,-244.38 328.75,-40.81 353.09,-45.26 328.71,244.04 -26.15,310.35 -125.5,748.43 -180.86,1072.21 -13.87,81.14 -31.73,177.85 -49.12,264.14l-293.51 1586.1c-8.9,45.6 -14.7,82.41 -24.06,128.34 -9.42,46.25 -20.45,90.62 -20.45,140.41l1227.67 0 404.09 -2339.11c85.69,-492.9 227.78,-1149.02 170.27,-1621.92 -32.94,-270.84 -150.52,-437.04 -397.54,-516.87 -239.89,-77.52 -588.31,-15.1 -791.91,52.81 -151.82,50.64 -327.14,139.17 -458.51,227.29l-137.14 91.46z"/>
   <path class="fil0" d="M14035.71 2886.39c100.02,0 171.46,16.08 237.07,50.8 0,69.47 -35.5,301.02 -47.23,384.57 -58.81,418.86 -154.89,1081.24 -249.11,1478.1 -26.47,111.5 -47.5,247.1 -84.57,347.22 -38.96,105.22 -86.88,197.62 -197.7,234.11 -112.89,37.16 -276.08,34.35 -370.06,-13.66 -241.96,-123.62 -82.25,-768.94 -25.71,-1050.98 23.54,-117.42 51.99,-243.86 68.04,-363.76 22.73,-169.77 88.42,-604.06 130.47,-733.14 40.11,-123.15 77.55,-191.4 176.25,-255.54 74.15,-48.18 240.22,-77.72 362.55,-77.72zm-2082.81 2573.87c0,44.93 1.7,71.35 6.16,103.91 5.24,38.26 -0.65,77.03 3.55,114.99 77.61,702.74 323.62,788.63 980.9,788.63 339.28,0 627.87,-189.59 869.57,-391.96 35.81,-29.98 58.29,-65.63 95.63,-90.64 0,58.62 13.61,138.01 21.82,198.31 8.62,63.22 20.51,138.96 20.51,199.63l956.74 8.46c33.93,-145.65 143.13,-841.66 170.52,-1006.34 56.14,-337.53 113.44,-672.35 170.55,-1014.79 12.79,-76.7 336.26,-1941.71 336.26,-2025.94l-307.62 -158.04c-104.9,-52.45 -206.24,-102.34 -322.08,-143.6 -295.24,-105.14 -466.29,-164.03 -835.03,-164.03 -483.87,0 -872.05,69.33 -1156.38,274.49 -140.42,101.32 -251.06,228.22 -347.3,372.37 -25.06,37.54 -46.9,69.21 -68.32,109.49 -55.69,104.73 -68.97,124.93 -116.51,239.08 -74.76,179.52 -132.89,347.06 -182.68,536.99 -13.24,50.51 -26.88,93.04 -38.71,147.56 -110.8,510.41 -139.39,717.85 -210.49,1228.85 -7.83,56.26 -8.71,104.06 -16.84,160.95l-30.25 511.63z"/>
   <path class="fil0" d="M4646.16 3792.32l38.67 -283.06c31.45,-214.21 85.9,-648.27 342.33,-648.27 198.33,0 397.93,16.59 397.93,270.93 0,134.92 -7.75,204.87 -94.24,320.62 -123.93,165.86 -344.91,134.74 -573.09,273.58 -18.96,11.54 -35.94,21.52 -52.88,31.79 -9.32,5.65 -17.14,10.81 -25.82,16.52 -21.57,14.18 -4.94,10.43 -32.9,17.89zm-1405.47 1617.14c0,209.18 31.75,487.68 137.03,650.37 61.11,94.44 43.45,67.09 119.07,143.4 319.43,322.34 1029.21,275.82 1449.43,209.02 315.65,-50.18 619.32,-134.71 893.74,-283.12 56.54,-30.58 218.04,-137.05 228.6,-177.8 -2.98,-35.9 -16.83,-81.92 -23.28,-112.19 -8.98,-42.12 -15.5,-68.21 -23.97,-111.49 -15.44,-78.86 -32.68,-145.06 -48.05,-222.89l-99.43 -450.9c-266.45,178.42 -917.72,414.87 -1270,414.87 -195.5,0 -211.67,-162.6 -211.67,-355.6 0,-113.09 23.35,-272.28 59.27,-347.14 27.67,-13.28 157.14,-35.06 201.15,-44.38 58.42,-12.37 140.44,-30.84 197.81,-47.72 215.66,-63.46 504.51,-180.74 707.39,-274.75l455.21 -281.39c139.07,-108.19 252.06,-245.84 337.68,-398.92 157.93,-282.33 288.9,-848.63 115.97,-1196.65 -27.97,-56.28 -51.6,-105.75 -89.58,-155.96 -19.12,-25.27 -31.15,-44.52 -52.21,-66.32 -199.74,-206.84 -402.42,-316.77 -734.03,-383.57 -416.09,-83.81 -875.66,-60.57 -1240.66,149.12 -613.39,352.4 -866.59,1277.17 -965.09,1998.25 -20,146.36 -40.37,286.48 -62.25,437.29 -40.39,278.35 -82.13,624.82 -82.13,908.47z"/>
   <path class="fil0" d="M1073.22 422.58c-2.94,35.38 -12.73,76.55 -19.33,116.13l-137.48 845.66c-15.39,83.69 -1.05,62.68 207.61,62.68 93.13,0 186.27,0 279.4,0 101.72,0 171.07,8.49 270.94,8.47 93.13,-0.03 186.26,0 279.4,0l-803.15 4742.53c-8.42,50.71 -22.63,112.16 -26.59,159.68 148.81,0 278.77,6.23 432.14,8.13l640.82 19.58c141.93,19.5 125.81,8.23 137.82,-70.01 19,-123.85 47.31,-248.6 67.69,-372.57 79.39,-483.03 191.54,-1007.11 270.93,-1490.14 79.41,-483.11 191.13,-1006.51 270.99,-1490.08l270.88 -1498.66c139.23,-11.58 240.25,-9.16 381.11,-8.35 57,0.33 76.85,-8.3 126.55,-8.92 87.12,-1.07 175.53,0.29 262.81,0.34 96.29,0.06 163.26,-8.47 262.47,-8.47 0,-42.32 11.68,-84.2 17.39,-126.54 20.21,-150.01 143.47,-836.53 143.47,-923.32 -138,0 -260.88,8.46 -406.4,8.46 -971.99,0 -1964.08,25.4 -2929.47,25.4z"/>
   <path class="fil0" d="M6314.1 6391.59l1176.86 0c4.88,-58.56 23.77,-133.95 33.82,-194.79 74.49,-451.07 174.03,-947.17 251.73,-1399.27l857.46 -4789.81 -1212.76 141.91c-37.79,9.34 -27.49,2.38 -43.9,91.56l-101.58 584.22c-15.18,80.29 -27.19,153.08 -39.99,230.95 -188.84,1149.31 -413.21,2324.49 -604.76,3476.18 -51.92,312.18 -104.64,612.3 -160.91,922.83 -17.18,94.79 -155.97,858.13 -155.97,936.22z"/>
   <path class="fil2" d="M21748.85 5113.13c0,135.48 41.32,229.4 166.83,273.44 100.66,35.32 280.2,33.82 392.18,14.63 126.05,-21.6 212.71,-76.73 274.32,-165.95 108.89,-157.7 163.97,-491.61 190.69,-689.85l116.5 -764.03c30.7,-184.74 109.22,-623.75 -46.05,-761.78 -103.71,-92.18 -245.86,-82.4 -383.27,-82.4 -452.07,0 -482.36,555.79 -531.93,907.39 -29.94,212.28 -59.49,422.42 -93.41,626.27 -28.41,170.72 -85.86,478.03 -85.86,642.28z"/>
   <path class="fil3" d="M954.69 8245.8c202.33,0 152.1,39.79 169.89,-194.18 8.3,-109.18 24.84,-221.37 24.84,-339.22l8.47 0c0,79.57 47.41,206.46 65.95,272.71 13.32,47.6 24.8,83.88 38.68,130.65 11.02,37.1 25.91,102.12 39.3,130.04l110.07 0 143.93 -533.4c0,48.49 18.04,436.49 34.09,507.78 8.07,35.84 19.53,26.94 67.01,26.12 31.27,-0.55 62.36,-0.5 93.64,-0.5 -5.33,-64.05 -18.54,-132.77 -26.95,-201.65l-54.06 -411.61c-9.68,-70.03 -14.77,-146.68 -29.06,-208.01l-143.93 0c-0.84,37.57 -55.75,219.88 -69.57,269.1 -17.71,63.02 -65.9,220.37 -65.9,281.23l-16.94 0c0,-43.43 -17.53,-99.97 -28.97,-140.36l-123.43 -409.97c-173.32,0 -133.09,-76.89 -179.3,345.63 -7.93,72.57 -18.05,154.88 -28.79,233.68 -10.99,80.65 -22.76,167.36 -28.97,241.96z"/>
   <path class="fil3" d="M9370.57 7670.06l2.52 2.53c-0.16,-0.17 -3.36,-1.69 -2.52,-2.53zm-135.47 -220.13l0 770.47c0,40.43 56.69,25.4 160.87,25.4l-16.94 -550.34 124.56 281.85c20.86,48.89 44.96,87.38 67.4,135.8 71.82,155 21.72,132.69 214.44,132.69l0 -821.27c-215.15,0 -169.33,-52.84 -169.33,245.53 0,119.01 17.74,204.32 25.4,296.34 -20.79,-23.92 -17.31,-36.35 -31.4,-70.2 -10.28,-24.66 -19.16,-46.2 -30.71,-70.89l-129.74 -276.67c-74.95,-148.69 -30.53,-124.11 -189.15,-124.11 -19.51,0 -25.4,5.89 -25.4,25.4z"/>
   <path class="fil3" d="M6568.1 8135.73l-59.27 0 0 -609.6c137.88,0 228.6,27.1 228.6,245.53 0,94.34 11.35,229.6 -37.1,301.57 -23.43,34.81 -78.69,62.5 -132.23,62.5zm-220.14 110.07c353.6,0 567.27,-2.39 567.27,-397.94 0,-48.92 -7.5,-130.76 -15.83,-170.43 -11.75,-55.97 -25.7,-92.36 -53.33,-132.94 -103.14,-151.43 -299.79,-119.96 -498.11,-119.96l0 821.27z"/>
   <path class="fil3" d="M8794.83 7517.66c140.7,0 127,225.98 127,355.6 0,204.93 -23.67,270.94 -152.4,270.94 -103.71,0 -107.99,-140.02 -109.9,-220.3 -0.95,-39.95 -11.24,-57.97 -8.96,-101.19l19.11 -201.6c15.56,-65.72 40.61,-103.45 125.15,-103.45zm-313.26 287.87c0,287.11 51.91,448.73 321.73,448.73 284.05,0 287.87,-246.95 287.87,-457.2 0,-181.61 -48.68,-381 -262.47,-381 -117.19,0 -221.69,-5.45 -293.08,113.32 -35.95,59.82 -54.05,182.16 -54.05,276.15z"/>
   <path class="fil3" d="M13883.31 8144.2c-108.93,0 -152.4,-35 -152.4,-211.67 0,-164.56 -34.8,-414.87 127,-414.87 163,0 135.46,235.38 135.46,397.94 0,98.88 -14.58,228.6 -110.06,228.6zm-330.2 -330.2c0,248.01 43.46,440.26 321.73,440.26 303.81,0 287.87,-270.84 287.87,-482.6 0,-176.33 -59.83,-355.6 -262.47,-355.6 -189.52,0 -288.97,19.47 -332.67,243.07 -5.36,27.44 -14.46,119.93 -14.46,154.87z"/>
   <path class="fil3" d="M3731.76 7780.13l-42.33 0 0 -262.47c158.86,0 152.4,75.15 152.4,169.34 0,59.27 -48.84,93.13 -110.07,93.13zm-211.67 -330.2l0 770.47c0,41.1 61.6,25.4 169.34,25.4l0 -381 203.2 381 160.86 0c-14.2,-60.98 -193.41,-355.92 -203.2,-397.94 64.59,-30.99 152.4,-34.27 152.4,-220.13 0,-243.66 -281.47,-203.2 -457.2,-203.2 -19.51,0 -25.4,5.89 -25.4,25.4z"/>
   <path class="fil3" d="M11250.17 7780.13l-42.33 0 0 -262.47c28.41,0 87.06,10.01 106.44,20.56 60.83,33.12 89.11,241.91 -64.11,241.91zm-211.67 -330.2l0 770.47c0,41.1 61.61,25.4 169.34,25.4l0 -372.54c18.68,13.69 88.73,151.61 104.45,183.42 18.59,37.59 31.2,58.51 50.66,93.27 18.56,33.17 31.36,64.23 48.09,95.85l160.86 0c-10.06,-43.19 -73.85,-148.74 -98.65,-197.68 -18.68,-36.88 -35.62,-62.09 -53.69,-98.71 -16.8,-34.07 -42.25,-64.62 -50.86,-101.55 64.59,-30.99 152.4,-34.27 152.4,-220.13 0,-243.66 -281.47,-203.2 -457.2,-203.2 -19.51,0 -25.4,5.89 -25.4,25.4z"/>
   <path class="fil3" d="M11665.04 7449.93l0 508c0,210.63 48.58,296.33 279.4,296.33 148.41,0 262.47,-47.7 262.47,-211.66l0 -618.07 -160.87 0 0 609.6c0,93.72 -30.44,110.07 -118.54,110.07 -98.86,0 -101.6,-74.56 -101.6,-177.8l0 -541.87c-104.18,0 -160.86,-15.03 -160.86,25.4z"/>
   <path class="fil3" d="M13189.04 7627.73c3.44,41.34 65.96,325.07 84.67,364.07l-177.8 0c17.53,-36.55 38.16,-135.95 49.09,-179.51l44.04 -184.56zm-313.27 618.07l152.4 0c8.11,-16.89 40.37,-137.25 42.34,-160.87l228.6 0c2.5,30.12 12.15,48.65 20.35,81.25 8.07,32.08 15.56,52.06 21.98,79.62l160.87 0 -123.97 -409.44c-15.26,-51.41 -118.18,-371.15 -121.57,-411.83l-135.46 0c-5.14,61.75 -240.87,765.23 -245.54,821.27z"/>
   <path class="fil3" d="M4730.83 7627.73c4.5,54.11 67.21,327.7 84.66,364.07l-177.8 0c17.54,-36.55 38.16,-135.95 49.1,-179.51l44.04 -184.56zm-313.27 618.07l152.4 0c8.1,-16.89 40.37,-137.25 42.33,-160.87l228.6 0 42.34 160.87 160.86 0 -123.96 -409.44c-15.26,-51.41 -118.18,-371.15 -121.57,-411.83l-135.47 0c-5.6,67.31 -240.61,762.16 -245.53,821.27z"/>
   <path class="fil3" d="M2097.69 7627.73c14.12,60.63 21.45,120.32 37.2,182.93 15.95,63.39 33.95,123.13 47.47,181.14l-177.8 0 88.4 -351.87c0.55,-1.77 1.83,-4.76 2.3,-6.17 0.46,-1.39 1.27,-4.2 2.43,-6.03zm-313.27 618.07l152.4 0c10.19,-21.23 39.91,-131.66 42.34,-160.87l228.6 0c12.98,55.74 29.59,106.17 42.33,160.87l160.87 0 -60.27 -202.2c-21.09,-66.2 -39.83,-137 -63.46,-207.47 -22.99,-68.54 -39.7,-136.86 -61.43,-201.04l-60.38 -210.56 -135.46 0c-0.81,36.13 -108.69,372.39 -121.63,411.77l-93.61 304.32c-10.4,36.64 -27.27,68.81 -30.3,105.18z"/>
   <path class="fil3" d="M7059.16 8245.8l397.94 0c32.92,0 25.4,-21.72 25.4,-76.2 0,-19.51 -5.89,-25.4 -25.4,-25.4l-237.07 0 0 -270.94 228.6 0 0 -101.6 -228.6 0 0 -245.53 237.07 0c32.92,0 25.4,-21.72 25.4,-76.2 0,-19.51 -5.89,-25.4 -25.4,-25.4l-397.94 0 0 821.27z"/>
   <path class="fil3" d="M2969.76 8245.8l397.93 0c32.92,0 25.4,-21.72 25.4,-76.2 0,-19.51 -5.89,-25.4 -25.4,-25.4l-237.07 0 0 -270.94 228.6 0 0 -101.6 -228.6 0 0 -245.53 237.07 0c32.92,0 25.4,-21.72 25.4,-76.2 0,-19.51 -5.89,-25.4 -25.4,-25.4l-397.93 0 0 821.27z"/>
   <path class="fil3" d="M12350.84 7839.4c0,202.56 72.44,359.58 237.07,397.93 -26.81,50.66 -57.29,92.18 -84.67,143.93 18.38,8.82 52.22,23.41 76.2,25.4 23.47,-35.05 30.56,-43.75 61.37,-74.09 32.35,-31.85 40.81,-41.24 65.63,-78.31 70.61,0 82.38,-13.03 135.47,-25.4l0 -101.6c-144.39,3.22 -313.27,82.29 -313.27,-330.2 0,-81.32 24.32,-195.05 83,-238.73 109.37,-81.39 230.27,18.34 230.27,-40.67 0,-99.46 4.52,-101.6 -186.27,-101.6 -103.76,0 -193.14,62.38 -233.7,130.37 -48.84,81.86 -71.1,194.83 -71.1,292.97z"/>
   <path class="fil3" d="M9920.9 7602.33l0 42.33c0,177.74 321.74,239.47 321.74,389.47 0,31.31 -16.2,66.74 -36.82,81.72 -88.53,64.32 -199.25,-1.92 -251.05,-13.99l0 110.07c188.78,99.89 448.73,17.72 448.73,-177.8 0,-109.09 -75.16,-166.31 -140.22,-215.38l-153.55 -117.38c-51.86,-51.99 -41.54,-183.71 99.04,-183.71 65.33,0 88.27,22.87 135.47,33.87l0 -110.07c-92.14,-44.21 -274.24,-36.68 -353.38,27.63 -35.43,28.78 -69.96,72.53 -69.96,133.24z"/>
   <path class="fil3" d="M5425.09 7610.8c0,158.87 111.63,195.36 252.96,305.84 126.48,98.88 64.92,227.56 -58.22,227.56 -66.02,0 -108.18,-30.06 -160.87,-42.34l0 110.07c182.43,96.53 448.74,23.95 448.74,-177.8 0,-224.36 -321.74,-256.38 -321.74,-414.87 0,-67.26 67.58,-101.6 135.47,-101.6 53.85,0 86.24,24.37 127,33.87l0 -110.07c-106.81,-51.25 -423.34,-46.47 -423.34,169.34z"/>
   <path class="fil3" d="M7905.83 7839.4c0,434.38 343.87,456.03 482.6,389.46l0 -101.6 -127 8.47c-220.3,0 -197.26,-400.03 -142.68,-515.22 46,-97.08 113.42,-94.38 185.02,-94.38 33.06,0 62.9,6.49 84.66,16.93l0 -110.06c-70.02,-5.83 -28.52,-16.94 -177.8,-16.94 -103.76,0 -193.13,62.38 -233.7,130.37 -24.54,41.12 -38.83,73.29 -50.71,127.08 -9.75,44.12 -20.39,118.43 -20.39,165.89z"/>
   <path class="fil3" d="M2377.09 7526.13l177.8 0 0 719.67 160.87 0 0 -719.67c203.56,0 177.8,19.62 177.8,-76.2 0,-19.51 -5.89,-25.4 -25.4,-25.4l-491.07 0 0 101.6z"/>
   <path class="fil3" d="M10454.3 7526.13l177.8 0 0 719.67c104.19,0 160.87,15.03 160.87,-25.4l0 -694.27 169.33 0 0 -101.6 -508 0 0 101.6z"/>
   <polygon class="fil3" points="5128.76,8245.8 5289.63,8245.8 5289.63,7424.53 5128.76,7424.53 "/>
   <polygon class="fil3" points="4172.03,8245.8 4332.89,8245.8 4332.89,7424.53 4172.03,7424.53 "/>
   <path class="fil3" d="M12994.31 7348.33l93.13 0c19.78,-74.1 82.9,-6.91 172.68,5.45 74.98,10.32 130.45,-40.62 132.12,-115.52l-101.6 0 0 25.4c-120.33,0 -103.05,-33.86 -194.73,-33.86 -60.11,0 -101.6,53.27 -101.6,118.53z"/>
  </g>
 </g>
</svg>
