<?xml version="1.0" encoding="UTF-8"?>
<!DOCTYPE svg PUBLIC "-//W3C//DTD SVG 1.1//EN" "http://www.w3.org/Graphics/SVG/1.1/DTD/svg11.dtd">
<!-- Creator: CorelDRAW -->
<svg xmlns="http://www.w3.org/2000/svg" xml:space="preserve" width="483mm" height="330mm" version="1.1" style="shape-rendering:geometricPrecision; text-rendering:geometricPrecision; image-rendering:optimizeQuality; fill-rule:evenodd; clip-rule:evenodd"
viewBox="0 0 48300 33000"
 xmlns:xlink="http://www.w3.org/1999/xlink"
 xmlns:xodm="http://www.corel.com/coreldraw/odm/2003">
 <defs>
  <style type="text/css">
   <![CDATA[
    .str2 {stroke:#5A6C83;stroke-width:0.76;stroke-miterlimit:10}
    .str3 {stroke:#828282;stroke-width:0.76;stroke-miterlimit:10}
    .str0 {stroke:#8D9EB6;stroke-width:0.76;stroke-miterlimit:10}
    .str4 {stroke:#8DC38D;stroke-width:0.76;stroke-miterlimit:10}
    .str1 {stroke:#CCCDCC;stroke-width:0.76;stroke-miterlimit:10}
    .fil0 {fill:none;fill-rule:nonzero}
    .fil5 {fill:#040505;fill-rule:nonzero}
    .fil1 {fill:#1A3D6C;fill-rule:nonzero}
    .fil4 {fill:#1A861A;fill-rule:nonzero}
    .fil2 {fill:#999A99;fill-rule:nonzero}
    .fil3 {fill:white;fill-rule:nonzero}
   ]]>
  </style>
 </defs>
 <g id="Camada_x0020_1">
  <metadata id="CorelCorpID_0Corel-Layer"/>
  <g id="_2351672146976">
   <path class="fil0 str0" d="M23938.01 11475.86c-88.19,-45.86 -185.91,-68.44 -189.79,-192.27 -4.94,-156.28 21.87,-348.19 -33.51,-498.12 -7.41,-20.81 -24.7,-36.33 -46.22,-41.27l-465.67 -112.19c-25.4,-6.35 -52.21,4.94 -65.61,27.52 -73.73,125.24 -141.82,254 -203.55,386.64 -23.64,49.75 -60.68,83.26 -111.84,99.84 -98.42,32.1 -165.45,30.69 -201.08,-4.23 -122.41,-120.3 -227.89,-293.87 -306.92,-436.39 -15.16,-27.52 -47.62,-39.86 -77.25,-29.99l-451.56 151.7c-44.8,15.17 -65.26,46.21 -61.38,93.13l40.57 488.25c1.41,16.58 -3.53,33.16 -13.76,46.21 -56.09,71.61 -129.47,117.48 -220.49,136.88 -13.76,2.82 -28.22,1.76 -41.63,-3.88l-441.32 -183.8c-41.28,-17.29 -89.25,-5.29 -117.83,29.63l-261.76 319.97c-30.69,37.75 -31.4,91.37 -1.76,129.83 84.66,109 168.62,217.66 252.23,326.67 85.02,110.42 5.29,277.99 -74.43,363.36 -8.82,9.52 -20.11,15.87 -32.81,17.99l-482.25 86.78c-48.33,8.82 -73.38,37.75 -75.14,87.14l-15.52 451.2c-1.06,26.11 15.52,50.1 40.57,58.56l427.21 144.64c26.46,9.18 43.75,27.17 51.51,53.98 35.98,124.18 121.7,296.68 -12.7,398.99 -118.89,90.31 -226.13,189.09 -322.44,296.69 -17.99,20.1 -22.23,49.38 -10.23,74.08l172.15 349.95c29.99,60.68 77.61,82.91 142.88,66.33 151.69,-37.75 291.39,-70.56 418.74,-98.78 111.48,-24.7 209.55,112.89 266.7,190.5 34.58,47.27 43.4,104.77 26.82,172.51 -34.93,141.46 -71.27,272.69 -109.01,393.7 -12.7,40.57 3.88,84.66 40.21,107.24 127.71,78.67 258.59,146.76 392.29,204.26 17.99,7.76 38.46,3.53 52.21,-10.23l360.9 -365.13c16.58,-16.93 40.57,-24.69 63.85,-20.46l261.05 47.63c31.05,5.64 56.45,27.52 66.33,57.5l162.27 484.72c11.29,33.86 34.93,50.45 70.91,50.09 151.34,-2.47 299.16,-14.81 443.44,-37.39 21.88,-3.53 39.87,-19.76 45.16,-41.28 35.63,-140.4 68.44,-291.04 97.72,-451.91 23.28,-125.23 147.11,-163.68 259.64,-199.31 51.51,-16.23 96.31,-7.77 137.59,25.04 117.47,93.14 233.89,186.97 349.25,281.17 34.92,28.57 84.66,28.92 120.29,1.41l321.74 -250.47c33.51,-26.11 45.86,-70.91 30.69,-110.42l-168.98 -437.1c-7.41,-19.75 -7.76,-40.92 -1.06,-60.67 23.28,-67.74 100.54,-225.43 187.68,-238.13 28.57,-3.88 56.8,-3.88 84.66,0 140.76,20.82 287.87,34.57 441.33,41.28 30.69,1.41 50.8,-12.35 61.03,-40.93l147.81 -419.45c15.88,-44.8 -0.7,-94.9 -39.86,-121.35 -113.24,-76.91 -226.84,-157.7 -341.14,-242.72 -44.09,-32.8 -86.07,-72.31 -80.78,-132.99 5.29,-65.97 14.46,-128.77 27.51,-189.09 3.18,-14.11 10.94,-24.34 23.99,-30.34l431.1 -211.67c13.4,-6.7 21.16,-17.28 23.28,-31.75 16.23,-111.83 10.23,-207.08 -17.64,-286.1 -26.46,-75.49 -47.62,-159.46 -63.14,-251.53 -4.94,-30.34 -32.11,-52.21 -62.8,-51.15 -78.32,2.82 -158.04,-1.77 -239.18,-14.11 -81.49,-12.35 -161.22,-11.65 -242.71,-10.23 -14.47,0.35 -28.58,-4.59 -39.87,-13.76 -117.47,-94.55 -151.34,-209.2 -70.55,-333.03 86.07,-131.93 156.28,-249.76 210.96,-353.48 5.64,-10.93 6,-21.87 1.06,-33.16 -61.03,-140.05 -209.55,-271.64 -322.09,-375.36 -40.92,-37.39 -101.25,-44.45 -149.58,-17.28l-426.15 239.18c-14.11,7.76 -28.23,8.12 -42.34,0.71z"/>
   <path class="fil0 str1" d="M12335.51 15279.86l21.51 364.77c0.72,15.17 13.06,26.81 28.22,26.81l730.25 -2.11c20.12,0 30.35,-10.23 30.71,-30.34l1.4 -906.99c0,-14.82 7.41,-22.23 22.23,-22.23 412.74,1.41 802.21,0.71 1168.75,-2.12 457.55,-3.17 848.07,-155.92 1172.28,-457.55 265.29,-247.3 422.98,-534.81 473.07,-862.54 27.52,-180.27 -27.16,-364.77 -13.4,-552.45 18.69,-247.65 -42.69,-483.66 -183.45,-708.38 -65.97,-104.77 -162.98,-183.44 -258.23,-266.34"/>
   <path class="fil0 str0" d="M15528.85 11860.39c-262.82,-363.72 -520,-639.94 -937.68,-801.52 -254,-98.07 -522.82,-115.35 -792.34,-115.35 -583.5,-0.36 -1111.97,-1.06 -1585.39,-2.47 -16.58,-0.36 -25.4,8.11 -26.46,24.69 -4.59,71.61 -7.05,140.05 -7.05,205.67 -1.07,1356.78 -1.07,2712.51 0.7,4066.82 0.36,31.05 15.87,46.22 46.92,45.16l107.96 -3.53"/>
   <path class="fil0 str2" d="M15528.85 11860.39c9.88,91.01 21.17,155.22 34.22,192.26 332.67,945.09 -162.28,1921.93 -1126.42,2193.92 -178.51,50.45 -414.16,74.44 -706.61,71.97 -297.04,-2.47 -595.85,-1.76 -896.77,2.47 -38.45,0.35 -57.49,19.76 -57.49,57.86l1.4 856.19c0,32.1 -16.23,48.33 -48.32,47.98l-393.35 -3.18"/>
   <path class="fil0 str1" d="M37520.66 12479.51c-25.75,-324.2 -165.8,-583.14 -420.15,-776.46"/>
   <path class="fil0 str0" d="M37100.51 11703.05c-57.51,-69.85 -115.01,-142.17 -173.22,-216.61 -74.08,-94.9 -135.11,-164.39 -183.09,-207.79 -218.72,-199.31 -479.78,-308.32 -783.17,-327.37 -246.94,-15.53 -644.52,-16.94 -1192.39,-4.59 -504.82,11.29 -882.65,227.19 -1133.12,648.05 -23.63,39.87 -43.39,81.14 -58.91,123.12 -38.1,102.31 -88.9,197.56 -99.84,306.92 -35.98,370.77 41.98,689.33 234.25,955.67 80.43,111.13 205.67,233.9 375.35,367.95"/>
   <path class="fil0 str1" d="M34086.37 13348.4c263.17,414.52 669.22,553.51 1145.12,554.22 463.9,0.7 832.55,-1.42 1106.31,-6"/>
   <path class="fil0 str0" d="M36337.8 13896.62c37.39,106.54 29.63,209.2 -22.93,307.97 -96.66,180.98 -258.59,272.35 -486.13,273.41 -302.68,1.41 -608.54,2.11 -917.22,2.11 -145.7,0 -288.93,-26.46 -421.22,-93.84 -126.64,-64.55 -196.14,-182.73 -209.19,-355.24 -1.06,-14.82 -13.41,-26.81 -28.23,-27.52 -253.29,-12.7 -504.82,-13.41 -754.59,-2.47 -21.17,0.71 -37.39,19.05 -35.98,40.22 25.75,359.48 170.39,662.16 433.91,907.69 65.97,61.39 130.18,118.54 192.27,171.81"/>
   <path class="fil0 str1" d="M34088.49 15120.76c43.39,79.37 88.55,141.81 136.17,187.68 246.59,239.18 554.92,359.12 924.28,359.83 295.27,0.35 588.43,2.12 879.83,5.29 256.11,2.82 454.37,-16.93 594.43,-59.27 386.99,-116.77 663.92,-371.82 830.79,-764.82 27.87,-65.62 47.27,-63.15 58.21,7.06 7.41,46.92 9.87,105.48 7.05,175.68"/>
   <path class="fil0 str0" d="M37519.25 15032.21l-4.58 190.85c-0.71,26.11 19.75,47.98 45.86,49.04l351.72 15.87"/>
   <path class="fil0 str1" d="M37912.25 15287.97l-14.47 333.38c-1.06,25.4 19.41,46.92 44.81,46.92l700.97 -0.35c31.04,0 55.73,-25.4 54.68,-56.45 -6,-183.09 -6.35,-377.12 -1.42,-581.38 3.53,-159.1 -26.1,-320.32 -43.74,-481.19 -2.82,-25.75 -7.76,-49.74 -14.82,-72.31 -11.64,-36.34 -3.52,-57.51 24.7,-63.15"/>
   <path class="fil0 str0" d="M38662.96 14413.44l263.88 804.33c12.34,37.4 38.45,57.15 77.96,59.62l220.84 13.05"/>
   <path class="fil0 str1" d="M39225.64 15290.44c6,112.19 29.63,218.37 70.91,318.91 15.87,38.46 45.15,57.51 88.19,57.86 222.6,1.76 461.43,3.18 716.49,4.59 37.75,0.35 71.26,-24.35 82.91,-60.33l225.07 -703.44"/>
   <path class="fil0 str0" d="M40409.21 14908.03l9.88 327.73c0.7,20.46 17.28,37.04 37.74,37.75l387 12.35"/>
   <path class="fil0 str1" d="M40843.83 15285.86c-35.63,52.91 -54.33,101.24 -55.39,144.64 -1.76,62.09 -1.76,119.59 0,172.86 1.06,35.98 30.34,64.56 66.33,65.61 236.36,5.3 473.07,3.88 710.14,-4.23 19.75,-0.35 29.63,-10.58 29.63,-30.69l-5.29 -3862.92c0,-11.99 5.64,-20.46 16.58,-25.75l17.99 -8.82"/>
   <line class="fil0 str0" x1="41623.82" y1="11736.56" x2="41957.2" y2= "11747.85" />
   <path class="fil0 str1" d="M41957.2 11747.85c-8.82,85.72 -10.59,166.51 -6,242 4.59,69.5 -3.88,142.53 88.19,146.41 295.28,11.99 623.72,3.53 985.31,-25.4"/>
   <path class="fil0 str0" d="M43024.7 12110.86l-4.58 3131.25c0,16.58 13.05,29.99 29.63,30.69l376.77 13.41"/>
   <path class="fil0 str1" d="M43426.52 15286.21l-17.29 342.19c-1.06,21.88 16.23,39.87 38.1,40.22l726.72 1.77c10.94,0 19.76,-8.47 20.11,-19.41 3.18,-84.31 4.94,-163.33 4.59,-236.71 -3.18,-1073.86 -5.65,-2159.35 -7.41,-3256.14 0,-14.11 7.05,-21.17 20.81,-21.17l1255.89 -0.35c25.05,-0.35 45.16,-20.81 44.45,-45.86l-20.11 -701.32c-1.06,-31.05 -31.39,-52.57 -61.03,-43.04 -56.44,18.34 -106.18,9.88 -148.87,-25.75"/>
   <path class="fil0 str0" d="M45282.48 11320.64l-0.35 -356.31c0,-11.99 -9.53,-21.52 -21.17,-21.52l-3646.31 0.71c-22.23,0 -40.57,18.34 -40.22,40.92l2.83 340.43"/>
   <line class="fil0 str1" x1="41577.26" y1="11324.87" x2="41231.89" y2= "11346.04" />
   <path class="fil0 str0" d="M41231.89 11346.04l-3.53 -381.36c-0.35,-14.81 -12.35,-26.81 -27.17,-26.81l-766.58 -0.7c-34.93,0 -58.21,16.58 -69.15,49.74l-866.77 2628.19"/>
   <path class="fil0 str1" d="M39498.69 13615.1c-3.18,2.82 -6,4.59 -9.17,5.29 -6.35,1.77 -13.06,-2.11 -14.47,-8.82 -14.11,-64.55 -31.04,-127 -50.44,-186.62 -210.97,-640.64 -433.92,-1316.21 -668.87,-2026.7 -14.47,-43.4 -45.51,-65.27 -93.13,-65.27 -55.39,-0.35 -117.13,-6.35 -185.21,-18.34"/>
   <path class="fil0 str0" d="M38477.4 11314.64l-103.72 -354.19c-4.23,-14.46 -17.99,-24.7 -33.16,-24.34l-782.81 2.47c-20.82,0.35 -37.4,16.93 -37.4,37.39l0.35 1503.54"/>
   <path class="fil0 str2" d="M38477.4 11314.64c121.71,342.19 237.42,684.74 346.42,1027.99 157.7,496.36 316.09,976.14 474.49,1438.63 17.99,52.92 36.69,99.84 56.09,141.11 20.82,44.8 38.46,43.39 52.92,-3.88l91.37 -303.39"/>
   <path class="fil0 str2" d="M41231.89 11346.04l-3.53 3909.83c0,12.7 -9.88,22.93 -22.58,23.28l-361.95 6.71"/>
   <path class="fil0 str2" d="M40409.21 14908.03c18.7,-461.08 20.46,-935.56 6,-1424.16 -1.06,-35.63 -12,-39.16 -33.52,-10.23 -33.51,45.51 -23.63,109.01 -42.33,164.04 -164.4,485.77 -340.08,1015.29 -527.05,1588.91 -9.88,30.69 -38.45,51.86 -70.91,52.56l-515.76 11.29"/>
   <path class="fil0 str2" d="M38662.96 14413.44l-311.15 -915.11c-15.17,-44.8 -28.22,-44.45 -39.16,1.77 -1.06,4.94 -1.41,22.22 -1.06,51.85 3.18,158.75 6,317.5 9.17,476.61 8.12,401.46 -7.05,807.51 3.88,1210.73 0.71,20.81 -15.87,38.1 -36.68,38.81l-375.71 9.87"/>
   <path class="fil0 str2" d="M37519.25 15032.21c21.17,-262.82 22.93,-526.7 5.29,-790.93"/>
   <line class="fil0 str0" x1="37524.54" y1="14241.28" x2="37520.31" y2= "12584.99" />
   <path class="fil0 str2" d="M37520.31 12584.99c9.17,-32.45 9.17,-67.73 0.35,-105.48"/>
   <path class="fil0 str1" d="M37520.31 12584.99c-51.15,20.46 -99.84,30.69 -145.7,31.05 -194.02,1.05 -382.76,1.05 -566.56,0.7 -41.98,-0.35 -77.61,-30.34 -85.02,-71.26 -21.52,-121.71 -75.84,-222.96 -162.63,-303.74"/>
   <path class="fil0 str1" d="M37524.54 14241.28c-3.52,1.41 -6.35,4.94 -8.82,10.59 -3.17,8.46 -8.81,10.58 -16.93,6.35 -8.11,-4.24 -12.35,-10.94 -12.7,-20.47 -2.47,-78.31 15.88,-150.98 -12.7,-227.89 -48.33,-130.53 -106.54,-246.94 -175.33,-349.6 -52.56,-78.32 -134.76,-133 -207.79,-195.79"/>
   <path class="fil0 str2" d="M37100.51 11703.05c5.99,75.14 4.23,146.05 22.22,216.95 20.81,82.2 37.75,167.57 50.09,256.12 3.89,27.87 -17.63,52.92 -45.86,53.62l-566.56 12"/>
   <path class="fil0 str0" d="M36560.4 12241.74c-46.21,-2.47 -90.31,-7.76 -132.99,-15.88 -30.7,-5.99 -56.8,-20.46 -77.97,-43.04"/>
   <path class="fil0 str2" d="M36349.44 12182.82c-25.75,-186.62 -110.42,-313.97 -254.35,-382.76 -85.37,-40.92 -220.84,-60.68 -406.75,-59.62 -377.83,2.47 -680.87,4.59 -909.11,6 -184.51,1.41 -324.91,71.26 -420.51,209.2 -127.71,184.15 -112.54,424.39 36.33,590.19 70.21,78.32 150.29,124.89 240.24,139.35"/>
   <path class="fil0 str0" d="M34635.29 12685.18c78.67,17.99 139.35,26.81 181.68,26.46 259.65,-1.77 516.82,-2.82 771.88,-2.47 322.44,0.35 546.81,21.52 672.75,63.5 402.52,133.7 580.32,367.59 828.67,691.8"/>
   <path class="fil0 str2" d="M37090.27 13464.47c15.53,96.66 19.76,191.55 42.34,286.1 126.65,529.17 -134.06,1059.39 -582.09,1338.79 -193.67,120.65 -420.51,170.39 -648.75,179.21 -320.68,12.35 -658.99,15.17 -1014.59,8.47 -297.75,-5.65 -564.09,-57.86 -798.69,-156.28"/>
   <path class="fil0 str2" d="M36337.8 13896.62c-51.51,-330.2 -321.38,-387.35 -612.42,-388.06 -326.32,-0.7 -652.64,-0.35 -979.31,0.71 -182.39,0.7 -402.52,-52.92 -659.7,-160.87"/>
   <path class="fil0 str1" d="M36349.44 12182.82c-43.39,-31.04 -86.78,-46.56 -130.17,-46.21 -291.4,1.06 -583.15,1.76 -874.89,2.82 -206.38,0.71 -349.61,19.41 -430.39,55.74 -181.68,82.2 -274.82,245.53 -278.7,490.01"/>
   <path class="fil0 str2" d="M45282.48 11320.64l12.7 398.28c0.71,19.76 -8.82,29.63 -28.57,29.63l-1393.48 -1.41c-23.63,0 -42.68,19.05 -42.68,42.34l-1.06 3446.64c0,23.98 -19.05,43.39 -43.04,43.74l-359.83 6.35"/>
   <path class="fil0 str2" d="M43024.7 12110.86l-10.23 -329.14c-0.35,-16.94 -14.11,-30.34 -31.04,-30.34l-1026.23 -3.53"/>
   <path class="fil0 str2" d="M41623.82 11736.56c-27.87,-10.94 -40.92,-34.92 -39.51,-71.97 5.29,-130.17 3.18,-243.41 -7.05,-339.72"/>
   <path class="fil0 str1" d="M16446.42 15290.44l-16.58 304.1c-2.11,38.45 28.58,70.55 67.03,70.91l669.93 2.82c32.8,0.35 59.62,-26.11 59.97,-58.92l5.29 -855.48c0.35,-29.63 15.17,-44.45 44.45,-44.45l1263.3 -6"/>
   <line class="fil0 str0" x1="18539.81" y1="14703.42" x2="18968.43" y2= "15101.71" />
   <path class="fil0 str1" d="M18968.43 15101.71c37.75,42.68 74.09,85.02 109.01,127.35 222.6,269.88 680.51,457.55 1028,428.98 15.52,-1.41 27.16,-14.11 27.51,-29.64l1.77 -704.14c0,-24.34 -16.94,-45.51 -40.93,-50.8 -90.31,-18.7 -180.27,-40.57 -269.87,-65.97 -94.9,-27.16 -82.55,-105.48 -86.08,-197.55"/>
   <path class="fil0 str0" d="M19737.84 14609.94c12.35,-51.16 9.53,-88.9 -8.11,-113.25 -6.71,-9.52 -16.23,-15.17 -28.22,-16.22 -75.85,-8.47 -142.53,-26.11 -200.38,-53.27"/>
   <path class="fil0 str1" d="M19501.13 14427.2l-34.22 -55.39c-6.7,-10.94 -4.94,-20.46 5.29,-28.57 309.39,-233.9 509.76,-543.28 601.49,-927.46 108.65,-455.43 38.45,-885.12 -210.97,-1288.34 -86.43,-139.7 -201.08,-261.76 -344.66,-366.19"/>
   <path class="fil0 str0" d="M19518.06 11761.25c-114.65,-143.58 -199.32,-242.35 -253.65,-296.33 -346.07,-344.31 -767.29,-517.88 -1264.35,-520.35 -626.54,-3.17 -1272.12,-2.82 -1936.4,1.06 -21.52,0.36 -32.1,10.94 -32.1,32.46l0 4264.02c0,16.58 13.05,29.99 29.63,30.69l385.23 17.64"/>
   <path class="fil0 str2" d="M19518.06 11761.25c27.16,97.02 58.21,191.56 93.13,284.34 45.51,121.01 74.44,215.9 86.08,285.4 85.02,506.59 -32.45,961.67 -352.07,1365.25 -76.2,96.66 -170.39,169.69 -254,257.88 -11.99,13.05 -16.23,31.75 -10.58,48.33 68.79,202.5 209.19,343.96 420.51,424.75"/>
   <path class="fil0 str2" d="M19737.84 14609.94c-6.35,143.58 -20.11,283.98 -5.64,426.86 6.7,68.44 10.58,135.82 10.93,202.49 0.36,15.88 -11.99,29.28 -27.87,30.34 -68.44,4.59 -137.58,1.41 -207.43,-9.88 -97.72,-15.87 -277.28,-68.79 -539.4,-158.04"/>
   <path class="fil0 str2" d="M18539.81 14703.42c-86.43,-117.12 -151.7,-240.24 -195.79,-369 -6.71,-19.76 -25.4,-32.81 -46.22,-32.46 -119.59,3.53 -240.24,15.52 -355.6,15.52 -322.44,-0.35 -670.98,0.71 -1045.63,2.82 -41.98,0.36 -62.8,21.17 -62.8,63.15l0 860.07c0,17.29 -13.4,31.4 -30.69,32.11l-356.66 14.81"/>
   <path class="fil0 str1" d="M26022.93 13396.38c185.56,282.22 456.49,443.79 812.8,485.07 118.53,13.76 212.37,21.17 281.87,21.87 294.57,2.82 664.99,0.35 1110.54,-7.05"/>
   <path class="fil0 str0" d="M28228.14 13896.27c101.25,307.62 -171.45,572.55 -469.54,578.2 -342.9,6.7 -676.63,8.11 -1001.54,4.58 -136.52,-1.41 -322.79,-47.62 -427.57,-123.47 -98.42,-70.91 -149.57,-174.27 -152.75,-309.74 -0.7,-25.75 -21.52,-46.56 -47.62,-46.92l-705.56 -6.7c-27.16,-0.35 -49.74,20.82 -51.86,47.98 -25.4,333.73 161.57,678.74 402.17,899.23 74.08,68.09 149.22,135.11 225.07,201.08"/>
   <path class="fil0 str1" d="M25998.94 15140.51c198.97,346.08 613.13,524.58 999.77,525.64 269.88,0.35 549.28,2.82 838.2,7.06 297.4,4.23 519.29,-14.47 664.99,-56.09 386.29,-110.07 709.44,-402.17 841.37,-789.17 51.16,-149.58 30.34,-300.56 40.22,-454.73 2.12,-36.33 0.35,-73.38 -4.94,-111.12 -5.29,-37.75 -7.41,-74.79 -5.99,-111.48 5.99,-160.52 -68.09,-328.79 -157.34,-460.02 -62.45,-92.08 -156.64,-160.87 -245.18,-233.54"/>
   <path class="fil0 str0" d="M28970.04 13457.06c-129.47,-183.45 -230.72,-309.39 -303.75,-378.18 -254.35,-240.24 -559.15,-361.6 -913.69,-364.42 -373.94,-2.47 -739.78,-4.94 -1097.14,-7.41 -24.34,0 -48.33,-3.17 -72.32,-9.52 -20.81,-5.29 -42.69,-9.53 -65.62,-12.35"/>
   <path class="fil0 str1" d="M26517.52 12685.18c21.17,-345.72 188.74,-527.05 502.71,-543.98 292.81,-15.88 698.86,-12.7 1218.14,9.52"/>
   <path class="fil0 str0" d="M28238.37 12150.72c0.36,39.16 23.64,62.44 69.85,70.2 62.45,10.59 110.07,16.58 142.88,18"/>
   <path class="fil0 str1" d="M28451.1 12238.92c85.02,85.02 140.76,190.5 167.57,316.44 7.76,35.28 38.8,60.68 75.14,61.03 177.45,0.7 356.31,1.06 535.87,1.06 45.86,0 90.31,-7.76 133.35,-23.29 23.64,-8.46 38.45,-32.1 35.63,-57.15 -9.52,-80.78 -22.58,-165.45 -39.86,-254 -49.04,-252.23 -178.51,-449.08 -389.12,-589.84"/>
   <path class="fil0 str0" d="M28969.68 11693.17c-250.82,-376.06 -501.29,-624.42 -944.03,-718.61 -125.24,-26.46 -348.19,-38.1 -668.87,-34.22 -228.95,2.47 -459.67,4.23 -692.5,5.29 -821.62,3.88 -1413.23,686.16 -1287.99,1501.42 10.23,67.39 28.22,133 53.62,196.15 78.32,192.97 150.28,344.66 311.5,494.59 96.31,89.61 190.15,175.69 281.52,258.59"/>
   <path class="fil0 str2" d="M28969.68 11693.17l87.49 473.43c7.76,41.98 -9.88,63.14 -52.56,63.85l-553.51 8.47"/>
   <path class="fil0 str2" d="M28238.37 12150.72c-31.39,-174.62 -120.65,-293.51 -268.46,-357.01 -88.55,-38.45 -211.31,-56.44 -368.3,-53.97 -306.56,4.58 -609.25,5.99 -908.05,4.23 -213.43,-1.41 -365.48,74.79 -456.14,228.95 -75.5,128.77 -92.43,262.47 -51.15,401.46 44.8,149.93 155.22,253.3 331.25,310.8"/>
   <path class="fil0 str2" d="M28970.04 13457.06c6.7,62.79 28.22,179.56 65.26,350.31 45.51,208.84 18.34,433.91 -81.14,674.86 -149.58,363.01 -410.63,605.01 -782.81,726.72 -160.87,52.21 -345.02,63.5 -515.76,66.68 -370.42,7.05 -740.84,5.64 -1111.25,-4.59 -119.95,-3.17 -301.63,-46.92 -545.4,-130.53"/>
   <path class="fil0 str2" d="M28228.14 13896.27c-36.68,-234.25 -239.18,-375.71 -466.72,-382.77 -375.71,-11.29 -742.95,4.59 -1140.53,-9.52 -93.49,-3.18 -193.68,-17.29 -300.57,-41.63 -96.31,-21.87 -195.44,-43.75 -297.39,-65.97"/>
   <path class="fil0 str1" d="M29784.6 15283.74l0 346.08c0,13.75 10.23,25.75 23.99,27.51 54.68,6.71 110.42,10.23 167.92,10.59 1160.29,3.88 2269.42,4.23 3327.75,1.41 55.04,-0.36 108.66,-2.47 160.87,-7.06 11.29,-0.7 20.11,-10.23 20.11,-21.52l-0.35 -698.5c0,-47.62 -23.64,-69.5 -70.91,-66.32l-293.87 20.11"/>
   <path class="fil0 str0" d="M33120.11 14896.04l-3.52 -388.76c-0.36,-15.88 -13.06,-28.58 -28.93,-28.58l-2515.66 -2.47"/>
   <path class="fil0 str1" d="M30572 14476.23l2.47 -552.45c0.35,-10.58 8.82,-19.05 19.05,-19.05l2011.19 -2.11c46.91,0 70.2,-23.29 70.55,-69.85l6.35 -648.76c0.35,-36.34 -27.87,-66.32 -63.85,-68.79 -75.14,-4.59 -153.46,-5.3 -234.95,-2.12 -55.74,2.47 -80.79,-24.34 -75.14,-80.08"/>
   <path class="fil0 str0" d="M32307.67 13033.02l3.17 -288.93c0.35,-17.28 -13.4,-31.04 -30.69,-31.39l-1710.97 -10.23"/>
   <path class="fil0 str1" d="M30569.18 12702.47l6.7 -529.52c0.35,-19.76 16.58,-35.63 36.34,-35.63l2742.14 1.05c36.69,0 68.08,-26.45 74.08,-62.79 36.34,-214.14 56.09,-438.5 58.92,-673.1 0.35,-30.69 -24.7,-55.39 -55.39,-54.68l-308.33 7.41"/>
   <path class="fil0 str0" d="M33123.64 11355.21l-8.11 -366.54c-0.71,-30.69 -16.58,-46.21 -47.27,-46.21l-3631.85 0.7c-13.05,0 -23.29,10.59 -23.64,23.64 -5.64,426.15 -5.64,809.27 0.35,1149.7 4.59,263.53 -4.23,486.84 -2.82,737.66 2.82,641 4.24,1274.94 4.59,1901.83 0,123.11 -3.88,282.22 -12,476.95 -0.7,19.76 14.82,36.69 34.58,37.4l347.13 13.4"/>
   <path class="fil0 str2" d="M33123.64 11355.21l-3.88 347.48c-0.35,23.64 -19.4,42.69 -43.04,42.69l-2820.1 0.35c-23.64,0 -43.04,19.41 -43.04,43.04l-4.94 865.72c0,31.75 15.87,47.62 47.27,47.62l313.27 0.36"/>
   <path class="fil0 str2" d="M32307.67 13033.02c-15.88,135.11 -14.82,277.63 3.17,427.57 3.18,25.04 -16.23,46.91 -41.27,46.91l-2028.48 2.83c-17.28,0 -31.04,14.11 -31.04,31.39l-2.47 875.95c0,16.23 11.29,30.34 27.16,34.22 115.01,27.87 227.55,35.98 337.26,24.34"/>
   <path class="fil0 str2" d="M33120.11 14896.04l-0.7 334.08c0,31.75 -15.88,47.62 -47.63,47.98l-3287.18 5.64"/>
   <path class="fil0 str3" d="M18937.28 16293.57c-0.24,-37.57 -30.94,-67.91 -68.68,-67.49l-388.76 3.39c-37.75,0.42 -67.74,31.11 -67.46,68.68l0.18 23.99c0.25,37.57 30.94,67.91 68.69,67.49l388.76 -3.39c37.75,-0.42 67.73,-31.11 67.48,-68.68l-0.21 -23.99z"/>
   <path class="fil0 str3" d="M13973.1 18024.82c500.24,219.78 646.99,-546.8 678.74,-865.71 18.35,-185.92 61.03,-547.16 -202.84,-589.85 -276.58,-44.45 -418.05,160.16 -493.19,385.59 -64.91,194.38 -242,956.03 17.29,1069.97z"/>
   <path class="fil0 str3" d="M18370.83 18060.1c486.13,10.94 559.5,-912.63 539.75,-1234.01 -8.82,-142.17 -74.44,-227.19 -196.85,-255.77 -527.76,-121.71 -613.84,772.59 -621.24,1115.13 -3.89,192.62 51.15,369.71 278.34,374.65z"/>
   <path class="fil0 str3" d="M26884.06 17403.58c16.93,-18.34 47.27,-11.29 54.33,12.35l175.68 583.14c8.82,28.58 27.87,43.04 57.86,42.69l119.94 -1.06c27.17,-0.35 36.69,-13.05 27.87,-38.81l-201.43 -595.84c-4.59,-14.46 -0.36,-25.05 13.05,-31.75 214.49,-111.83 260.35,-375 249.76,-599.01 -6.35,-134.41 -81.13,-204.62 -224.36,-210.26 -109.72,-4.59 -213.43,1.06 -311.15,16.23 -16.23,2.47 -28.93,15.17 -31.4,31.04l-215.55 1378.3c-6.7,41.99 11.29,62.45 53.63,61.39l50.09 -1.41c41.28,-1.06 65.97,-21.52 74.79,-61.74 37.75,-172.51 67.73,-352.78 89.96,-540.45 2.47,-20.11 8.11,-34.93 16.93,-44.81z"/>
   <path class="fil0 str3" d="M36787.24 17400.76c14.82,-13.76 38.8,-7.06 44.45,12.35l172.86 587.73c5.64,19.05 21.52,33.51 41.27,37.04 53.63,9.52 106.19,8.11 157.7,-3.53 17.99,-4.23 26.1,-25.4 15.87,-40.57 -18.34,-26.46 -32.1,-55.03 -41.63,-85.73 -51.85,-162.98 -107.24,-327.02 -166.15,-492.12 -4.94,-13.41 -1.42,-23.99 10.58,-32.1 212.37,-144.99 260.35,-353.13 252.23,-598.31 -4.58,-133 -70.2,-205.67 -197.55,-217.32 -112.18,-10.23 -226.48,-5.29 -343.25,15.17 -12.7,2.12 -22.58,12.35 -24.35,25.05l-223.3 1388.53c-6.35,39.52 10.58,57.86 50.44,55.04l71.62 -5.29c32.81,-2.12 59.97,-26.46 66.32,-58.92 32.1,-171.09 61.74,-351.01 88.19,-539.04 2.83,-19.4 10.94,-35.63 24.7,-47.98z"/>
   <path class="fil0 str3" d="M39385.45 17869.6c79.37,-170.04 94.89,-424.04 31.04,-624.06 -5.29,-16.23 -4.58,-32.1 2.12,-47.98 79.37,-191.91 187.68,-602.19 -128.77,-630.06 -108.65,-9.53 -211.31,-6.35 -308.32,9.17 -29.64,4.59 -46.92,21.87 -51.51,51.51l-218.02 1387.12c-1.76,13.05 3.53,21.17 16.58,23.99 223.67,45.51 545.75,67.03 656.88,-169.69z"/>
   <path class="fil0 str3" d="M43449.8 18031.17c342.9,-156.98 405.34,-878.41 388.06,-1196.97 -8.47,-155.58 -82.55,-244.12 -221.9,-265.29 -266.35,-40.22 -410.64,173.21 -482.25,391.94 -85.02,259.99 -122.41,524.93 -111.83,795.16 2.82,75.49 23.28,144.64 61.74,207.08 69.14,112.89 262.11,115.36 366.18,68.08z"/>
   <path class="fil0 str3" d="M13368.09 16736.83c14.81,1.77 29.98,0 44.09,-5.29 46.92,-17.29 74.79,-41.63 83.26,-73.02 8.82,-32.81 -3.18,-53.98 -35.99,-63.15 -134.06,-37.4 -416.62,-62.44 -511.53,70.91 -73.72,103.71 -94.89,223.66 -63.5,360.18 64.22,279.05 474.49,386.65 341.15,713.32 -49.75,121.71 -190.5,160.51 -422.29,115.71 -34.92,-6.7 -70.9,7.76 -90.66,37.04 -10.92,15.88 -18.34,32.81 -22.57,50.45 -9.88,42.33 6.35,68.79 48.69,79.02 191.2,46.22 423.33,77.61 572.2,-73.02 93.13,-94.55 131.58,-256.47 132.99,-386.29 1.77,-206.73 -174.98,-344.32 -305.51,-482.96 -84.31,-89.25 -102.65,-178.86 -55.02,-268.81 36.34,-68.8 131.23,-93.49 284.69,-74.09z"/>
   <path class="fil0 str3" d="M17318.14 18092.2c1.76,58.21 -8.47,108.66 -31.05,150.64 -6.7,12 -19.05,19.76 -32.8,20.46l-114.3 4.94c-12.35,0.35 -20.82,6.35 -25.4,17.99 -9.88,25.76 -9.53,51.51 1.05,77.61 6,14.11 16.23,22.93 30.7,26.46 291.74,72.32 286.45,-49.74 314.67,-282.57 2.83,-22.58 18.35,-41.63 40.22,-49.04 71.97,-24.34 182.39,-45.51 178.86,-140.76 -1.06,-25.4 -22.23,-45.15 -47.63,-44.8 -62.44,1.06 -125.94,0.71 -190.85,-1.76 -84.31,-2.83 -127.71,-46.22 -130.17,-130.18 -8.12,-282.22 32.45,-553.51 122.06,-814.21 24.69,-71.26 91.01,-190.5 171.8,-188.74 88.9,2.47 252.24,23.64 252.24,-106.18 0,-15.88 -7.41,-26.46 -22.58,-31.4 -600.78,-198.97 -695.33,576.79 -715.08,994.48 -9.18,196.85 -9.53,349.96 182.38,469.55 10.23,6.35 15.53,15.52 15.88,27.51z"/>
   <path class="fil0 str3" d="M20946.81 16691.32l7.06 -52.91c3.88,-28.58 -8.47,-45.86 -36.69,-51.51 -176.39,-34.92 -456.5,-57.15 -539.4,142.52 -56.44,136.53 -51.86,267.76 13.41,393 114.65,219.78 425.09,316.09 299.86,621.59 -33.87,82.2 -98.08,123.12 -192.62,122.06 -104.77,-1.05 -202.49,-1.41 -292.45,-1.76 -19.76,0 -30.34,9.88 -32.11,29.63l-7.4 93.84c-1.77,19.76 12.34,37.75 32.1,40.92 113.95,18.35 215.19,28.58 303.39,30.34 308.33,7.41 408.16,-270.22 408.87,-524.93 0.7,-291.75 -436.39,-409.93 -375.71,-683.33 14.46,-65.62 53.27,-102.66 115.71,-110.77 77.96,-10.23 157.69,-11.29 239.89,-3.88 27.87,2.47 52.56,-17.29 56.09,-44.81z"/>
   <path class="fil0 str3" d="M26002.47 17796.58c-14.11,94.54 -78.32,112.89 -164.4,85.72 -63.85,-20.11 -96.3,-63.5 -96.66,-130.53 -2.47,-377.11 53.63,-686.15 167.57,-926.39 51.16,-108.3 213.79,-94.9 315.03,-83.61 34.22,3.88 66.33,-16.58 77.26,-49.03l15.17 -44.81c10.94,-31.39 0,-50.8 -32.81,-57.85 -99.48,-20.82 -192.61,-27.52 -279.4,-20.11 -428.62,37.04 -471.66,974.72 -447.32,1250.95 7.41,85.37 39.86,148.87 97.01,190.15 114.66,82.9 352.43,44.09 479.08,12.7 10.58,-2.47 18.34,-11.29 20.11,-21.88l105.48 -660.75c6.7,-41.63 -10.94,-65.26 -52.92,-70.55l-15.52 -2.12c-62.45,-7.76 -99.49,19.05 -111.13,80.78 -30.69,162.99 -56.44,312.21 -76.55,447.33z"/>
   <path class="fil0 str3" d="M28227.44 17606.78l31.4 400.05c2.11,25.05 15.87,38.1 40.92,38.81l96.66 1.76c34.22,1.06 50.09,-15.87 47.62,-50.09l-95.95 -1366.31c-1.77,-27.52 -21.87,-50.8 -49.04,-56.8 -71.61,-15.87 -119.94,7.06 -144.64,68.09 -182.03,454.02 -353.48,900.29 -514.7,1338.44 -14.46,39.86 -0.7,61.38 41.98,64.2l56.8 3.88c46.92,3.18 77.26,-17.64 91.72,-62.44 40.22,-125.23 87.84,-252.59 143.23,-382.76 30.69,-71.26 161.92,-26.81 221.54,-27.17 16.94,0 31.4,13.41 32.46,30.34z"/>
   <path class="fil0 str3" d="M29186.64 18057.63c444.85,-38.45 502.71,-833.26 497.42,-1181.8 -3.18,-214.84 -103.72,-318.21 -301.63,-310.8 -98.77,3.53 -197.91,3.17 -295.62,14.46 -21.88,2.47 -39.52,19.41 -43.04,41.28l-224.02 1387.83c-2.82,17.28 4.59,27.51 21.87,30.69 122.77,21.52 237.78,27.87 345.02,18.34z"/>
   <path class="fil0 str3" d="M30465.11 17577.15c27.51,4.59 41.98,20.81 43.74,48.68l22.58 370.77c2.12,31.05 28.58,55.04 59.62,53.62l84.31 -3.17c32.11,-1.41 47.28,-18.35 44.81,-50.45 -28.23,-406.4 -56.8,-823.73 -85.38,-1252.01 -3.17,-47.27 -9.17,-91.72 -17.99,-133.35 -2.82,-12.7 -10.23,-21.52 -22.22,-26.45 -42.34,-18 -83.26,-17.64 -122.77,1.05 -11.64,5.3 -20.11,14.11 -25.75,25.76 -23.64,49.74 -54.68,123.82 -92.78,221.54 -146.41,376.06 -291.4,753.89 -435.68,1133.12 -17.99,47.63 -1.77,74.09 49.03,79.38l33.87 3.53c53.62,5.64 88.9,-17.29 106.19,-68.44 38.45,-113.6 80.43,-228.6 126.64,-345.02 39.51,-99.84 87.14,-67.03 165.1,-64.91 23.29,0.35 45.51,2.47 66.68,6.35z"/>
   <path class="fil0 str3" d="M31540.37 17759.18c-74.08,156.99 -318.2,107.95 -461.08,92.43 -19.75,-2.12 -37.39,12.7 -38.8,32.46l-9.17 119.23c-1.41,16.94 11.99,31.75 28.92,32.11 111.83,2.11 220.14,30.34 329.5,21.52 176.74,-14.47 292.45,-110.07 346.43,-287.52 53.27,-173.21 56.09,-338.66 -75.85,-478.72 -71.61,-75.84 -141.82,-149.93 -210.96,-221.89 -87.49,-91.37 -101.95,-324.56 83.61,-333.03 79.37,-3.88 156.98,-6.7 232.12,-9.17 15.88,-0.35 27.52,-7.41 35.28,-21.16 15.88,-28.58 19.4,-59.98 10.23,-94.55 -3.17,-12.35 -11.29,-19.4 -23.63,-21.87 -218.02,-41.63 -527.05,-68.09 -579.62,225.42 -58.91,328.44 154.17,426.86 318.56,638.18 65.97,85.02 70.91,186.97 14.46,306.56z"/>
   <path class="fil0 str3" d="M34046.86 18042.82c580.67,165.8 662.87,-895.35 639.59,-1227.32 -9.53,-136.52 -76.56,-217.66 -200.38,-242.71 -548.57,-111.12 -621.95,842.08 -613.13,1186.75 3.18,115 51.15,248 173.92,283.28z"/>
   <path class="fil0 str3" d="M38099.57 17583.85c14.47,3.88 25.05,16.94 26.11,32.1l23.28 382.06c1.76,29.28 26.81,51.86 56.09,50.8l87.14 -3.88c32.1,-1.06 46.92,-17.64 44.45,-49.74 -34.22,-495.3 -65.62,-941.21 -93.84,-1338.09 -6.7,-92.07 -86.08,-103.01 -155.22,-73.37 -11.29,4.94 -19.41,13.05 -24.7,24.34 -20.11,44.1 -37.74,86.08 -53.27,125.59 -136.87,349.6 -275.16,706.26 -414.51,1070.68 -21.87,56.8 -41.98,114.65 -60.68,173.57 -15.17,47.97 2.12,71.61 52.21,70.9l52.57 -0.7c43.39,-0.71 71.26,-21.52 84.31,-62.8 37.04,-116.77 82.9,-241.3 137.58,-373.59 26.46,-64.2 88.9,-47.27 142.53,-43.74 33.16,2.11 65.26,7.41 95.95,15.87z"/>
   <path class="fil0 str3" d="M15220.87 17877.01c-21.87,-0.35 -38.8,-19.76 -35.27,-41.63l184.15 -1208.61c3.17,-21.17 -12.7,-40.22 -33.87,-41.28l-108.66 -4.94c-18.34,-0.7 -34.22,12.35 -37.04,30.34l-218.37 1395.94c-3.52,21.87 13.41,41.63 35.63,41.63l479.43 -2.12c20.81,0 37.04,-17.64 35.63,-38.45l-7.06 -96.31c-1.41,-18.69 -16.93,-33.16 -35.63,-33.16l-258.94 -1.41z"/>
   <path class="fil0 str3" d="M16199.13 17873.48c-24.34,-9.17 -40.22,-33.16 -39.51,-59.26 3.17,-92.08 11.28,-182.39 25.04,-270.94 44.81,-294.57 85.38,-595.49 122.42,-903.46 5.29,-42.69 -13.76,-64.21 -57.15,-63.85l-51.51 0.35c-37.04,0.35 -57.85,19.05 -63.15,55.38 -51.85,360.19 -104.07,715.09 -156.63,1065.39 -17.99,118.18 -24.34,300.92 89.25,334.08 330.56,96.31 525.64,-18.69 585.26,-344.31 46.22,-252.94 99.84,-602.89 160.52,-1049.86 4.23,-31.4 -9.53,-48.69 -41.28,-51.51l-76.55 -7.05c-35.28,-3.18 -55.39,12.7 -60.33,47.62 -51.86,378.53 -109.71,733.07 -173.21,1063.27 -25.05,131.24 -116.77,239.54 -263.17,184.15z"/>
   <path class="fil0 str3" d="M19469.38 17849.49l67.73 -459.31c3.88,-27.17 26.81,-47.27 54.33,-47.63 84.31,-1.06 167.57,-3.53 249.41,-8.11 43.75,-2.47 81.85,-31.05 96.31,-72.32 6,-16.93 3.53,-35.98 -7.41,-57.15 -7.76,-14.11 -22.22,-23.64 -38.1,-24.34l-290.69 -13.41c-14.81,-0.7 -25.75,-14.11 -23.28,-28.57l52.56 -331.97c5.65,-34.22 34.93,-59.97 69.85,-60.68l285.75 -5.64c34.22,-0.71 53.63,-17.99 57.51,-51.86l7.05 -57.15c3.88,-30.34 -9.52,-45.51 -40.21,-45.86l-490.01 -6c-28.22,-0.35 -44.45,13.41 -49.04,41.28l-223.31 1397c-2.82,17.28 10.94,33.16 28.58,32.81l535.51 -6c29.29,-0.35 43.75,-15.17 43.4,-44.45l-0.71 -89.25c-0.35,-24.34 -12.7,-36.69 -37.39,-36.69l-325.62 0.7c-17.28,0 -24.69,-8.46 -22.22,-25.4z"/>
   <path class="fil0 str3" d="M22214.16 16651.25c5.12,-31.89 -17.11,-61.88 -48.89,-66.85l-59.97 -9.28c-32.07,-4.8 -62.06,17.07 -66.82,48.89l-209.2 1351.28c-5.11,31.9 17.11,61.88 48.9,66.86l59.97 9.27c32.07,4.8 62.06,-17.07 66.82,-48.93l209.19 -1351.24z"/>
   <path class="fil0 str3" d="M22785.84 17229.66c6.7,11.29 11.64,23.64 14.11,36.69 47.27,226.49 92.08,458.26 134.41,694.97 15.52,86.08 91.72,103.37 168.28,82.55 19.4,-5.29 31.04,-19.75 34.92,-44.09 70.56,-462.49 138.29,-912.64 203.55,-1349.73 5.65,-38.1 -10.58,-59.97 -48.68,-65.62 -4.59,-1.06 -21.87,-3.53 -51.51,-7.76 -31.39,-4.58 -61.03,16.23 -66.67,47.63 -48.33,268.46 -92.43,537.98 -132.64,808.56 -1.06,8.82 -5.65,15.88 -13.06,20.82 -8.82,5.64 -20.46,0.7 -21.87,-9.53 -37.75,-256.47 -81.84,-506.59 -132.29,-750.36 -19.76,-95.95 -58.56,-142.87 -159.81,-109 -22.22,7.4 -34.92,22.93 -38.45,45.86l-215.9 1365.25c-6,37.74 10.23,55.38 47.98,53.62l76.9 -4.23c27.16,-1.06 49.74,-21.52 53.98,-48.34l119.23 -761.64c4.24,-26.81 13.41,-28.58 27.52,-5.65z"/>
   <path class="fil0 str3" d="M23716.12 16709.67c-2.47,23.28 16.58,43.39 40.21,41.98l111.13 -6.35c24.34,-1.41 43.74,19.75 39.86,43.74l-190.5 1218.15c-3.88,25.04 16.94,46.56 41.98,43.74l112.89 -12.7c16.93,-1.76 30.34,-14.82 33.16,-31.75l200.73 -1227.67c2.83,-17.99 17.99,-31.39 35.99,-32.1l142.52 -6c15.17,-0.7 28.22,-9.87 33.86,-23.99l31.05 -77.61c9.88,-24.69 -8.11,-51.86 -34.93,-52.21l-549.62 -7.76c-19.76,0 -36.34,14.82 -38.46,34.22l-9.87 96.31z"/>
   <path class="fil0 str3" d="M24855.59 17168.99c-22.93,-1.06 -39.87,-21.88 -35.98,-44.45l58.91 -344.32c3.17,-17.63 18.34,-31.04 36.69,-31.39l329.49 -8.82c19.05,-0.71 34.93,-15.52 36.69,-34.57l7.76 -79.73c2.47,-22.23 -15.17,-41.63 -37.39,-41.63l-499.18 -4.94c-18.7,-0.35 -34.93,13.41 -38.1,32.1l-222.61 1398.06c-3.52,23.64 14.82,44.8 38.81,44.1l532.34 -12.35c19.76,-0.35 35.99,-15.87 37.04,-35.63l6 -87.84c1.41,-21.87 -15.87,-40.22 -38.1,-40.57l-318.2 -1.41c-23.29,-0.35 -40.93,-21.17 -37.4,-44.45l73.03 -451.2c2.82,-17.64 17.63,-30.7 35.27,-31.75l313.62 -19.05c19.41,-1.06 34.93,-16.94 35.99,-36.34l3.52 -73.02c1.06,-21.17 -15.52,-39.16 -36.68,-39.87l-281.52 -10.93z"/>
   <path class="fil0 str3" d="M33253.82 17458.62c-22.23,-45.87 -38.46,-94.55 -47.98,-145.7 -34.22,-183.8 -68.44,-369.71 -102.31,-557.39 -16.58,-91.37 -46.56,-209.2 -175.33,-174.98 -19.75,5.29 -34.57,21.52 -37.74,41.63l-216.96 1379.71c-3.53,22.58 5.99,35.63 28.57,39.52 35.28,5.29 71.26,4.93 107.6,-1.42 18.7,-3.17 30.34,-13.75 34.22,-32.45 53.97,-249.06 93.48,-509.06 119.24,-779.64 3.88,-38.45 13.05,-39.51 27.51,-3.88 22.58,55.38 40.22,115.71 52.57,181.68 38.1,203.55 77.61,400.4 118.18,590.2 3.17,14.46 11.29,25.04 24.69,31.39 32.11,15.53 72.32,19.76 121.36,13.06 21.87,-3.18 38.8,-20.46 42.33,-42.34l203.55 -1340.91c6.71,-45.5 -12.7,-70.2 -58.2,-74.08l-43.4 -3.88c-42.33,-3.53 -66.32,15.52 -72.31,57.5 -27.17,192.97 -57.15,392.29 -89.96,597.96 -12,75.85 -1.41,146.76 -16.58,221.55 -3.88,19.75 -10.23,20.46 -19.05,2.47z"/>
   <path class="fil0 str3" d="M40275.15 17602.55l25.05 386.29c2.12,34.93 20.81,52.57 56.09,52.57l95.96 -0.36c39.16,0 52.91,-18.7 41.62,-56.44 -6.35,-21.52 -11.64,-61.39 -15.87,-119.95 -29.63,-402.52 -57.5,-813.15 -83.96,-1231.19 -1.77,-25.75 -15.17,-41.63 -40.22,-47.63 -85.02,-20.1 -139.7,1.77 -164.39,65.97 -170.39,443.8 -338.67,881.95 -505.18,1314.1 -17.99,46.92 -2.12,73.03 47.62,79.02l47.28 6c46.56,5.29 76.9,-14.11 91.01,-58.91 46.57,-145.7 93.49,-270.58 140.76,-373.95 35.28,-76.9 176.74,-49.03 243.07,-38.8 13.4,2.11 20.46,9.87 21.16,23.28z"/>
   <path class="fil0 str3" d="M41101.01 17846.67c55.03,-363.71 112.18,-728.13 171.09,-1093.26 3.53,-21.52 6.71,-62.44 9.88,-122.76 1.76,-36.34 -15.52,-53.98 -51.86,-53.63l-63.85 0.71c-35.28,0.35 -55.74,17.99 -61.38,52.92l-218.37 1363.84c-6,35.63 9.17,53.26 45.15,53.26l462.14 2.12c34.22,0.35 50.1,-16.58 47.63,-50.8l-4.59 -74.08c-1.76,-26.46 -23.28,-46.92 -49.74,-47.27l-263.53 -4.24c-17.64,-0.35 -25.04,-9.52 -22.57,-26.81z"/>
   <path class="fil0 str3" d="M42371.01 17338.32c22.93,0 40.56,20.46 37.39,43.39l-92.78 620.89c-3.18,22.58 14.11,43.04 37.04,43.04l100.9 1.41c18.69,0.35 34.92,-13.41 37.74,-32.1l207.79 -1378.31c2.82,-19.75 -10.23,-38.8 -29.99,-42.68l-91.37 -17.99c-20.81,-3.88 -40.92,9.87 -44.45,31.04l-87.13 533.05c-3.18,18.34 -19.05,31.75 -37.4,31.75l-219.07 -1.06c-22.58,-0.35 -40.22,-20.11 -37.04,-42.69l64.55 -498.12c2.83,-21.17 -12.7,-40.57 -33.86,-42.33l-89.26 -8.82c-19.75,-1.77 -37.74,11.99 -40.92,31.75l-223.31 1394.53c-3.88,23.63 15.17,44.8 38.81,43.74l100.54 -4.58c17.64,-0.71 32.46,-13.76 35.28,-31.4l108.3 -643.11c3.18,-18 18.7,-31.4 37.4,-31.4l220.84 0z"/>
   <path class="fil0 str3" d="M35875.31 16744.59c19.05,0.36 33.16,17.29 30.34,35.99l-193.68 1218.14c-5.29,32.45 8.82,49.03 41.63,49.39l73.02 1.06c44.81,0.7 70.56,-20.82 77.26,-64.92l186.27 -1187.45c4.94,-31.04 22.93,-48.33 53.97,-51.85 65.97,-7.06 234.95,-1.06 198.97,-123.12 -6.35,-21.17 -26.1,-35.99 -48.33,-35.99l-537.63 -0.35c-31.75,0 -48.69,15.88 -50.8,47.63l-4.24 66.67c-1.76,28.22 11.65,42.69 40.22,43.04l133 1.76z"/>
   <path class="fil0 str0" d="M24353.23 13247.51c0,-843.85 -684.39,-1528.24 -1528.23,-1528.24 -843.84,0 -1528.23,684.39 -1528.23,1528.24 0,843.84 684.39,1528.23 1528.23,1528.23 843.84,0 1528.23,-684.39 1528.23,-1528.23z"/>
   <path class="fil0 str0" d="M13131.36 13504.68c235.67,8.82 472.03,11.64 709.09,8.47 209.2,-3.18 367.95,-25.05 476.25,-66.32 479.08,-182.04 736.25,-809.28 420.52,-1255.54"/>
   <path class="fil0 str2" d="M14737.22 12191.29c-39.16,-99.84 -98.43,-180.97 -177.8,-244.12 -202.15,-160.52 -409.23,-203.2 -678.4,-201.08 -360.89,2.46 -716.14,1.76 -1065.73,-2.12 -22.59,-0.35 -41.28,18.34 -41.28,40.92l6 1668.99c0,18.7 14.81,34.22 33.51,35.28l317.84 15.52"/>
   <path class="fil0 str1" d="M14737.22 12191.29c-154.17,-25.75 -307.27,-49.39 -462.85,-51.5 -371.12,-5.65 -737.66,-5.65 -1099.25,0 -19.06,0.35 -34.22,15.87 -34.58,35.27l-9.18 1329.62"/>
   <path class="fil0 str0" d="M17216.89 13500.8c340.43,20.82 638.88,21.52 896.06,2.12 240.94,-18.35 440.26,-117.12 597.6,-296.33 242.01,-275.52 307.62,-710.85 83.96,-1014.59"/>
   <path class="fil0 str2" d="M18794.51 12192c-51.85,-121.01 -129.82,-216.61 -233.89,-286.81 -152.4,-103.37 -327.73,-155.22 -525.64,-156.28 -386.64,-2.12 -770.11,-3.53 -1150.41,-4.24 -28.57,0 -51.5,23.29 -51.5,51.86l7.05 1639.36c0.36,26.81 21.52,49.04 48.33,50.1l328.44 14.81"/>
   <path class="fil0 str1" d="M18794.51 12192c-159.8,-34.22 -275.16,-51.51 -346.42,-51.86 -399.7,-1.77 -796.93,-2.47 -1190.98,-1.41 -13.41,0 -24.34,10.93 -24.7,24.34l-15.52 1337.73"/>
   <path class="fil0 str4" d="M21800.53 13737.87c6,10.23 5.29,23.28 -2.47,32.45 -54.68,65.97 -116.06,111.83 -184.15,138.29 -27.16,10.59 -33.16,28.23 -17.28,52.92 21.87,34.22 41.27,70.2 58.21,107.6 27.87,62.09 71.26,76.2 130.17,42.33l152.05 -87.14c18.34,-10.23 41.63,-6.7 56.09,8.47 85.72,90.66 184.15,166.86 295.27,228.6 39.16,21.87 49.39,73.38 21.17,107.95l-32.81 40.92c-20.81,25.76 -17.28,63.5 8.12,84.67 49.03,40.57 107.95,70.56 176.74,89.61 28.93,8.11 59.27,-7.77 69.14,-35.99 26.11,-73.73 28.58,-156.98 134.06,-157.69 125.94,-0.71 259.64,-3.88 401.46,-9.88 91.02,-3.88 123.47,108.31 160.16,170.39 9.17,15.53 24.7,25.76 42.69,28.23 75.14,10.23 140.4,-7.76 195.08,-53.98 22.23,-18.7 28.93,-50.45 15.88,-76.9l-58.21 -115.72c-17.99,-36.33 -7.06,-80.78 26.11,-104.42l215.9 -154.87c24.34,-17.64 57.5,-18.69 82.9,-2.47 75.49,47.98 140.05,117.13 237.77,69.15 58.56,-28.58 61.38,-134.06 54.33,-186.62 -1.41,-13.41 -9.17,-25.05 -20.82,-32.1l-113.59 -68.09c-29.99,-17.99 -38.81,-43.04 -27.16,-75.49l113.94 -313.62c8.82,-23.99 36.34,-35.28 59.27,-23.99l75.14 36.33c36.69,17.64 80.43,-1.76 92.43,-40.57 15.87,-52.21 20.81,-109 14.11,-170.04 -3.88,-37.04 -24.34,-58.91 -61.38,-65.26l-110.42 -19.05c-26.11,-4.59 -46.92,-24.34 -53.27,-50.09l-61.74 -258.24c-10.23,-42.68 9.17,-86.78 47.63,-107.95 47.62,-26.1 87.13,-54.68 118.53,-85.37 32.1,-31.4 29.99,-83.61 -3.88,-112.89l-100.89 -87.49c-17.29,-14.81 -43.04,-15.52 -61.39,-1.41 -66.67,52.21 -155.57,86.43 -225.42,22.58 -45.51,-41.98 -82.91,-85.02 -112.89,-128.76 -7.76,-11.65 -9.53,-26.46 -3.88,-39.52 20.46,-49.03 50.8,-97.01 91.01,-143.22 28.93,-33.87 26.82,-83.96 -4.93,-115.01 -51.86,-50.8 -121.01,-72.67 -207.09,-65.62 -12.34,0.71 -23.63,8.12 -29.28,19.41l-62.08 120.29c-15.88,31.05 -51.51,45.87 -84.67,35.99l-303.04 -92.78c-25.04,-7.41 -40.57,-32.46 -36.69,-58.21l12.7 -88.55c4.59,-29.98 -14.46,-58.56 -44.09,-66.32 -61.74,-15.88 -128.06,-14.11 -198.26,4.94 -21.88,6 -31.75,20.11 -29.64,42.68l12.7 138.29c1.41,15.17 -9.52,29.28 -24.69,31.75 -103.37,16.58 -200.38,45.51 -290.69,86.79 -17.29,7.76 -37.75,2.82 -49.39,-12.35l-142.17 -184.5c-9.52,-12.35 -22.22,-16.58 -37.39,-12.35 -46.22,12.7 -89.96,35.28 -130.88,67.73 -98.08,77.61 9.87,203.56 59.61,268.82 10.24,13.76 8.82,33.16 -3.52,45.16l-218.73 212.72c-13.4,13.05 -34.22,15.52 -50.44,6 -69.5,-41.28 -179.21,-108.66 -263.17,-78.67 -12,4.58 -20.47,12.7 -25.05,24.69 -21.52,57.15 -64.91,141.11 -0.35,188.03 53.97,39.51 108.65,72.68 163.33,99.13 28.22,13.76 41.98,46.57 31.75,76.2 -27.16,80.08 -45.15,161.93 -53.27,245.54 -3.17,32.45 -28.93,58.56 -61.38,61.73l-113.24 11.29c-32.46,3.18 -58.92,27.17 -65.27,59.27 -10.93,57.5 -7.41,118.18 11.29,182.03 12.35,40.57 39.16,56.45 80.44,47.63l87.48 -18.7c42.69,-9.53 85.02,17.64 94.9,60.32 16.93,74.44 44.1,142.88 81.49,204.97z"/>
   <path class="fil0 str4" d="M23725.15 13182.7c-34.43,-482 -458.47,-844.65 -946.86,-809.59 -488.45,35.14 -856.4,454.24 -821.69,936.38 34.43,482 458.47,844.66 946.86,809.63 488.45,-35.18 856.4,-454.28 821.69,-936.42z"/>
   <path class="fil0 str4" d="M23029.61 13077.82c-28.93,0 -52.21,-23.28 -51.86,-52.21l2.47 -392.64c0.35,-29.63 -23.99,-53.27 -53.62,-52.21l-197.2 5.99c-28.23,1.06 -50.45,24.35 -50.1,52.57l4.59 386.29c0.35,28.93 -22.93,52.56 -51.86,52.21l-422.63 -1.41c-28.57,0 -51.86,22.93 -52.21,51.51l-2.47 193.32c-0.35,28.93 22.93,52.56 51.86,52.56l427.57 0.71c28.92,0 52.56,23.99 51.86,52.91l-8.47 412.75c-0.71,28.93 22.58,52.57 51.86,52.92l199.32 0.35c28.92,0.36 52.21,-23.28 52.21,-52.21l-3.53 -414.16c0,-28.93 22.93,-52.21 51.86,-52.56l425.8 -1.41c28.93,-0.36 51.86,-23.64 51.86,-52.57l-2.12 -191.2c0,-28.23 -23.28,-51.16 -51.86,-51.16l-423.33 -0.35z"/>
   <path class="fil0 str3" d="M14135.98 17896.87c101.7,20 235.76,-226.59 299.26,-550.65 63.5,-323.99 32.81,-603.04 -69.04,-622.9 -101.71,-20 -235.76,226.59 -299.3,550.65 -63.46,323.99 -32.77,603.04 69.08,622.9z"/>
   <path class="fil0 str3" d="M18389.95 17899.16c101.88,19.83 235.23,-227.11 298.48,-551.85 63.04,-324.37 31.65,-603.77 -70.02,-623.46 -101.89,-19.83 -235.24,227.12 -298.45,551.85 -63.08,324.38 -31.68,603.78 69.99,623.46z"/>
   <path class="fil0 str3" d="M26920.04 17137.59c-9.17,59.62 59.62,99.83 107.25,62.44l114.65 -90.31c14.47,-11.29 23.64,-27.87 25.4,-45.86l23.99 -249.77c3.53,-34.22 -19.76,-65.26 -53.62,-71.97l-84.67 -16.22c-37.04,-7.06 -72.67,17.99 -78.67,55.38l-54.33 356.31z"/>
   <path class="fil0 str3" d="M36811.23 17152.05c-8.12,50.1 48.33,84.67 89.25,55.04l131.59 -94.9c12.7,-9.17 21.16,-23.29 22.93,-39.16l31.04 -261.76c3.18,-27.17 -13.76,-52.92 -40.22,-61.03l-100.89 -29.99c-32.81,-9.88 -67.03,11.29 -72.32,45.51l-61.38 386.29z"/>
   <path class="fil0 str3" d="M39098.99 16751.65l-67.03 351.37c-4.23,22.93 10.59,44.8 33.52,49.03l39.86 7.76c87.49,16.58 172.86,-45.15 190.5,-137.93l18.7 -97.72c17.64,-92.78 -38.81,-181.68 -126.65,-198.26l-39.86 -7.41c-22.58,-4.59 -44.81,10.58 -49.04,33.16z"/>
   <path class="fil0 str3" d="M38924.72 17826.92c-8.47,55.74 49.39,97.72 99.48,72.32l173.57 -88.2c20.46,-10.58 34.57,-30.69 37.04,-53.62l38.81 -326.32c4.58,-37.75 -22.93,-72.32 -61.03,-76.55l-146.05 -16.94c-36.69,-4.23 -70.56,21.52 -76.2,58.56l-65.62 430.75z"/>
   <path class="fil0 str3" d="M43321.56 17892.6c101.43,19.34 233.37,-226.2 294.96,-548.53 61.53,-322.19 29.07,-599.12 -72.32,-618.6 -101.46,-19.33 -233.39,226.2 -294.99,548.54 -61.52,322.19 -29.07,599.12 72.35,618.59z"/>
   <path class="fil0 str3" d="M28164.29 17065.62c-42.33,94.19 -70.2,201.44 -103.01,302.68 -10.94,32.81 1.06,47.63 35.63,44.45l62.44 -5.99c31.4,-3.18 46.57,-20.46 45.16,-51.86 -3.53,-87.84 -1.77,-180.62 5.29,-277.64 6.35,-89.96 -8.82,-93.84 -45.51,-11.64z"/>
   <path class="fil0 str3" d="M29210.28 16765.76l-185.21 1041.05c-7.06,38.1 18.34,74.43 56.44,81.14l58.56 10.23c115.01,20.46 235.31,-115.71 268.82,-304.1l88.55 -496c33.51,-188.74 -32.46,-358.07 -147.46,-378.53l-58.56 -10.59c-38.1,-6.7 -74.09,18.7 -81.14,56.8z"/>
   <path class="fil0 str3" d="M30344.11 17397.94l92.78 18.7c4.58,1.05 9.17,-2.12 9.87,-6.71l1.41 -6.35c43.75,-214.49 55.74,-392.99 26.82,-398.99l-4.94 -1.06c-28.58,-5.64 -87.49,163.34 -130.88,377.83l-1.41 6.35c-1.06,4.58 1.76,9.17 6.35,10.23z"/>
   <path class="fil0 str3" d="M34167.55 17896.73c102.27,19.79 235.97,-226.45 298.83,-549.98 62.73,-323.46 30.98,-602.16 -71.05,-621.88 -102.23,-19.79 -235.93,226.45 -298.8,549.98 -62.72,323.47 -30.97,602.16 71.02,621.88z"/>
   <path class="fil0 str3" d="M37963.05 17398.64l90.31 19.41c5.29,1.05 10.23,-2.47 11.29,-7.41l1.41 -6c45.15,-211.31 58.56,-387.7 29.63,-394.05l-4.23 -0.71c-28.93,-6.35 -89.25,160.16 -134.41,371.48l-1.41 5.99c-1.06,4.94 2.12,10.24 7.41,11.29z"/>
   <path class="fil0 str3" d="M40096.65 17384.53c-3.53,11.64 4.58,23.29 16.58,24.7 35.98,3.88 71.96,0.35 108.3,-10.94 13.76,-4.23 22.93,-17.29 22.58,-31.75l-9.53 -348.54c0,-6.35 -4.94,-11.29 -10.93,-12.35 -6,-0.71 -12,2.82 -13.76,8.82l-113.24 370.06z"/>
   <path class="fil1" d="M23980.35 11475.15l426.15 -239.18c48.33,-27.17 108.66,-20.11 149.58,17.28 112.54,103.72 261.06,235.31 322.09,375.36 4.94,11.29 4.58,22.23 -1.06,33.16 -54.68,103.72 -124.89,221.55 -210.96,353.48 -80.79,123.83 -46.92,238.48 70.55,333.03 11.29,9.17 25.4,14.11 39.87,13.76 81.49,-1.42 161.22,-2.12 242.71,10.23 81.14,12.34 160.86,16.93 239.18,14.11 30.69,-1.06 57.86,20.81 62.8,51.15 15.52,92.07 36.68,176.04 63.14,251.53 27.87,79.02 33.87,174.27 17.64,286.1 -2.12,14.47 -9.88,25.05 -23.28,31.75l-431.1 211.67c-13.05,6 -20.81,16.23 -23.99,30.34 -13.05,60.32 -22.22,123.12 -27.51,189.09 -5.29,60.68 36.69,100.19 80.78,132.99 114.3,85.02 227.9,165.81 341.14,242.72 39.16,26.45 55.74,76.55 39.86,121.35l-147.81 419.45c-10.23,28.58 -30.34,42.34 -61.03,40.93 -153.46,-6.71 -300.57,-20.46 -441.33,-41.28 -27.86,-3.88 -56.09,-3.88 -84.66,0 -87.14,12.7 -164.4,170.39 -187.68,238.13 -6.7,19.75 -6.35,40.92 1.06,60.67l168.98 437.1c15.17,39.51 2.82,84.31 -30.69,110.42l-321.74 250.47c-35.63,27.51 -85.37,27.16 -120.29,-1.41 -115.36,-94.2 -231.78,-188.03 -349.25,-281.17 -41.28,-32.81 -86.08,-41.27 -137.59,-25.04 -112.53,35.63 -236.36,74.08 -259.64,199.31 -29.28,160.87 -62.09,311.51 -97.72,451.91 -5.29,21.52 -23.28,37.75 -45.16,41.28 -144.28,22.58 -292.1,34.92 -443.44,37.39 -35.98,0.36 -59.62,-16.23 -70.91,-50.09l-162.27 -484.72c-9.88,-29.98 -35.28,-51.86 -66.33,-57.5l-261.05 -47.63c-23.28,-4.23 -47.27,3.53 -63.85,20.46l-360.9 365.13c-13.75,13.76 -34.22,17.99 -52.21,10.23 -133.7,-57.5 -264.58,-125.59 -392.29,-204.26 -36.33,-22.58 -52.91,-66.67 -40.21,-107.24 37.74,-121.01 74.08,-252.24 109.01,-393.7 16.58,-67.74 7.76,-125.24 -26.82,-172.51 -57.15,-77.61 -155.22,-215.2 -266.7,-190.5 -127.35,28.22 -267.05,61.03 -418.74,98.78 -65.27,16.58 -112.89,-5.65 -142.88,-66.33l-172.15 -349.95c-12,-24.7 -7.76,-53.98 10.23,-74.08 96.31,-107.6 203.55,-206.38 322.44,-296.69 134.4,-102.31 48.68,-274.81 12.7,-398.99 -7.76,-26.81 -25.05,-44.8 -51.51,-53.98l-427.21 -144.64c-25.05,-8.46 -41.63,-32.45 -40.57,-58.56l15.52 -451.2c1.76,-49.39 26.81,-78.32 75.14,-87.14l482.25 -86.78c12.7,-2.12 23.99,-8.47 32.81,-17.99 79.72,-85.37 159.45,-252.94 74.43,-363.36 -83.61,-109.01 -167.57,-217.67 -252.23,-326.67 -29.64,-38.46 -28.93,-92.08 1.76,-129.83l261.76 -319.97c28.58,-34.92 76.55,-46.92 117.83,-29.63l441.32 183.8c13.41,5.64 27.87,6.7 41.63,3.88 91.02,-19.4 164.4,-65.27 220.49,-136.88 10.23,-13.05 15.17,-29.63 13.76,-46.21l-40.57 -488.25c-3.88,-46.92 16.58,-77.96 61.38,-93.13l451.56 -151.7c29.63,-9.87 62.09,2.47 77.25,29.99 79.03,142.52 184.51,316.09 306.92,436.39 35.63,34.92 102.66,36.33 201.08,4.23 51.16,-16.58 88.2,-50.09 111.84,-99.84 61.73,-132.64 129.82,-261.4 203.55,-386.64 13.4,-22.58 40.21,-33.87 65.61,-27.52l465.67 112.19c21.52,4.94 38.81,20.46 46.22,41.27 55.38,149.93 28.57,341.84 33.51,498.12 3.88,123.83 101.6,146.41 189.79,192.27 14.11,7.41 28.23,7.05 42.34,-0.71zm372.88 1772.36c0,-843.85 -684.39,-1528.24 -1528.23,-1528.24 -843.84,0 -1528.23,684.39 -1528.23,1528.24 0,843.84 684.39,1528.23 1528.23,1528.23 843.84,0 1528.23,-684.39 1528.23,-1528.23z"/>
   <path class="fil1" d="M15528.85 11860.39c9.88,91.01 21.17,155.22 34.22,192.26 332.67,945.09 -162.28,1921.93 -1126.42,2193.92 -178.51,50.45 -414.16,74.44 -706.61,71.97 -297.04,-2.47 -595.85,-1.76 -896.77,2.47 -38.45,0.35 -57.49,19.76 -57.49,57.86l1.4 856.19c0,32.1 -16.23,48.33 -48.32,47.98l-393.35 -3.18 -107.96 3.53c-31.05,1.06 -46.56,-14.11 -46.92,-45.16 -1.77,-1354.31 -1.77,-2710.04 -0.7,-4066.82 0,-65.62 2.46,-134.06 7.05,-205.67 1.06,-16.58 9.88,-25.05 26.46,-24.69 473.42,1.41 1001.89,2.11 1585.39,2.47 269.52,0 538.34,17.28 792.34,115.35 417.68,161.58 674.86,437.8 937.68,801.52zm-2397.49 1644.29c235.67,8.82 472.03,11.64 709.09,8.47 209.2,-3.18 367.95,-25.05 476.25,-66.32 479.08,-182.04 736.25,-809.28 420.52,-1255.54 -39.16,-99.84 -98.43,-180.97 -177.8,-244.12 -202.15,-160.52 -409.23,-203.2 -678.4,-201.08 -360.89,2.46 -716.14,1.76 -1065.73,-2.12 -22.59,-0.35 -41.28,18.34 -41.28,40.92l6 1668.99c0,18.7 14.81,34.22 33.51,35.28l317.84 15.52z"/>
   <path class="fil1" d="M38477.4 11314.64c121.71,342.19 237.42,684.74 346.42,1027.99 157.7,496.36 316.09,976.14 474.49,1438.63 17.99,52.92 36.69,99.84 56.09,141.11 20.82,44.8 38.46,43.39 52.92,-3.88l91.37 -303.39 866.77 -2628.19c10.94,-33.16 34.22,-49.74 69.15,-49.74l766.58 0.7c14.82,0 26.82,12 27.17,26.81l3.53 381.36 -3.53 3909.83c0,12.7 -9.88,22.93 -22.58,23.28l-361.95 6.71 -387 -12.35c-20.46,-0.71 -37.04,-17.29 -37.74,-37.75l-9.88 -327.73c18.7,-461.08 20.46,-935.56 6,-1424.16 -1.06,-35.63 -12,-39.16 -33.52,-10.23 -33.51,45.51 -23.63,109.01 -42.33,164.04 -164.4,485.77 -340.08,1015.29 -527.05,1588.91 -9.88,30.69 -38.45,51.86 -70.91,52.56l-515.76 11.29 -220.84 -13.05c-39.51,-2.47 -65.62,-22.22 -77.96,-59.62l-263.88 -804.33 -311.15 -915.11c-15.17,-44.8 -28.22,-44.45 -39.16,1.77 -1.06,4.94 -1.41,22.22 -1.06,51.85 3.18,158.75 6,317.5 9.17,476.61 8.12,401.46 -7.05,807.51 3.88,1210.73 0.71,20.81 -15.87,38.1 -36.68,38.81l-375.71 9.87 -351.72 -15.87c-26.11,-1.06 -46.57,-22.93 -45.86,-49.04l4.58 -190.85c21.17,-262.82 22.93,-526.7 5.29,-790.93l-4.23 -1656.29c9.17,-32.45 9.17,-67.73 0.35,-105.48l-0.35 -1503.54c0,-20.46 16.58,-37.04 37.4,-37.39l782.81 -2.47c15.17,-0.36 28.93,9.88 33.16,24.34l103.72 354.19z"/>
   <path class="fil1" d="M19518.06 11761.25c27.16,97.02 58.21,191.56 93.13,284.34 45.51,121.01 74.44,215.9 86.08,285.4 85.02,506.59 -32.45,961.67 -352.07,1365.25 -76.2,96.66 -170.39,169.69 -254,257.88 -11.99,13.05 -16.23,31.75 -10.58,48.33 68.79,202.5 209.19,343.96 420.51,424.75 57.85,27.16 124.53,44.8 200.38,53.27 11.99,1.05 21.51,6.7 28.22,16.22 17.64,24.35 20.46,62.09 8.11,113.25 -6.35,143.58 -20.11,283.98 -5.64,426.86 6.7,68.44 10.58,135.82 10.93,202.49 0.36,15.88 -11.99,29.28 -27.87,30.34 -68.44,4.59 -137.58,1.41 -207.43,-9.88 -97.72,-15.87 -277.28,-68.79 -539.4,-158.04l-428.62 -398.29c-86.43,-117.12 -151.7,-240.24 -195.79,-369 -6.71,-19.76 -25.4,-32.81 -46.22,-32.46 -119.59,3.53 -240.24,15.52 -355.6,15.52 -322.44,-0.35 -670.98,0.71 -1045.63,2.82 -41.98,0.36 -62.8,21.17 -62.8,63.15l0 860.07c0,17.29 -13.4,31.4 -30.69,32.11l-356.66 14.81 -385.23 -17.64c-16.58,-0.7 -29.63,-14.11 -29.63,-30.69l0 -4264.02c0,-21.52 10.58,-32.1 32.1,-32.46 664.28,-3.88 1309.86,-4.23 1936.4,-1.06 497.06,2.47 918.28,176.04 1264.35,520.35 54.33,53.98 139,152.75 253.65,296.33zm-2301.17 1739.55c340.43,20.82 638.88,21.52 896.06,2.12 240.94,-18.35 440.26,-117.12 597.6,-296.33 242.01,-275.52 307.62,-710.85 83.96,-1014.59 -51.85,-121.01 -129.82,-216.61 -233.89,-286.81 -152.4,-103.37 -327.73,-155.22 -525.64,-156.28 -386.64,-2.12 -770.11,-3.53 -1150.41,-4.24 -28.57,0 -51.5,23.29 -51.5,51.86l7.05 1639.36c0.36,26.81 21.52,49.04 48.33,50.1l328.44 14.81z"/>
   <path class="fil1" d="M28969.68 11693.17l87.49 473.43c7.76,41.98 -9.88,63.14 -52.56,63.85l-553.51 8.47c-32.81,-1.42 -80.43,-7.41 -142.88,-18 -46.21,-7.76 -69.49,-31.04 -69.85,-70.2 -31.39,-174.62 -120.65,-293.51 -268.46,-357.01 -88.55,-38.45 -211.31,-56.44 -368.3,-53.97 -306.56,4.58 -609.25,5.99 -908.05,4.23 -213.43,-1.41 -365.48,74.79 -456.14,228.95 -75.5,128.77 -92.43,262.47 -51.15,401.46 44.8,149.93 155.22,253.3 331.25,310.8 22.93,2.82 44.81,7.06 65.62,12.35 23.99,6.35 47.98,9.52 72.32,9.52 357.36,2.47 723.2,4.94 1097.14,7.41 354.54,2.82 659.34,124.18 913.69,364.42 73.03,68.79 174.28,194.73 303.75,378.18 6.7,62.79 28.22,179.56 65.26,350.31 45.51,208.84 18.34,433.91 -81.14,674.86 -149.58,363.01 -410.63,605.01 -782.81,726.72 -160.87,52.21 -345.02,63.5 -515.76,66.68 -370.42,7.05 -740.84,5.64 -1111.25,-4.59 -119.95,-3.17 -301.63,-46.92 -545.4,-130.53 -75.85,-65.97 -150.99,-132.99 -225.07,-201.08 -240.6,-220.49 -427.57,-565.5 -402.17,-899.23 2.12,-27.16 24.7,-48.33 51.86,-47.98l705.56 6.7c26.1,0.36 46.92,21.17 47.62,46.92 3.18,135.47 54.33,238.83 152.75,309.74 104.78,75.85 291.05,122.06 427.57,123.47 324.91,3.53 658.64,2.12 1001.54,-4.58 298.09,-5.65 570.79,-270.58 469.54,-578.2 -36.68,-234.25 -239.18,-375.71 -466.72,-382.77 -375.71,-11.29 -742.95,4.59 -1140.53,-9.52 -93.49,-3.18 -193.68,-17.29 -300.57,-41.63 -96.31,-21.87 -195.44,-43.75 -297.39,-65.97 -91.37,-82.9 -185.21,-168.98 -281.52,-258.59 -161.22,-149.93 -233.18,-301.62 -311.5,-494.59 -25.4,-63.15 -43.39,-128.76 -53.62,-196.15 -125.24,-815.26 466.37,-1497.54 1287.99,-1501.42 232.83,-1.06 463.55,-2.82 692.5,-5.29 320.68,-3.88 543.63,7.76 668.87,34.22 442.74,94.19 693.21,342.55 944.03,718.61z"/>
   <path class="fil1" d="M33123.64 11355.21l-3.88 347.48c-0.35,23.64 -19.4,42.69 -43.04,42.69l-2820.1 0.35c-23.64,0 -43.04,19.41 -43.04,43.04l-4.94 865.72c0,31.75 15.87,47.62 47.27,47.62l313.27 0.36 1710.97 10.23c17.29,0.35 31.04,14.11 30.69,31.39l-3.17 288.93c-15.88,135.11 -14.82,277.63 3.17,427.57 3.18,25.04 -16.23,46.91 -41.27,46.91l-2028.48 2.83c-17.28,0 -31.04,14.11 -31.04,31.39l-2.47 875.95c0,16.23 11.29,30.34 27.16,34.22 115.01,27.87 227.55,35.98 337.26,24.34l2515.66 2.47c15.87,0 28.57,12.7 28.93,28.58l3.52 388.76 -0.7 334.08c0,31.75 -15.88,47.62 -47.63,47.98l-3287.18 5.64 -347.13 -13.4c-19.76,-0.71 -35.28,-17.64 -34.58,-37.4 8.12,-194.73 12,-353.84 12,-476.95 -0.35,-626.89 -1.77,-1260.83 -4.59,-1901.83 -1.41,-250.82 7.41,-474.13 2.82,-737.66 -5.99,-340.43 -5.99,-723.55 -0.35,-1149.7 0.35,-13.05 10.59,-23.64 23.64,-23.64l3631.85 -0.7c30.69,0 46.56,15.52 47.27,46.21l8.11 366.54z"/>
   <path class="fil1" d="M37100.51 11703.05c5.99,75.14 4.23,146.05 22.22,216.95 20.81,82.2 37.75,167.57 50.09,256.12 3.89,27.87 -17.63,52.92 -45.86,53.62l-566.56 12c-46.21,-2.47 -90.31,-7.76 -132.99,-15.88 -30.7,-5.99 -56.8,-20.46 -77.97,-43.04 -25.75,-186.62 -110.42,-313.97 -254.35,-382.76 -85.37,-40.92 -220.84,-60.68 -406.75,-59.62 -377.83,2.47 -680.87,4.59 -909.11,6 -184.51,1.41 -324.91,71.26 -420.51,209.2 -127.71,184.15 -112.54,424.39 36.33,590.19 70.21,78.32 150.29,124.89 240.24,139.35 78.67,17.99 139.35,26.81 181.68,26.46 259.65,-1.77 516.82,-2.82 771.88,-2.47 322.44,0.35 546.81,21.52 672.75,63.5 402.52,133.7 580.32,367.59 828.67,691.8 15.53,96.66 19.76,191.55 42.34,286.1 126.65,529.17 -134.06,1059.39 -582.09,1338.79 -193.67,120.65 -420.51,170.39 -648.75,179.21 -320.68,12.35 -658.99,15.17 -1014.59,8.47 -297.75,-5.65 -564.09,-57.86 -798.69,-156.28 -62.09,-53.27 -126.3,-110.42 -192.27,-171.81 -263.52,-245.53 -408.16,-548.21 -433.91,-907.69 -1.41,-21.17 14.81,-39.51 35.98,-40.22 249.77,-10.94 501.3,-10.23 754.59,2.47 14.82,0.71 27.17,12.7 28.23,27.52 13.05,172.51 82.55,290.69 209.19,355.24 132.29,67.38 275.52,93.84 421.22,93.84 308.68,0 614.54,-0.7 917.22,-2.11 227.54,-1.06 389.47,-92.43 486.13,-273.41 52.56,-98.77 60.32,-201.43 22.93,-307.97 -51.51,-330.2 -321.38,-387.35 -612.42,-388.06 -326.32,-0.7 -652.64,-0.35 -979.31,0.71 -182.39,0.7 -402.52,-52.92 -659.7,-160.87 -169.68,-134.05 -294.92,-256.82 -375.35,-367.95 -192.27,-266.34 -270.23,-584.9 -234.25,-955.67 10.94,-109.36 61.74,-204.61 99.84,-306.92 15.52,-41.98 35.28,-83.25 58.91,-123.12 250.47,-420.86 628.3,-636.76 1133.12,-648.05 547.87,-12.35 945.45,-10.94 1192.39,4.59 303.39,19.05 564.45,128.06 783.17,327.37 47.98,43.4 109.01,112.89 183.09,207.79 58.21,74.44 115.71,146.76 173.22,216.61z"/>
   <path class="fil1" d="M45282.48 11320.64l12.7 398.28c0.71,19.76 -8.82,29.63 -28.57,29.63l-1393.48 -1.41c-23.63,0 -42.68,19.05 -42.68,42.34l-1.06 3446.64c0,23.98 -19.05,43.39 -43.04,43.74l-359.83 6.35 -376.77 -13.41c-16.58,-0.7 -29.63,-14.11 -29.63,-30.69l4.58 -3131.25 -10.23 -329.14c-0.35,-16.94 -14.11,-30.34 -31.04,-30.34l-1026.23 -3.53 -333.38 -11.29c-27.87,-10.94 -40.92,-34.92 -39.51,-71.97 5.29,-130.17 3.18,-243.41 -7.05,-339.72l-2.83 -340.43c-0.35,-22.58 17.99,-40.92 40.22,-40.92l3646.31 -0.71c11.64,0 21.17,9.53 21.17,21.52l0.35 356.31z"/>
   <path class="fil2" d="M41577.26 11324.87c10.23,96.31 12.34,209.55 7.05,339.72 -1.41,37.05 11.64,61.03 39.51,71.97l-17.99 8.82c-10.94,5.29 -16.58,13.76 -16.58,25.75l5.29 3862.92c0,20.11 -9.88,30.34 -29.63,30.69 -237.07,8.11 -473.78,9.53 -710.14,4.23 -35.99,-1.05 -65.27,-29.63 -66.33,-65.61 -1.76,-53.27 -1.76,-110.77 0,-172.86 1.06,-43.4 19.76,-91.73 55.39,-144.64l361.95 -6.71c12.7,-0.35 22.58,-10.58 22.58,-23.28l3.53 -3909.83 345.37 -21.17z"/>
   <path class="fil2" d="M38477.4 11314.64c68.08,11.99 129.82,17.99 185.21,18.34 47.62,0 78.66,21.87 93.13,65.27 234.95,710.49 457.9,1386.06 668.87,2026.7 19.4,59.62 36.33,122.07 50.44,186.62 1.41,6.71 8.12,10.59 14.47,8.82 3.17,-0.7 5.99,-2.47 9.17,-5.29l-91.37 303.39c-14.46,47.27 -32.1,48.68 -52.92,3.88 -19.4,-41.27 -38.1,-88.19 -56.09,-141.11 -158.4,-462.49 -316.79,-942.27 -474.49,-1438.63 -109,-343.25 -224.71,-685.8 -346.42,-1027.99z"/>
   <path class="fil2" d="M45282.48 11320.64c42.69,35.63 92.43,44.09 148.87,25.75 29.64,-9.53 59.97,11.99 61.03,43.04l20.11 701.32c0.71,25.05 -19.4,45.51 -44.45,45.86l-1255.89 0.35c-13.76,0 -20.81,7.06 -20.81,21.17 1.76,1096.79 4.23,2182.28 7.41,3256.14 0.35,73.38 -1.41,152.4 -4.59,236.71 -0.35,10.94 -9.17,19.41 -20.11,19.41l-726.72 -1.77c-21.87,-0.35 -39.16,-18.34 -38.1,-40.22l17.29 -342.19 359.83 -6.35c23.99,-0.35 43.04,-19.76 43.04,-43.74l1.06 -3446.64c0,-23.29 19.05,-42.34 42.68,-42.34l1393.48 1.41c19.75,0 29.28,-9.87 28.57,-29.63l-12.7 -398.28z"/>
   <path class="fil2" d="M30569.18 12702.47l-313.27 -0.36c-31.4,0 -47.27,-15.87 -47.27,-47.62l4.94 -865.72c0,-23.63 19.4,-43.04 43.04,-43.04l2820.1 -0.35c23.64,0 42.69,-19.05 43.04,-42.69l3.88 -347.48 308.33 -7.41c30.69,-0.71 55.74,23.99 55.39,54.68 -2.83,234.6 -22.58,458.96 -58.92,673.1 -6,36.34 -37.39,62.79 -74.08,62.79l-2742.14 -1.05c-19.76,0 -35.99,15.87 -36.34,35.63l-6.7 529.52z"/>
   <path class="fil2" d="M28969.68 11693.17c210.61,140.76 340.08,337.61 389.12,589.84 17.28,88.55 30.34,173.22 39.86,254 2.82,25.05 -11.99,48.69 -35.63,57.15 -43.04,15.53 -87.49,23.29 -133.35,23.29 -179.56,0 -358.42,-0.36 -535.87,-1.06 -36.34,-0.35 -67.38,-25.75 -75.14,-61.03 -26.81,-125.94 -82.55,-231.42 -167.57,-316.44l553.51 -8.47c42.68,-0.71 60.32,-21.87 52.56,-63.85l-87.49 -473.43z"/>
   <path class="fil2" d="M37100.51 11703.05c254.35,193.32 394.4,452.26 420.15,776.46 8.82,37.75 8.82,73.03 -0.35,105.48 -51.15,20.46 -99.84,30.69 -145.7,31.05 -194.02,1.05 -382.76,1.05 -566.56,0.7 -41.98,-0.35 -77.61,-30.34 -85.02,-71.26 -21.52,-121.71 -75.84,-222.96 -162.63,-303.74l566.56 -12c28.23,-0.7 49.75,-25.75 45.86,-53.62 -12.34,-88.55 -29.28,-173.92 -50.09,-256.12 -17.99,-70.9 -16.23,-141.81 -22.22,-216.95z"/>
   <path class="fil3" d="M24353.23 13247.51c0,843.84 -684.39,1528.23 -1528.23,1528.23 -843.84,0 -1528.23,-684.39 -1528.23,-1528.23 0,-843.85 684.39,-1528.24 1528.23,-1528.24 843.84,0 1528.23,684.39 1528.23,1528.24zm-2552.7 490.36c6,10.23 5.29,23.28 -2.47,32.45 -54.68,65.97 -116.06,111.83 -184.15,138.29 -27.16,10.59 -33.16,28.23 -17.28,52.92 21.87,34.22 41.27,70.2 58.21,107.6 27.87,62.09 71.26,76.2 130.17,42.33l152.05 -87.14c18.34,-10.23 41.63,-6.7 56.09,8.47 85.72,90.66 184.15,166.86 295.27,228.6 39.16,21.87 49.39,73.38 21.17,107.95l-32.81 40.92c-20.81,25.76 -17.28,63.5 8.12,84.67 49.03,40.57 107.95,70.56 176.74,89.61 28.93,8.11 59.27,-7.77 69.14,-35.99 26.11,-73.73 28.58,-156.98 134.06,-157.69 125.94,-0.71 259.64,-3.88 401.46,-9.88 91.02,-3.88 123.47,108.31 160.16,170.39 9.17,15.53 24.7,25.76 42.69,28.23 75.14,10.23 140.4,-7.76 195.08,-53.98 22.23,-18.7 28.93,-50.45 15.88,-76.9l-58.21 -115.72c-17.99,-36.33 -7.06,-80.78 26.11,-104.42l215.9 -154.87c24.34,-17.64 57.5,-18.69 82.9,-2.47 75.49,47.98 140.05,117.13 237.77,69.15 58.56,-28.58 61.38,-134.06 54.33,-186.62 -1.41,-13.41 -9.17,-25.05 -20.82,-32.1l-113.59 -68.09c-29.99,-17.99 -38.81,-43.04 -27.16,-75.49l113.94 -313.62c8.82,-23.99 36.34,-35.28 59.27,-23.99l75.14 36.33c36.69,17.64 80.43,-1.76 92.43,-40.57 15.87,-52.21 20.81,-109 14.11,-170.04 -3.88,-37.04 -24.34,-58.91 -61.38,-65.26l-110.42 -19.05c-26.11,-4.59 -46.92,-24.34 -53.27,-50.09l-61.74 -258.24c-10.23,-42.68 9.17,-86.78 47.63,-107.95 47.62,-26.1 87.13,-54.68 118.53,-85.37 32.1,-31.4 29.99,-83.61 -3.88,-112.89l-100.89 -87.49c-17.29,-14.81 -43.04,-15.52 -61.39,-1.41 -66.67,52.21 -155.57,86.43 -225.42,22.58 -45.51,-41.98 -82.91,-85.02 -112.89,-128.76 -7.76,-11.65 -9.53,-26.46 -3.88,-39.52 20.46,-49.03 50.8,-97.01 91.01,-143.22 28.93,-33.87 26.82,-83.96 -4.93,-115.01 -51.86,-50.8 -121.01,-72.67 -207.09,-65.62 -12.34,0.71 -23.63,8.12 -29.28,19.41l-62.08 120.29c-15.88,31.05 -51.51,45.87 -84.67,35.99l-303.04 -92.78c-25.04,-7.41 -40.57,-32.46 -36.69,-58.21l12.7 -88.55c4.59,-29.98 -14.46,-58.56 -44.09,-66.32 -61.74,-15.88 -128.06,-14.11 -198.26,4.94 -21.88,6 -31.75,20.11 -29.64,42.68l12.7 138.29c1.41,15.17 -9.52,29.28 -24.69,31.75 -103.37,16.58 -200.38,45.51 -290.69,86.79 -17.29,7.76 -37.75,2.82 -49.39,-12.35l-142.17 -184.5c-9.52,-12.35 -22.22,-16.58 -37.39,-12.35 -46.22,12.7 -89.96,35.28 -130.88,67.73 -98.08,77.61 9.87,203.56 59.61,268.82 10.24,13.76 8.82,33.16 -3.52,45.16l-218.73 212.72c-13.4,13.05 -34.22,15.52 -50.44,6 -69.5,-41.28 -179.21,-108.66 -263.17,-78.67 -12,4.58 -20.47,12.7 -25.05,24.69 -21.52,57.15 -64.91,141.11 -0.35,188.03 53.97,39.51 108.65,72.68 163.33,99.13 28.22,13.76 41.98,46.57 31.75,76.2 -27.16,80.08 -45.15,161.93 -53.27,245.54 -3.17,32.45 -28.93,58.56 -61.38,61.73l-113.24 11.29c-32.46,3.18 -58.92,27.17 -65.27,59.27 -10.93,57.5 -7.41,118.18 11.29,182.03 12.35,40.57 39.16,56.45 80.44,47.63l87.48 -18.7c42.69,-9.53 85.02,17.64 94.9,60.32 16.93,74.44 44.1,142.88 81.49,204.97z"/>
   <path class="fil2" d="M14737.22 12191.29c-154.17,-25.75 -307.27,-49.39 -462.85,-51.5 -371.12,-5.65 -737.66,-5.65 -1099.25,0 -19.06,0.35 -34.22,15.87 -34.58,35.27l-9.18 1329.62 -317.84 -15.52c-18.7,-1.06 -33.51,-16.58 -33.51,-35.28l-6 -1668.99c0,-22.58 18.69,-41.27 41.28,-40.92 349.59,3.88 704.84,4.58 1065.73,2.12 269.17,-2.12 476.25,40.56 678.4,201.08 79.37,63.15 138.64,144.28 177.8,244.12z"/>
   <path class="fil2" d="M18794.51 12192c-159.8,-34.22 -275.16,-51.51 -346.42,-51.86 -399.7,-1.77 -796.93,-2.47 -1190.98,-1.41 -13.41,0 -24.34,10.93 -24.7,24.34l-15.52 1337.73 -328.44 -14.81c-26.81,-1.06 -47.97,-23.29 -48.33,-50.1l-7.05 -1639.36c0,-28.57 22.93,-51.86 51.5,-51.86 380.3,0.71 763.77,2.12 1150.41,4.24 197.91,1.06 373.24,52.91 525.64,156.28 104.07,70.2 182.04,165.8 233.89,286.81z"/>
   <path class="fil2" d="M28238.37 12150.72c-519.28,-22.22 -925.33,-25.4 -1218.14,-9.52 -313.97,16.93 -481.54,198.26 -502.71,543.98 -176.03,-57.5 -286.45,-160.87 -331.25,-310.8 -41.28,-138.99 -24.35,-272.69 51.15,-401.46 90.66,-154.16 242.71,-230.36 456.14,-228.95 298.8,1.76 601.49,0.35 908.05,-4.23 156.99,-2.47 279.75,15.52 368.3,53.97 147.81,63.5 237.07,182.39 268.46,357.01z"/>
   <path class="fil2" d="M36349.44 12182.82c-43.39,-31.04 -86.78,-46.56 -130.17,-46.21 -291.4,1.06 -583.15,1.76 -874.89,2.82 -206.38,0.71 -349.61,19.41 -430.39,55.74 -181.68,82.2 -274.82,245.53 -278.7,490.01 -89.95,-14.46 -170.03,-61.03 -240.24,-139.35 -148.87,-165.8 -164.04,-406.04 -36.33,-590.19 95.6,-137.94 236,-207.79 420.51,-209.2 228.24,-1.41 531.28,-3.53 909.11,-6 185.91,-1.06 321.38,18.7 406.75,59.62 143.93,68.79 228.6,196.14 254.35,382.76z"/>
   <path class="fil2" d="M43024.7 12110.86c-361.59,28.93 -690.03,37.39 -985.31,25.4 -92.07,-3.88 -83.6,-76.91 -88.19,-146.41 -4.59,-75.49 -2.82,-156.28 6,-242l1026.23 3.53c16.93,0 30.69,13.4 31.04,30.34l10.23 329.14z"/>
   <path class="fil2" d="M19518.06 11761.25c143.58,104.43 258.23,226.49 344.66,366.19 249.42,403.22 319.62,832.91 210.97,1288.34 -91.73,384.18 -292.1,693.56 -601.49,927.46 -10.23,8.11 -11.99,17.63 -5.29,28.57l34.22 55.39c-211.32,-80.79 -351.72,-222.25 -420.51,-424.75 -5.65,-16.58 -1.41,-35.28 10.58,-48.33 83.61,-88.19 177.8,-161.22 254,-257.88 319.62,-403.58 437.09,-858.66 352.07,-1365.25 -11.64,-69.5 -40.57,-164.39 -86.08,-285.4 -34.92,-92.78 -65.97,-187.32 -93.13,-284.34z"/>
   <path class="fil2" d="M15528.85 11860.39c95.25,82.9 192.26,161.57 258.23,266.34 140.76,224.72 202.14,460.73 183.45,708.38 -13.76,187.68 40.92,372.18 13.4,552.45 -50.09,327.73 -207.78,615.24 -473.07,862.54 -324.21,301.63 -714.73,454.38 -1172.28,457.55 -366.54,2.83 -756.01,3.53 -1168.75,2.12 -14.82,0 -22.23,7.41 -22.23,22.23l-1.4 906.99c-0.36,20.11 -10.59,30.34 -30.71,30.34l-730.25 2.11c-15.16,0 -27.5,-11.64 -28.22,-26.81l-21.51 -364.77 393.35 3.18c32.09,0.35 48.32,-15.88 48.32,-47.98l-1.4 -856.19c0,-38.1 19.04,-57.51 57.49,-57.86 300.92,-4.23 599.73,-4.94 896.77,-2.47 292.45,2.47 528.1,-21.52 706.61,-71.97 964.14,-271.99 1459.09,-1248.83 1126.42,-2193.92 -13.05,-37.04 -24.34,-101.25 -34.22,-192.26z"/>
   <path class="fil4" d="M21800.53 13737.87c-37.39,-62.09 -64.56,-130.53 -81.49,-204.97 -9.88,-42.68 -52.21,-69.85 -94.9,-60.32l-87.48 18.7c-41.28,8.82 -68.09,-7.06 -80.44,-47.63 -18.7,-63.85 -22.22,-124.53 -11.29,-182.03 6.35,-32.1 32.81,-56.09 65.27,-59.27l113.24 -11.29c32.45,-3.17 58.21,-29.28 61.38,-61.73 8.12,-83.61 26.11,-165.46 53.27,-245.54 10.23,-29.63 -3.53,-62.44 -31.75,-76.2 -54.68,-26.45 -109.36,-59.62 -163.33,-99.13 -64.56,-46.92 -21.17,-130.88 0.35,-188.03 4.58,-11.99 13.05,-20.11 25.05,-24.69 83.96,-29.99 193.67,37.39 263.17,78.67 16.22,9.52 37.04,7.05 50.44,-6l218.73 -212.72c12.34,-12 13.76,-31.4 3.52,-45.16 -49.74,-65.26 -157.69,-191.21 -59.61,-268.82 40.92,-32.45 84.66,-55.03 130.88,-67.73 15.17,-4.23 27.87,0 37.39,12.35l142.17 184.5c11.64,15.17 32.1,20.11 49.39,12.35 90.31,-41.28 187.32,-70.21 290.69,-86.79 15.17,-2.47 26.1,-16.58 24.69,-31.75l-12.7 -138.29c-2.11,-22.57 7.76,-36.68 29.64,-42.68 70.2,-19.05 136.52,-20.82 198.26,-4.94 29.63,7.76 48.68,36.34 44.09,66.32l-12.7 88.55c-3.88,25.75 11.65,50.8 36.69,58.21l303.04 92.78c33.16,9.88 68.79,-4.94 84.67,-35.99l62.08 -120.29c5.65,-11.29 16.94,-18.7 29.28,-19.41 86.08,-7.05 155.23,14.82 207.09,65.62 31.75,31.05 33.86,81.14 4.93,115.01 -40.21,46.21 -70.55,94.19 -91.01,143.22 -5.65,13.06 -3.88,27.87 3.88,39.52 29.98,43.74 67.38,86.78 112.89,128.76 69.85,63.85 158.75,29.63 225.42,-22.58 18.35,-14.11 44.1,-13.4 61.39,1.41l100.89 87.49c33.87,29.28 35.98,81.49 3.88,112.89 -31.4,30.69 -70.91,59.27 -118.53,85.37 -38.46,21.17 -57.86,65.27 -47.63,107.95l61.74 258.24c6.35,25.75 27.16,45.5 53.27,50.09l110.42 19.05c37.04,6.35 57.5,28.22 61.38,65.26 6.7,61.04 1.76,117.83 -14.11,170.04 -12,38.81 -55.74,58.21 -92.43,40.57l-75.14 -36.33c-22.93,-11.29 -50.45,0 -59.27,23.99l-113.94 313.62c-11.65,32.45 -2.83,57.5 27.16,75.49l113.59 68.09c11.65,7.05 19.41,18.69 20.82,32.1 7.05,52.56 4.23,158.04 -54.33,186.62 -97.72,47.98 -162.28,-21.17 -237.77,-69.15 -25.4,-16.22 -58.56,-15.17 -82.9,2.47l-215.9 154.87c-33.17,23.64 -44.1,68.09 -26.11,104.42l58.21 115.72c13.05,26.45 6.35,58.2 -15.88,76.9 -54.68,46.22 -119.94,64.21 -195.08,53.98 -17.99,-2.47 -33.52,-12.7 -42.69,-28.23 -36.69,-62.08 -69.14,-174.27 -160.16,-170.39 -141.82,6 -275.52,9.17 -401.46,9.88 -105.48,0.71 -107.95,83.96 -134.06,157.69 -9.87,28.22 -40.21,44.1 -69.14,35.99 -68.79,-19.05 -127.71,-49.04 -176.74,-89.61 -25.4,-21.17 -28.93,-58.91 -8.12,-84.67l32.81 -40.92c28.22,-34.57 17.99,-86.08 -21.17,-107.95 -111.12,-61.74 -209.55,-137.94 -295.27,-228.6 -14.46,-15.17 -37.75,-18.7 -56.09,-8.47l-152.05 87.14c-58.91,33.87 -102.3,19.76 -130.17,-42.33 -16.94,-37.4 -36.34,-73.38 -58.21,-107.6 -15.88,-24.69 -9.88,-42.33 17.28,-52.92 68.09,-26.46 129.47,-72.32 184.15,-138.29 7.76,-9.17 8.47,-22.22 2.47,-32.45zm1924.62 -555.17c-34.43,-482 -458.47,-844.65 -946.86,-809.59 -488.45,35.14 -856.4,454.24 -821.69,936.38 34.43,482 458.47,844.66 946.86,809.63 488.45,-35.18 856.4,-454.28 821.69,-936.42z"/>
   <path class="fil3" d="M14737.22 12191.29c315.73,446.26 58.56,1073.5 -420.52,1255.54 -108.3,41.27 -267.05,63.14 -476.25,66.32 -237.06,3.17 -473.42,0.35 -709.09,-8.47l9.18 -1329.62c0.36,-19.4 15.52,-34.92 34.58,-35.27 361.59,-5.65 728.13,-5.65 1099.25,0 155.58,2.11 308.68,25.75 462.85,51.5z"/>
   <path class="fil3" d="M36349.44 12182.82c21.17,22.58 47.27,37.05 77.97,43.04 42.68,8.12 86.78,13.41 132.99,15.88 86.79,80.78 141.11,182.03 162.63,303.74 7.41,40.92 43.04,70.91 85.02,71.26 183.8,0.35 372.54,0.35 566.56,-0.7 45.86,-0.36 94.55,-10.59 145.7,-31.05l4.23 1656.29c-3.52,1.41 -6.35,4.94 -8.82,10.59 -3.17,8.46 -8.81,10.58 -16.93,6.35 -8.11,-4.24 -12.35,-10.94 -12.7,-20.47 -2.47,-78.31 15.88,-150.98 -12.7,-227.89 -48.33,-130.53 -106.54,-246.94 -175.33,-349.6 -52.56,-78.32 -134.76,-133 -207.79,-195.79 -248.35,-324.21 -426.15,-558.1 -828.67,-691.8 -125.94,-41.98 -350.31,-63.15 -672.75,-63.5 -255.06,-0.35 -512.23,0.7 -771.88,2.47 -42.33,0.35 -103.01,-8.47 -181.68,-26.46 3.88,-244.48 97.02,-407.81 278.7,-490.01 80.78,-36.33 224.01,-55.03 430.39,-55.74 291.74,-1.06 583.49,-1.76 874.89,-2.82 43.39,-0.35 86.78,15.17 130.17,46.21z"/>
   <path class="fil3" d="M18794.51 12192c223.66,303.74 158.05,739.07 -83.96,1014.59 -157.34,179.21 -356.66,277.98 -597.6,296.33 -257.18,19.4 -555.63,18.7 -896.06,-2.12l15.52 -1337.73c0.36,-13.41 11.29,-24.34 24.7,-24.34 394.05,-1.06 791.28,-0.36 1190.98,1.41 71.26,0.35 186.62,17.64 346.42,51.86z"/>
   <path class="fil3" d="M23725.15 13182.7c34.71,482.14 -333.24,901.24 -821.69,936.42 -488.39,35.03 -912.43,-327.63 -946.86,-809.63 -34.71,-482.14 333.24,-901.24 821.69,-936.38 488.39,-35.06 912.43,327.59 946.86,809.59zm-695.54 -104.88c-28.93,0 -52.21,-23.28 -51.86,-52.21l2.47 -392.64c0.35,-29.63 -23.99,-53.27 -53.62,-52.21l-197.2 5.99c-28.23,1.06 -50.45,24.35 -50.1,52.57l4.59 386.29c0.35,28.93 -22.93,52.56 -51.86,52.21l-422.63 -1.41c-28.57,0 -51.86,22.93 -52.21,51.51l-2.47 193.32c-0.35,28.93 22.93,52.56 51.86,52.56l427.57 0.71c28.92,0 52.56,23.99 51.86,52.91l-8.47 412.75c-0.71,28.93 22.58,52.57 51.86,52.92l199.32 0.35c28.92,0.36 52.21,-23.28 52.21,-52.21l-3.53 -414.16c0,-28.93 22.93,-52.21 51.86,-52.56l425.8 -1.41c28.93,-0.36 51.86,-23.64 51.86,-52.57l-2.12 -191.2c0,-28.23 -23.28,-51.16 -51.86,-51.16l-423.33 -0.35z"/>
   <path class="fil4" d="M23029.61 13077.82l423.33 0.35c28.58,0 51.86,22.93 51.86,51.16l2.12 191.2c0,28.93 -22.93,52.21 -51.86,52.57l-425.8 1.41c-28.93,0.35 -51.86,23.63 -51.86,52.56l3.53 414.16c0,28.93 -23.29,52.57 -52.21,52.21l-199.32 -0.35c-29.28,-0.35 -52.57,-23.99 -51.86,-52.92l8.47 -412.75c0.7,-28.92 -22.94,-52.91 -51.86,-52.91l-427.57 -0.71c-28.93,0 -52.21,-23.63 -51.86,-52.56l2.47 -193.32c0.35,-28.58 23.64,-51.51 52.21,-51.51l422.63 1.41c28.93,0.35 52.21,-23.28 51.86,-52.21l-4.59 -386.29c-0.35,-28.22 21.87,-51.51 50.1,-52.57l197.2 -5.99c29.63,-1.06 53.97,22.58 53.62,52.21l-2.47 392.64c-0.35,28.93 22.93,52.21 51.86,52.21z"/>
   <path class="fil2" d="M32307.67 13033.02c-5.65,55.74 19.4,82.55 75.14,80.08 81.49,-3.18 159.81,-2.47 234.95,2.12 35.98,2.47 64.2,32.45 63.85,68.79l-6.35 648.76c-0.35,46.56 -23.64,69.85 -70.55,69.85l-2011.19 2.11c-10.23,0 -18.7,8.47 -19.05,19.05l-2.47 552.45c-109.71,11.64 -222.25,3.53 -337.26,-24.34 -15.87,-3.88 -27.16,-17.99 -27.16,-34.22l2.47 -875.95c0,-17.28 13.76,-31.39 31.04,-31.39l2028.48 -2.83c25.04,0 44.45,-21.87 41.27,-46.91 -17.99,-149.94 -19.05,-292.46 -3.17,-427.57z"/>
   <path class="fil2" d="M34086.37 13348.4c257.18,107.95 477.31,161.57 659.7,160.87 326.67,-1.06 652.99,-1.41 979.31,-0.71 291.04,0.71 560.91,57.86 612.42,388.06 -273.76,4.58 -642.41,6.7 -1106.31,6 -475.9,-0.71 -881.95,-139.7 -1145.12,-554.22z"/>
   <path class="fil2" d="M26022.93 13396.38c101.95,22.22 201.08,44.1 297.39,65.97 106.89,24.34 207.08,38.45 300.57,41.63 397.58,14.11 764.82,-1.77 1140.53,9.52 227.54,7.06 430.04,148.52 466.72,382.77 -445.55,7.4 -815.97,9.87 -1110.54,7.05 -69.5,-0.7 -163.34,-8.11 -281.87,-21.87 -356.31,-41.28 -627.24,-202.85 -812.8,-485.07z"/>
   <path class="fil2" d="M28970.04 13457.06c88.54,72.67 182.73,141.46 245.18,233.54 89.25,131.23 163.33,299.5 157.34,460.02 -1.42,36.69 0.7,73.73 5.99,111.48 5.29,37.74 7.06,74.79 4.94,111.12 -9.88,154.17 10.94,305.15 -40.22,454.73 -131.93,387 -455.08,679.1 -841.37,789.17 -145.7,41.62 -367.59,60.32 -664.99,56.09 -288.92,-4.24 -568.32,-6.71 -838.2,-7.06 -386.64,-1.06 -800.8,-179.56 -999.77,-525.64 243.77,83.61 425.45,127.36 545.4,130.53 370.41,10.23 740.83,11.64 1111.25,4.59 170.74,-3.18 354.89,-14.47 515.76,-66.68 372.18,-121.71 633.23,-363.71 782.81,-726.72 99.48,-240.95 126.65,-466.02 81.14,-674.86 -37.04,-170.75 -58.56,-287.52 -65.26,-350.31z"/>
   <path class="fil2" d="M40409.21 14908.03l-225.07 703.44c-11.65,35.98 -45.16,60.68 -82.91,60.33 -255.06,-1.41 -493.89,-2.83 -716.49,-4.59 -43.04,-0.35 -72.32,-19.4 -88.19,-57.86 -41.28,-100.54 -64.91,-206.72 -70.91,-318.91l515.76 -11.29c32.46,-0.7 61.03,-21.87 70.91,-52.56 186.97,-573.62 362.65,-1103.14 527.05,-1588.91 18.7,-55.03 8.82,-118.53 42.33,-164.04 21.52,-28.93 32.46,-25.4 33.52,10.23 14.46,488.6 12.7,963.08 -6,1424.16z"/>
   <path class="fil2" d="M37090.27 13464.47c73.03,62.79 155.23,117.47 207.79,195.79 68.79,102.66 127,219.07 175.33,349.6 28.58,76.91 10.23,149.58 12.7,227.89 0.35,9.53 4.59,16.23 12.7,20.47 8.12,4.23 13.76,2.11 16.93,-6.35 2.47,-5.65 5.3,-9.18 8.82,-10.59 17.64,264.23 15.88,528.11 -5.29,790.93 2.82,-70.2 0.36,-128.76 -7.05,-175.68 -10.94,-70.21 -30.34,-72.68 -58.21,-7.06 -166.87,393 -443.8,648.05 -830.79,764.82 -140.06,42.34 -338.32,62.09 -594.43,59.27 -291.4,-3.17 -584.56,-4.94 -879.83,-5.29 -369.36,-0.71 -677.69,-120.65 -924.28,-359.83 -47.62,-45.87 -92.78,-108.31 -136.17,-187.68 234.6,98.42 500.94,150.63 798.69,156.28 355.6,6.7 693.91,3.88 1014.59,-8.47 228.24,-8.82 455.08,-58.56 648.75,-179.21 448.03,-279.4 708.74,-809.62 582.09,-1338.79 -22.58,-94.55 -26.81,-189.44 -42.34,-286.1z"/>
   <path class="fil2" d="M38662.96 14413.44c-28.22,5.64 -36.34,26.81 -24.7,63.15 7.06,22.57 12,46.56 14.82,72.31 17.64,160.87 47.27,322.09 43.74,481.19 -4.93,204.26 -4.58,398.29 1.42,581.38 1.05,31.05 -23.64,56.45 -54.68,56.45l-700.97 0.35c-25.4,0 -45.87,-21.52 -44.81,-46.92l14.47 -333.38 375.71 -9.87c20.81,-0.71 37.39,-18 36.68,-38.81 -10.93,-403.22 4.24,-809.27 -3.88,-1210.73 -3.17,-159.11 -5.99,-317.86 -9.17,-476.61 -0.35,-29.63 0,-46.91 1.06,-51.85 10.94,-46.22 23.99,-46.57 39.16,-1.77l311.15 915.11z"/>
   <path class="fil2" d="M18539.81 14703.42l-1263.3 6c-29.28,0 -44.1,14.82 -44.45,44.45l-5.29 855.48c-0.35,32.81 -27.17,59.27 -59.97,58.92l-669.93 -2.82c-38.45,-0.36 -69.14,-32.46 -67.03,-70.91l16.58 -304.1 356.66 -14.81c17.29,-0.71 30.69,-14.82 30.69,-32.11l0 -860.07c0,-41.98 20.82,-62.79 62.8,-63.15 374.65,-2.11 723.19,-3.17 1045.63,-2.82 115.36,0 236.01,-11.99 355.6,-15.52 20.82,-0.35 39.51,12.7 46.22,32.46 44.09,128.76 109.36,251.88 195.79,369z"/>
   <path class="fil2" d="M19737.84 14609.94c3.53,92.07 -8.82,170.39 86.08,197.55 89.6,25.4 179.56,47.27 269.87,65.97 23.99,5.29 40.93,26.46 40.93,50.8l-1.77 704.14c-0.35,15.53 -11.99,28.23 -27.51,29.64 -347.49,28.57 -805.4,-159.1 -1028,-428.98 -34.92,-42.33 -71.26,-84.67 -109.01,-127.35 262.12,89.25 441.68,142.17 539.4,158.04 69.85,11.29 138.99,14.47 207.43,9.88 15.88,-1.06 28.23,-14.46 27.87,-30.34 -0.35,-66.67 -4.23,-134.05 -10.93,-202.49 -14.47,-142.88 -0.71,-283.28 5.64,-426.86z"/>
   <path class="fil2" d="M29784.6 15283.74l3287.18 -5.64c31.75,-0.36 47.63,-16.23 47.63,-47.98l0.7 -334.08 293.87 -20.11c47.27,-3.18 70.91,18.7 70.91,66.32l0.35 698.5c0,11.29 -8.82,20.82 -20.11,21.52 -52.21,4.59 -105.83,6.7 -160.87,7.06 -1058.33,2.82 -2167.46,2.47 -3327.75,-1.41 -57.5,-0.36 -113.24,-3.88 -167.92,-10.59 -13.76,-1.76 -23.99,-13.76 -23.99,-27.51l0 -346.08z"/>
   <path class="fil5" d="M18937.49 16317.56c0.25,37.57 -29.73,68.26 -67.48,68.68l-388.76 3.39c-37.75,0.42 -68.44,-29.92 -68.69,-67.49l-0.18 -23.99c-0.28,-37.57 29.71,-68.26 67.46,-68.68l388.76 -3.39c37.74,-0.42 68.44,29.92 68.68,67.49l0.21 23.99z"/>
   <path class="fil5" d="M14651.84 17159.11c-31.75,318.91 -178.5,1085.49 -678.74,865.71 -259.29,-113.94 -82.2,-875.59 -17.29,-1069.97 75.14,-225.43 216.61,-430.04 493.19,-385.59 263.87,42.69 221.19,403.93 202.84,589.85zm-515.86 737.76c101.7,20 235.76,-226.59 299.26,-550.65 63.5,-323.99 32.81,-603.04 -69.04,-622.9 -101.71,-20 -235.76,226.59 -299.3,550.65 -63.46,323.99 -32.77,603.04 69.08,622.9z"/>
   <path class="fil5" d="M18370.83 18060.1c-227.19,-4.94 -282.23,-182.03 -278.34,-374.65 7.4,-342.54 93.48,-1236.84 621.24,-1115.13 122.41,28.58 188.03,113.6 196.85,255.77 19.75,321.38 -53.62,1244.95 -539.75,1234.01zm19.12 -160.94c101.88,19.83 235.23,-227.11 298.48,-551.85 63.04,-324.37 31.65,-603.77 -70.02,-623.46 -101.89,-19.83 -235.24,227.12 -298.45,551.85 -63.08,324.38 -31.68,603.78 69.99,623.46z"/>
   <path class="fil5" d="M26884.06 17403.58c-8.82,9.88 -14.46,24.7 -16.93,44.81 -22.23,187.67 -52.21,367.94 -89.96,540.45 -8.82,40.22 -33.51,60.68 -74.79,61.74l-50.09 1.41c-42.34,1.06 -60.33,-19.4 -53.63,-61.39l215.55 -1378.3c2.47,-15.87 15.17,-28.57 31.4,-31.04 97.72,-15.17 201.43,-20.82 311.15,-16.23 143.23,5.64 218.01,75.85 224.36,210.26 10.59,224.01 -35.27,487.18 -249.76,599.01 -13.41,6.7 -17.64,17.29 -13.05,31.75l201.43 595.84c8.82,25.76 -0.7,38.46 -27.87,38.81l-119.94 1.06c-29.99,0.35 -49.04,-14.11 -57.86,-42.69l-175.68 -583.14c-7.06,-23.64 -37.4,-30.69 -54.33,-12.35zm35.98 -265.99c-9.17,59.62 59.62,99.83 107.25,62.44l114.65 -90.31c14.47,-11.29 23.64,-27.87 25.4,-45.86l23.99 -249.77c3.53,-34.22 -19.76,-65.26 -53.62,-71.97l-84.67 -16.22c-37.04,-7.06 -72.67,17.99 -78.67,55.38l-54.33 356.31z"/>
   <path class="fil5" d="M36787.24 17400.76c-13.76,12.35 -21.87,28.58 -24.7,47.98 -26.45,188.03 -56.09,367.95 -88.19,539.04 -6.35,32.46 -33.51,56.8 -66.32,58.92l-71.62 5.29c-39.86,2.82 -56.79,-15.52 -50.44,-55.04l223.3 -1388.53c1.77,-12.7 11.65,-22.93 24.35,-25.05 116.77,-20.46 231.07,-25.4 343.25,-15.17 127.35,11.65 192.97,84.32 197.55,217.32 8.12,245.18 -39.86,453.32 -252.23,598.31 -12,8.11 -15.52,18.69 -10.58,32.1 58.91,165.1 114.3,329.14 166.15,492.12 9.53,30.7 23.29,59.27 41.63,85.73 10.23,15.17 2.12,36.34 -15.87,40.57 -51.51,11.64 -104.07,13.05 -157.7,3.53 -19.75,-3.53 -35.63,-17.99 -41.27,-37.04l-172.86 -587.73c-5.65,-19.41 -29.63,-26.11 -44.45,-12.35zm23.99 -248.71c-8.12,50.1 48.33,84.67 89.25,55.04l131.59 -94.9c12.7,-9.17 21.16,-23.29 22.93,-39.16l31.04 -261.76c3.18,-27.17 -13.76,-52.92 -40.22,-61.03l-100.89 -29.99c-32.81,-9.88 -67.03,11.29 -72.32,45.51l-61.38 386.29z"/>
   <path class="fil5" d="M39385.45 17869.6c-111.13,236.72 -433.21,215.2 -656.88,169.69 -13.05,-2.82 -18.34,-10.94 -16.58,-23.99l218.02 -1387.12c4.59,-29.64 21.87,-46.92 51.51,-51.51 97.01,-15.52 199.67,-18.7 308.32,-9.17 316.45,27.87 208.14,438.15 128.77,630.06 -6.7,15.88 -7.41,31.75 -2.12,47.98 63.85,200.02 48.33,454.02 -31.04,624.06zm-286.46 -1117.95l-67.03 351.37c-4.23,22.93 10.59,44.8 33.52,49.03l39.86 7.76c87.49,16.58 172.86,-45.15 190.5,-137.93l18.7 -97.72c17.64,-92.78 -38.81,-181.68 -126.65,-198.26l-39.86 -7.41c-22.58,-4.59 -44.81,10.58 -49.04,33.16zm-174.27 1075.27c-8.47,55.74 49.39,97.72 99.48,72.32l173.57 -88.2c20.46,-10.58 34.57,-30.69 37.04,-53.62l38.81 -326.32c4.58,-37.75 -22.93,-72.32 -61.03,-76.55l-146.05 -16.94c-36.69,-4.23 -70.56,21.52 -76.2,58.56l-65.62 430.75z"/>
   <path class="fil5" d="M43837.86 16834.2c17.28,318.56 -45.16,1039.99 -388.06,1196.97 -104.07,47.28 -297.04,44.81 -366.18,-68.08 -38.46,-62.44 -58.92,-131.59 -61.74,-207.08 -10.58,-270.23 26.81,-535.17 111.83,-795.16 71.61,-218.73 215.9,-432.16 482.25,-391.94 139.35,21.17 213.43,109.71 221.9,265.29zm-516.3 1058.4c101.43,19.34 233.37,-226.2 294.96,-548.53 61.53,-322.19 29.07,-599.12 -72.32,-618.6 -101.46,-19.33 -233.39,226.2 -294.99,548.54 -61.52,322.19 -29.07,599.12 72.35,618.59z"/>
   <path class="fil5" d="M13368.09 16736.83c-153.46,-19.4 -248.35,5.29 -284.69,74.09 -47.63,89.95 -29.29,179.56 55.02,268.81 130.53,138.64 307.28,276.23 305.51,482.96 -1.41,129.82 -39.86,291.74 -132.99,386.29 -148.87,150.63 -381,119.24 -572.2,73.02 -42.34,-10.23 -58.57,-36.69 -48.69,-79.02 4.23,-17.64 11.65,-34.57 22.57,-50.45 19.76,-29.28 55.74,-43.74 90.66,-37.04 231.79,44.8 372.54,6 422.29,-115.71 133.34,-326.67 -276.93,-434.27 -341.15,-713.32 -31.39,-136.52 -10.22,-256.47 63.5,-360.18 94.91,-133.35 377.47,-108.31 511.53,-70.91 32.81,9.17 44.81,30.34 35.99,63.15 -8.47,31.39 -36.34,55.73 -83.26,73.02 -14.11,5.29 -29.28,7.06 -44.09,5.29z"/>
   <path class="fil5" d="M17302.26 18064.69c-191.91,-119.59 -191.56,-272.7 -182.38,-469.55 19.75,-417.69 114.3,-1193.45 715.08,-994.48 15.17,4.94 22.58,15.52 22.58,31.4 0,129.82 -163.34,108.65 -252.24,106.18 -80.79,-1.76 -147.11,117.48 -171.8,188.74 -89.61,260.7 -130.18,531.99 -122.06,814.21 2.46,83.96 45.86,127.35 130.17,130.18 64.91,2.47 128.41,2.82 190.85,1.76 25.4,-0.35 46.57,19.4 47.63,44.8 3.53,95.25 -106.89,116.42 -178.86,140.76 -21.87,7.41 -37.39,26.46 -40.22,49.04 -28.22,232.83 -22.93,354.89 -314.67,282.57 -14.47,-3.53 -24.7,-12.35 -30.7,-26.46 -10.58,-26.1 -10.93,-51.85 -1.05,-77.61 4.58,-11.64 13.05,-17.64 25.4,-17.99l114.3 -4.94c13.75,-0.7 26.1,-8.46 32.8,-20.46 22.58,-41.98 32.81,-92.43 31.05,-150.64 -0.35,-11.99 -5.65,-21.16 -15.88,-27.51z"/>
   <path class="fil5" d="M20890.72 16736.13c-82.2,-7.41 -161.93,-6.35 -239.89,3.88 -62.44,8.11 -101.25,45.15 -115.71,110.77 -60.68,273.4 376.41,391.58 375.71,683.33 -0.71,254.71 -100.54,532.34 -408.87,524.93 -88.2,-1.76 -189.44,-11.99 -303.39,-30.34 -19.76,-3.17 -33.87,-21.16 -32.1,-40.92l7.4 -93.84c1.77,-19.75 12.35,-29.63 32.11,-29.63 89.96,0.35 187.68,0.71 292.45,1.76 94.54,1.06 158.75,-39.86 192.62,-122.06 125.23,-305.5 -185.21,-401.81 -299.86,-621.59 -65.27,-125.24 -69.85,-256.47 -13.41,-393 82.9,-199.67 363.01,-177.44 539.4,-142.52 28.22,5.65 40.57,22.93 36.69,51.51l-7.06 52.91c-3.53,27.52 -28.22,47.28 -56.09,44.81z"/>
   <path class="fil5" d="M25838.07 17882.3c86.08,27.17 150.29,8.82 164.4,-85.72 20.11,-135.12 45.86,-284.34 76.55,-447.33 11.64,-61.73 48.68,-88.54 111.13,-80.78l15.52 2.12c41.98,5.29 59.62,28.92 52.92,70.55l-105.48 660.75c-1.77,10.59 -9.53,19.41 -20.11,21.88 -126.65,31.39 -364.42,70.2 -479.08,-12.7 -57.15,-41.28 -89.6,-104.78 -97.01,-190.15 -24.34,-276.23 18.7,-1213.91 447.32,-1250.95 86.79,-7.41 179.92,-0.71 279.4,20.11 32.81,7.05 43.75,26.46 32.81,57.85l-15.17 44.81c-10.93,32.45 -43.04,52.91 -77.26,49.03 -101.24,-11.29 -263.87,-24.69 -315.03,83.61 -113.94,240.24 -170.04,549.28 -167.57,926.39 0.36,67.03 32.81,110.42 96.66,130.53z"/>
   <path class="fil5" d="M28194.98 17576.44c-59.62,0.36 -190.85,-44.09 -221.54,27.17 -55.39,130.17 -103.01,257.53 -143.23,382.76 -14.46,44.8 -44.8,65.62 -91.72,62.44l-56.8 -3.88c-42.68,-2.82 -56.44,-24.34 -41.98,-64.2 161.22,-438.15 332.67,-884.42 514.7,-1338.44 24.7,-61.03 73.03,-83.96 144.64,-68.09 27.17,6 47.27,29.28 49.04,56.8l95.95 1366.31c2.47,34.22 -13.4,51.15 -47.62,50.09l-96.66 -1.76c-25.05,-0.71 -38.81,-13.76 -40.92,-38.81l-31.4 -400.05c-1.06,-16.93 -15.52,-30.34 -32.46,-30.34zm-30.69 -510.82c-42.33,94.19 -70.2,201.44 -103.01,302.68 -10.94,32.81 1.06,47.63 35.63,44.45l62.44 -5.99c31.4,-3.18 46.57,-20.46 45.16,-51.86 -3.53,-87.84 -1.77,-180.62 5.29,-277.64 6.35,-89.96 -8.82,-93.84 -45.51,-11.64z"/>
   <path class="fil5" d="M29684.06 16875.83c5.29,348.54 -52.57,1143.35 -497.42,1181.8 -107.24,9.53 -222.25,3.18 -345.02,-18.34 -17.28,-3.18 -24.69,-13.41 -21.87,-30.69l224.02 -1387.83c3.52,-21.87 21.16,-38.81 43.04,-41.28 97.71,-11.29 196.85,-10.93 295.62,-14.46 197.91,-7.41 298.45,95.96 301.63,310.8zm-473.78 -110.07l-185.21 1041.05c-7.06,38.1 18.34,74.43 56.44,81.14l58.56 10.23c115.01,20.46 235.31,-115.71 268.82,-304.1l88.55 -496c33.51,-188.74 -32.46,-358.07 -147.46,-378.53l-58.56 -10.59c-38.1,-6.7 -74.09,18.7 -81.14,56.8z"/>
   <path class="fil5" d="M30465.11 17577.15c-21.17,-3.88 -43.39,-6 -66.68,-6.35 -77.96,-2.12 -125.59,-34.93 -165.1,64.91 -46.21,116.42 -88.19,231.42 -126.64,345.02 -17.29,51.15 -52.57,74.08 -106.19,68.44l-33.87 -3.53c-50.8,-5.29 -67.02,-31.75 -49.03,-79.38 144.28,-379.23 289.27,-757.06 435.68,-1133.12 38.1,-97.72 69.14,-171.8 92.78,-221.54 5.64,-11.65 14.11,-20.46 25.75,-25.76 39.51,-18.69 80.43,-19.05 122.77,-1.05 11.99,4.93 19.4,13.75 22.22,26.45 8.82,41.63 14.82,86.08 17.99,133.35 28.58,428.28 57.15,845.61 85.38,1252.01 2.47,32.1 -12.7,49.04 -44.81,50.45l-84.31 3.17c-31.04,1.42 -57.5,-22.57 -59.62,-53.62l-22.58 -370.77c-1.76,-27.87 -16.23,-44.09 -43.74,-48.68zm-121 -179.21l92.78 18.7c4.58,1.05 9.17,-2.12 9.87,-6.71l1.41 -6.35c43.75,-214.49 55.74,-392.99 26.82,-398.99l-4.94 -1.06c-28.58,-5.64 -87.49,163.34 -130.88,377.83l-1.41 6.35c-1.06,4.58 1.76,9.17 6.35,10.23z"/>
   <path class="fil5" d="M31540.37 17759.18c56.45,-119.59 51.51,-221.54 -14.46,-306.56 -164.39,-211.32 -377.47,-309.74 -318.56,-638.18 52.57,-293.51 361.6,-267.05 579.62,-225.42 12.34,2.47 20.46,9.52 23.63,21.87 9.17,34.57 5.65,65.97 -10.23,94.55 -7.76,13.75 -19.4,20.81 -35.28,21.16 -75.14,2.47 -152.75,5.29 -232.12,9.17 -185.56,8.47 -171.1,241.66 -83.61,333.03 69.14,71.96 139.35,146.05 210.96,221.89 131.94,140.06 129.12,305.51 75.85,478.72 -53.98,177.45 -169.69,273.05 -346.43,287.52 -109.36,8.82 -217.67,-19.41 -329.5,-21.52 -16.93,-0.36 -30.33,-15.17 -28.92,-32.11l9.17 -119.23c1.41,-19.76 19.05,-34.58 38.8,-32.46 142.88,15.52 387,64.56 461.08,-92.43z"/>
   <path class="fil5" d="M34686.45 16815.5c23.28,331.97 -58.92,1393.12 -639.59,1227.32 -122.77,-35.28 -170.74,-168.28 -173.92,-283.28 -8.82,-344.67 64.56,-1297.87 613.13,-1186.75 123.82,25.05 190.85,106.19 200.38,242.71zm-518.9 1081.23c102.27,19.79 235.97,-226.45 298.83,-549.98 62.73,-323.46 30.98,-602.16 -71.05,-621.88 -102.23,-19.79 -235.93,226.45 -298.8,549.98 -62.72,323.47 -30.97,602.16 71.02,621.88z"/>
   <path class="fil5" d="M38099.57 17583.85c-30.69,-8.46 -62.79,-13.76 -95.95,-15.87 -53.63,-3.53 -116.07,-20.46 -142.53,43.74 -54.68,132.29 -100.54,256.82 -137.58,373.59 -13.05,41.28 -40.92,62.09 -84.31,62.8l-52.57 0.7c-50.09,0.71 -67.38,-22.93 -52.21,-70.9 18.7,-58.92 38.81,-116.77 60.68,-173.57 139.35,-364.42 277.64,-721.08 414.51,-1070.68 15.53,-39.51 33.16,-81.49 53.27,-125.59 5.29,-11.29 13.41,-19.4 24.7,-24.34 69.14,-29.64 148.52,-18.7 155.22,73.37 28.22,396.88 59.62,842.79 93.84,1338.09 2.47,32.1 -12.35,48.68 -44.45,49.74l-87.14 3.88c-29.28,1.06 -54.33,-21.52 -56.09,-50.8l-23.28 -382.06c-1.06,-15.16 -11.64,-28.22 -26.11,-32.1zm-136.52 -185.21l90.31 19.41c5.29,1.05 10.23,-2.47 11.29,-7.41l1.41 -6c45.15,-211.31 58.56,-387.7 29.63,-394.05l-4.23 -0.71c-28.93,-6.35 -89.25,160.16 -134.41,371.48l-1.41 5.99c-1.06,4.94 2.12,10.24 7.41,11.29z"/>
   <path class="fil5" d="M15220.87 17877.01l258.94 1.41c18.7,0 34.22,14.47 35.63,33.16l7.06 96.31c1.41,20.81 -14.82,38.45 -35.63,38.45l-479.43 2.12c-22.22,0 -39.15,-19.76 -35.63,-41.63l218.37 -1395.94c2.82,-17.99 18.7,-31.04 37.04,-30.34l108.66 4.94c21.17,1.06 37.04,20.11 33.87,41.28l-184.15 1208.61c-3.53,21.87 13.4,41.28 35.27,41.63z"/>
   <path class="fil5" d="M16199.13 17873.48c146.4,55.39 238.12,-52.91 263.17,-184.15 63.5,-330.2 121.35,-684.74 173.21,-1063.27 4.94,-34.92 25.05,-50.8 60.33,-47.62l76.55 7.05c31.75,2.82 45.51,20.11 41.28,51.51 -60.68,446.97 -114.3,796.92 -160.52,1049.86 -59.62,325.62 -254.7,440.62 -585.26,344.31 -113.59,-33.16 -107.24,-215.9 -89.25,-334.08 52.56,-350.3 104.78,-705.2 156.63,-1065.39 5.3,-36.33 26.11,-55.03 63.15,-55.38l51.51 -0.35c43.39,-0.36 62.44,21.16 57.15,63.85 -37.04,307.97 -77.61,608.89 -122.42,903.46 -13.76,88.55 -21.87,178.86 -25.04,270.94 -0.71,26.1 15.17,50.09 39.51,59.26z"/>
   <path class="fil5" d="M19491.6 17874.89l325.62 -0.7c24.69,0 37.04,12.35 37.39,36.69l0.71 89.25c0.35,29.28 -14.11,44.1 -43.4,44.45l-535.51 6c-17.64,0.35 -31.4,-15.53 -28.58,-32.81l223.31 -1397c4.59,-27.87 20.82,-41.63 49.04,-41.28l490.01 6c30.69,0.35 44.09,15.52 40.21,45.86l-7.05 57.15c-3.88,33.87 -23.29,51.15 -57.51,51.86l-285.75 5.64c-34.92,0.71 -64.2,26.46 -69.85,60.68l-52.56 331.97c-2.47,14.46 8.47,27.87 23.28,28.57l290.69 13.41c15.88,0.7 30.34,10.23 38.1,24.34 10.94,21.17 13.41,40.22 7.41,57.15 -14.46,41.27 -52.56,69.85 -96.31,72.32 -81.84,4.58 -165.1,7.05 -249.41,8.11 -27.52,0.36 -50.45,20.46 -54.33,47.63l-67.73 459.31c-2.47,16.94 4.94,25.4 22.22,25.4z"/>
   <path class="fil5" d="M22004.97 18002.49c-4.76,31.86 -34.75,53.73 -66.82,48.93l-59.97 -9.27c-31.79,-4.98 -54.01,-34.96 -48.9,-66.86l209.2 -1351.28c4.76,-31.82 34.75,-53.69 66.82,-48.89l59.97 9.28c31.78,4.97 54.01,34.96 48.89,66.85l-209.19 1351.24z"/>
   <path class="fil5" d="M22785.84 17229.66c-14.11,-22.93 -23.28,-21.16 -27.52,5.65l-119.23 761.64c-4.24,26.82 -26.82,47.28 -53.98,48.34l-76.9 4.23c-37.75,1.76 -53.98,-15.88 -47.98,-53.62l215.9 -1365.25c3.53,-22.93 16.23,-38.46 38.45,-45.86 101.25,-33.87 140.05,13.05 159.81,109 50.45,243.77 94.54,493.89 132.29,750.36 1.41,10.23 13.05,15.17 21.87,9.53 7.41,-4.94 12,-12 13.06,-20.82 40.21,-270.58 84.31,-540.1 132.64,-808.56 5.64,-31.4 35.28,-52.21 66.67,-47.63 29.64,4.23 46.92,6.7 51.51,7.76 38.1,5.65 54.33,27.52 48.68,65.62 -65.26,437.09 -132.99,887.24 -203.55,1349.73 -3.88,24.34 -15.52,38.8 -34.92,44.09 -76.56,20.82 -152.76,3.53 -168.28,-82.55 -42.33,-236.71 -87.14,-468.48 -134.41,-694.97 -2.47,-13.05 -7.41,-25.4 -14.11,-36.69z"/>
   <path class="fil5" d="M23716.12 16709.67l9.87 -96.31c2.12,-19.4 18.7,-34.22 38.46,-34.22l549.62 7.76c26.82,0.35 44.81,27.52 34.93,52.21l-31.05 77.61c-5.64,14.12 -18.69,23.29 -33.86,23.99l-142.52 6c-18,0.71 -33.16,14.11 -35.99,32.1l-200.73 1227.67c-2.82,16.93 -16.23,29.99 -33.16,31.75l-112.89 12.7c-25.04,2.82 -45.86,-18.7 -41.98,-43.74l190.5 -1218.15c3.88,-23.99 -15.52,-45.15 -39.86,-43.74l-111.13 6.35c-23.63,1.41 -42.68,-18.7 -40.21,-41.98z"/>
   <path class="fil5" d="M24855.59 17168.99l281.52 10.93c21.16,0.71 37.74,18.7 36.68,39.87l-3.52 73.02c-1.06,19.4 -16.58,35.28 -35.99,36.34l-313.62 19.05c-17.64,1.05 -32.45,14.11 -35.27,31.75l-73.03 451.2c-3.53,23.28 14.11,44.1 37.4,44.45l318.2 1.41c22.23,0.35 39.51,18.7 38.1,40.57l-6 87.84c-1.05,19.76 -17.28,35.28 -37.04,35.63l-532.34 12.35c-23.99,0.7 -42.33,-20.46 -38.81,-44.1l222.61 -1398.06c3.17,-18.69 19.4,-32.45 38.1,-32.1l499.18 4.94c22.22,0 39.86,19.4 37.39,41.63l-7.76 79.73c-1.76,19.05 -17.64,33.86 -36.69,34.57l-329.49 8.82c-18.35,0.35 -33.52,13.76 -36.69,31.39l-58.91 344.32c-3.89,22.57 13.05,43.39 35.98,44.45z"/>
   <path class="fil5" d="M33272.87 17456.15c15.17,-74.79 4.58,-145.7 16.58,-221.55 32.81,-205.67 62.79,-404.99 89.96,-597.96 5.99,-41.98 29.98,-61.03 72.31,-57.5l43.4 3.88c45.5,3.88 64.91,28.58 58.2,74.08l-203.55 1340.91c-3.53,21.88 -20.46,39.16 -42.33,42.34 -49.04,6.7 -89.25,2.47 -121.36,-13.06 -13.4,-6.35 -21.52,-16.93 -24.69,-31.39 -40.57,-189.8 -80.08,-386.65 -118.18,-590.2 -12.35,-65.97 -29.99,-126.3 -52.57,-181.68 -14.46,-35.63 -23.63,-34.57 -27.51,3.88 -25.76,270.58 -65.27,530.58 -119.24,779.64 -3.88,18.7 -15.52,29.28 -34.22,32.45 -36.34,6.35 -72.32,6.71 -107.6,1.42 -22.58,-3.89 -32.1,-16.94 -28.57,-39.52l216.96 -1379.71c3.17,-20.11 17.99,-36.34 37.74,-41.63 128.77,-34.22 158.75,83.61 175.33,174.98 33.87,187.68 68.09,373.59 102.31,557.39 9.52,51.15 25.75,99.83 47.98,145.7 8.82,17.99 15.17,17.28 19.05,-2.47z"/>
   <path class="fil5" d="M40253.99 17579.27c-66.33,-10.23 -207.79,-38.1 -243.07,38.8 -47.27,103.37 -94.19,228.25 -140.76,373.95 -14.11,44.8 -44.45,64.2 -91.01,58.91l-47.28 -6c-49.74,-5.99 -65.61,-32.1 -47.62,-79.02 166.51,-432.15 334.79,-870.3 505.18,-1314.1 24.69,-64.2 79.37,-86.07 164.39,-65.97 25.05,6 38.45,21.88 40.22,47.63 26.46,418.04 54.33,828.67 83.96,1231.19 4.23,58.56 9.52,98.43 15.87,119.95 11.29,37.74 -2.46,56.44 -41.62,56.44l-95.96 0.36c-35.28,0 -53.97,-17.64 -56.09,-52.57l-25.05 -386.29c-0.7,-13.41 -7.76,-21.17 -21.16,-23.28zm-157.34 -194.74c-3.53,11.64 4.58,23.29 16.58,24.7 35.98,3.88 71.96,0.35 108.3,-10.94 13.76,-4.23 22.93,-17.29 22.58,-31.75l-9.53 -348.54c0,-6.35 -4.94,-11.29 -10.93,-12.35 -6,-0.71 -12,2.82 -13.76,8.82l-113.24 370.06z"/>
   <path class="fil5" d="M41101.01 17846.67c-2.47,17.29 4.93,26.46 22.57,26.81l263.53 4.24c26.46,0.35 47.98,20.81 49.74,47.27l4.59 74.08c2.47,34.22 -13.41,51.15 -47.63,50.8l-462.14 -2.12c-35.98,0 -51.15,-17.63 -45.15,-53.26l218.37 -1363.84c5.64,-34.93 26.1,-52.57 61.38,-52.92l63.85 -0.71c36.34,-0.35 53.62,17.29 51.86,53.63 -3.17,60.32 -6.35,101.24 -9.88,122.76 -58.91,365.13 -116.06,729.55 -171.09,1093.26z"/>
   <path class="fil5" d="M42371.01 17338.32l-220.84 0c-18.7,0 -34.22,13.4 -37.4,31.4l-108.3 643.11c-2.82,17.64 -17.64,30.69 -35.28,31.4l-100.54 4.58c-23.64,1.06 -42.69,-20.11 -38.81,-43.74l223.31 -1394.53c3.18,-19.76 21.17,-33.52 40.92,-31.75l89.26 8.82c21.16,1.76 36.69,21.16 33.86,42.33l-64.55 498.12c-3.18,22.58 14.46,42.34 37.04,42.69l219.07 1.06c18.35,0 34.22,-13.41 37.4,-31.75l87.13 -533.05c3.53,-21.17 23.64,-34.92 44.45,-31.04l91.37 17.99c19.76,3.88 32.81,22.93 29.99,42.68l-207.79 1378.31c-2.82,18.69 -19.05,32.45 -37.74,32.1l-100.9 -1.41c-22.93,0 -40.22,-20.46 -37.04,-43.04l92.78 -620.89c3.17,-22.93 -14.46,-43.39 -37.39,-43.39z"/>
   <path class="fil5" d="M35875.31 16744.59l-133 -1.76c-28.57,-0.35 -41.98,-14.82 -40.22,-43.04l4.24 -66.67c2.11,-31.75 19.05,-47.63 50.8,-47.63l537.63 0.35c22.23,0 41.98,14.82 48.33,35.99 35.98,122.06 -133,116.06 -198.97,123.12 -31.04,3.52 -49.03,20.81 -53.97,51.85l-186.27 1187.45c-6.7,44.1 -32.45,65.62 -77.26,64.92l-73.02 -1.06c-32.81,-0.36 -46.92,-16.94 -41.63,-49.39l193.68 -1218.14c2.82,-18.7 -11.29,-35.63 -30.34,-35.99z"/>
   <path class="fil3" d="M36811.23 17152.05l61.38 -386.29c5.29,-34.22 39.51,-55.39 72.32,-45.51l100.89 29.99c26.46,8.11 43.4,33.86 40.22,61.03l-31.04 261.76c-1.77,15.87 -10.23,29.99 -22.93,39.16l-131.59 94.9c-40.92,29.63 -97.37,-4.94 -89.25,-55.04z"/>
   <path class="fil3" d="M26920.04 17137.59l54.33 -356.31c6,-37.39 41.63,-62.44 78.67,-55.38l84.67 16.22c33.86,6.71 57.15,37.75 53.62,71.97l-23.99 249.77c-1.76,17.99 -10.93,34.57 -25.4,45.86l-114.65 90.31c-47.63,37.39 -116.42,-2.82 -107.25,-62.44z"/>
   <path class="fil3" d="M29210.28 16765.76c7.05,-38.1 43.04,-63.5 81.14,-56.8l58.56 10.59c115,20.46 180.97,189.79 147.46,378.53l-88.55 496c-33.51,188.39 -153.81,324.56 -268.82,304.1l-58.56 -10.23c-38.1,-6.71 -63.5,-43.04 -56.44,-81.14l185.21 -1041.05z"/>
   <path class="fil3" d="M39098.99 16751.65c4.23,-22.58 26.46,-37.75 49.04,-33.16l39.86 7.41c87.84,16.58 144.29,105.48 126.65,198.26l-18.7 97.72c-17.64,92.78 -103.01,154.51 -190.5,137.93l-39.86 -7.76c-22.93,-4.23 -37.75,-26.1 -33.52,-49.03l67.03 -351.37z"/>
   <path class="fil3" d="M14135.98 17896.87c-101.85,-19.86 -132.54,-298.91 -69.08,-622.9 63.54,-324.06 197.59,-570.65 299.3,-550.65 101.85,19.86 132.54,298.91 69.04,622.9 -63.5,324.06 -197.56,570.65 -299.26,550.65z"/>
   <path class="fil3" d="M18389.95 17899.16c-101.67,-19.68 -133.07,-299.08 -69.99,-623.46 63.21,-324.73 196.56,-571.68 298.45,-551.85 101.67,19.69 133.06,299.09 70.02,623.46 -63.25,324.74 -196.6,571.68 -298.48,551.85z"/>
   <path class="fil3" d="M34167.55 17896.73c-101.99,-19.72 -133.74,-298.41 -71.02,-621.88 62.87,-323.53 196.57,-569.77 298.8,-549.98 102.03,19.72 133.78,298.42 71.05,621.88 -62.86,323.53 -196.56,569.77 -298.83,549.98z"/>
   <path class="fil3" d="M43321.56 17892.6c-101.42,-19.47 -133.87,-296.4 -72.35,-618.59 61.6,-322.34 193.53,-567.87 294.99,-548.54 101.39,19.48 133.85,296.41 72.32,618.6 -61.59,322.33 -193.53,567.87 -294.96,548.53z"/>
   <path class="fil3" d="M30344.11 17397.94c-4.59,-1.06 -7.41,-5.65 -6.35,-10.23l1.41 -6.35c43.39,-214.49 102.3,-383.47 130.88,-377.83l4.94 1.06c28.92,6 16.93,184.5 -26.82,398.99l-1.41 6.35c-0.7,4.59 -5.29,7.76 -9.87,6.71l-92.78 -18.7z"/>
   <path class="fil3" d="M40096.65 17384.53l113.24 -370.06c1.76,-6 7.76,-9.53 13.76,-8.82 5.99,1.06 10.93,6 10.93,12.35l9.53 348.54c0.35,14.46 -8.82,27.52 -22.58,31.75 -36.34,11.29 -72.32,14.82 -108.3,10.94 -12,-1.41 -20.11,-13.06 -16.58,-24.7z"/>
   <path class="fil3" d="M28061.28 17368.3c32.81,-101.24 60.68,-208.49 103.01,-302.68 36.69,-82.2 51.86,-78.32 45.51,11.64 -7.06,97.02 -8.82,189.8 -5.29,277.64 1.41,31.4 -13.76,48.68 -45.16,51.86l-62.44 5.99c-34.57,3.18 -46.57,-11.64 -35.63,-44.45z"/>
   <path class="fil3" d="M37963.05 17398.64c-5.29,-1.05 -8.47,-6.35 -7.41,-11.29l1.41 -5.99c45.16,-211.32 105.48,-377.83 134.41,-371.48l4.23 0.71c28.93,6.35 15.52,182.74 -29.63,394.05l-1.41 6c-1.06,4.94 -6,8.46 -11.29,7.41l-90.31 -19.41z"/>
   <path class="fil3" d="M38924.72 17826.92l65.62 -430.75c5.64,-37.04 39.51,-62.79 76.2,-58.56l146.05 16.94c38.1,4.23 65.61,38.8 61.03,76.55l-38.81 326.32c-2.47,22.93 -16.58,43.04 -37.04,53.62l-173.57 88.2c-50.09,25.4 -107.95,-16.58 -99.48,-72.32z"/>
  </g>
 </g>
</svg>
